<?xml version="1.0" encoding="utf-8"?>
<!-- Generator: Adobe Illustrator 18.1.1, SVG Export Plug-In . SVG Version: 6.00 Build 0)  -->
<!DOCTYPE svg PUBLIC "-//W3C//DTD SVG 1.1//EN" "http://www.w3.org/Graphics/SVG/1.1/DTD/svg11.dtd" [
	<!ENTITY ns_extend "http://ns.adobe.com/Extensibility/1.0/">
	<!ENTITY ns_ai "http://ns.adobe.com/AdobeIllustrator/10.0/">
	<!ENTITY ns_graphs "http://ns.adobe.com/Graphs/1.0/">
	<!ENTITY ns_vars "http://ns.adobe.com/Variables/1.0/">
	<!ENTITY ns_imrep "http://ns.adobe.com/ImageReplacement/1.0/">
	<!ENTITY ns_sfw "http://ns.adobe.com/SaveForWeb/1.0/">
	<!ENTITY ns_custom "http://ns.adobe.com/GenericCustomNamespace/1.0/">
	<!ENTITY ns_adobe_xpath "http://ns.adobe.com/XPath/1.0/">
]>
<svg version="1.1" id="Layer_1" xmlns:x="&ns_extend;" xmlns:i="&ns_ai;" xmlns:graph="&ns_graphs;"
	 xmlns="http://www.w3.org/2000/svg" xmlns:xlink="http://www.w3.org/1999/xlink" x="0px" y="0px" viewBox="0 0 620.4 297.8"
	 enable-background="new 0 0 620.4 297.8" xml:space="preserve">
<metadata>
	<sfw  xmlns="&ns_sfw;">
		<slices></slices>
		<sliceSourceBounds  width="6450.1" height="1420.3" bottomLeftOrigin="true" x="45.9" y="-1034.2"></sliceSourceBounds>
		<optimizationSettings>
			<targetSettings  fileFormat="PNG24Format" targetSettingsID="0">
				<PNG24Format  transparency="false" noMatteColor="false" matteColor="#FFFFFF" filtered="false" interlaced="false">
					</PNG24Format>
			</targetSettings>
		</optimizationSettings>
	</sfw>
</metadata>
<g>
	<path fill="#61A5D9" d="M613.2,296.3H7.2c-3.1,0-5.7-2.6-5.7-5.7V129c0-3.1,2.6-5.7,5.7-5.7h606.1c3.1,0,5.7,2.6,5.7,5.7v161.7
		C618.9,293.8,616.4,296.3,613.2,296.3z"/>
	<path fill="#61A5D9" d="M613.2,297.8H7.2c-4,0-7.2-3.2-7.2-7.2V129c0-4,3.2-7.2,7.2-7.2h606.1c4,0,7.2,3.2,7.2,7.2v161.7
		C620.4,294.6,617.2,297.8,613.2,297.8z M7.2,124.8c-2.3,0-4.2,1.9-4.2,4.2v161.7c0,2.3,1.9,4.2,4.2,4.2h606.1
		c2.3,0,4.2-1.9,4.2-4.2V129c0-2.3-1.9-4.2-4.2-4.2H7.2z"/>
</g>
<g>
	<path fill="#FFFFFF" d="M610.6,143.8H9.8c-4.6,0-8.3-3.7-8.3-8.3V9.8c0-4.6,3.7-8.3,8.3-8.3h600.9c4.6,0,8.3,3.7,8.3,8.3v125.8
		C618.9,140.1,615.2,143.8,610.6,143.8z"/>
	<path fill="#61A5D9" d="M610.6,145.3H9.8c-5.4,0-9.8-4.4-9.8-9.8V9.8C0,4.4,4.4,0,9.8,0h600.9c5.4,0,9.8,4.4,9.8,9.8v125.8
		C620.4,141,616,145.3,610.6,145.3z M9.8,3C6,3,3,6,3,9.8v125.8c0,3.7,3,6.8,6.8,6.8h600.9c3.7,0,6.8-3,6.8-6.8V9.8
		c0-3.7-3-6.8-6.8-6.8H9.8z"/>
</g>
<g>
	<path fill="#FFFFFF" d="M195.8,187.1h-11.9l-2.3,7.2c-0.2,0.6-0.6,0.9-1.2,0.9h-3.9c-0.6,0-0.9-0.3-0.6-1l10.9-31.4
		c0.2-0.6,0.5-0.8,1.3-0.8h3.8c0.8,0,1.1,0.2,1.3,0.8l11.3,31.5c0.2,0.6-0.1,0.9-0.6,0.9h-4.2c-0.7,0-1-0.2-1.2-0.9L195.8,187.1z
		 M185.3,182.5h8.9l-0.5-1.5c-1.6-4.8-3-9.2-3.9-12.3c-0.9,3.1-2.5,7.8-4,12.3L185.3,182.5z"/>
	<path fill="#FFFFFF" d="M222.8,189.7c-1.1,0-1.4-0.2-1.7-0.9l-2.9-7c-1.3-3.2-3-7.6-3.9-10.3c0,3.2,0,8.7-0.2,13.4l-0.3,9.3
		c0,0.7-0.3,1-1,1h-3.4c-0.8,0-1.1-0.3-1.1-1.1l1.4-31.1c0-0.7,0.3-1,1.1-1h3.7c0.9,0,1.2,0.2,1.5,0.9l4.2,10.5
		c1.8,4.3,3,7.6,3.8,10c0.9-2.4,2.3-6.3,3.7-9.8l4.3-10.7c0.3-0.7,0.7-0.9,1.4-0.9h3.6c0.8,0,1.1,0.3,1.1,1l1.3,31.1
		c0,0.8-0.3,1.1-1.1,1.1h-3.5c-0.8,0-1.1-0.3-1.1-1l-0.3-12c-0.1-4.7-0.2-7.8-0.2-10.8c-0.9,2.8-2.4,7-3.8,10.5l-2.9,7
		c-0.3,0.7-0.6,0.9-1.7,0.9H222.8z"/>
	<path fill="#FFFFFF" d="M254.3,190.7c3.3,0,5.9-1.6,5.9-4.4c0-3-3-4.5-5.9-5.9c-3.9-1.9-8.3-4.1-8.3-9.5c0-6,4.7-9.4,10.3-9.4
		c3.5,0,6.1,1,8.2,2.4c0.5,0.4,0.6,0.8,0.3,1.4l-1.3,2.3c-0.3,0.6-0.8,0.7-1.3,0.3c-1.9-1.1-3.5-1.6-5.5-1.6c-3.1,0-4.8,1.8-4.8,4
		c0,2.6,2.8,3.9,5.7,5.4c5.4,2.7,8.4,5.1,8.4,10.1c0,5.8-3.9,9.8-11.2,9.8c-3.9,0-7.7-1.3-9.7-3c-0.5-0.4-0.5-0.9-0.2-1.4l1.4-2.6
		c0.3-0.6,0.8-0.6,1.3-0.3C249.6,189.8,252.1,190.7,254.3,190.7z"/>
	<path fill="#FFFFFF" d="M282.4,166.7v27.6c0,0.6-0.3,0.9-0.9,0.9h-4c-0.6,0-0.9-0.3-0.9-0.9v-27.6h-7.7c-0.6,0-0.9-0.3-0.9-0.9v-3
		c0-0.6,0.3-0.9,0.9-0.9h21.3c0.6,0,0.9,0.3,0.9,0.9v3c0,0.6-0.3,0.9-0.9,0.9H282.4z"/>
	<path fill="#FFFFFF" d="M296.2,195.2c-0.6,0-0.9-0.3-0.9-0.9v-31.5c0-0.6,0.3-0.9,0.9-0.9H314c0.6,0,0.9,0.3,0.9,0.9v3
		c0,0.6-0.3,0.9-0.9,0.9h-12.9v9.3H312c0.6,0,0.9,0.3,0.9,0.8v3c0,0.6-0.3,0.9-0.9,0.9h-10.9v9.7h13.1c0.6,0,0.9,0.3,0.9,0.9v3
		c0,0.6-0.3,0.9-0.9,0.9H296.2z"/>
	<path fill="#FFFFFF" d="M331.1,183.2c-0.6-1-0.9-1.1-2-1.1h-2.2v12.2c0,0.6-0.3,0.9-0.9,0.9h-4c-0.6,0-0.9-0.3-0.9-0.9v-31.5
		c0-0.6,0.3-0.9,0.9-0.9h7.6c4.8,0,8.3,1,10.4,3.2c1.5,1.5,2.2,3.7,2.2,6.5c0,4.4-2.1,7.6-6.1,9.5l7.7,12.9c0.5,0.7,0.3,1.2-0.5,1.2
		H339c-0.9,0-1.1,0-1.5-0.8L331.1,183.2z M326.8,166.7v10.8h3c4.3,0,6.4-2.1,6.4-5.8c0-1.7-0.5-2.8-1.2-3.6
		c-1.2-1.2-3.2-1.5-5.4-1.5H326.8z"/>
	<path fill="#FFFFFF" d="M349.6,195.2c-0.6,0-0.9-0.3-0.9-0.9v-31.5c0-0.6,0.3-0.9,0.9-0.9h7.6c6,0,10,1.2,12.7,4.1
		c2.5,2.6,4.2,6.8,4.2,12.4c0,5.6-1.5,10.2-4.8,13.3c-2.8,2.6-6.7,3.5-11.8,3.5H349.6z M354.5,166.7v23.8h2.8c2.9,0,5.7-0.6,7.6-2.3
		c2.1-1.9,3.1-5.4,3.1-9.6c0-3.9-0.8-6.9-2.3-8.7c-1.7-2.1-4.3-3.1-8.2-3.1H354.5z"/>
	<path fill="#FFFFFF" d="M396.1,187.1h-11.9l-2.3,7.2c-0.2,0.6-0.6,0.9-1.2,0.9h-3.9c-0.6,0-0.9-0.3-0.6-1l10.9-31.4
		c0.2-0.6,0.5-0.8,1.3-0.8h3.8c0.8,0,1.1,0.2,1.3,0.8l11.3,31.5c0.2,0.6-0.1,0.9-0.6,0.9h-4.2c-0.7,0-1-0.2-1.2-0.9L396.1,187.1z
		 M385.7,182.5h8.9l-0.5-1.5c-1.6-4.8-3-9.2-3.9-12.3c-0.9,3.1-2.5,7.8-4,12.3L385.7,182.5z"/>
	<path fill="#FFFFFF" d="M423.1,189.7c-1.1,0-1.4-0.2-1.7-0.9l-2.9-7c-1.3-3.2-3-7.6-3.9-10.3c0,3.2,0,8.7-0.2,13.4l-0.3,9.3
		c0,0.7-0.3,1-1,1h-3.4c-0.8,0-1.1-0.3-1.1-1.1l1.4-31.1c0-0.7,0.3-1,1.1-1h3.7c0.9,0,1.2,0.2,1.5,0.9l4.2,10.5
		c1.8,4.3,3,7.6,3.8,10c0.9-2.4,2.3-6.3,3.7-9.8l4.3-10.7c0.3-0.7,0.7-0.9,1.4-0.9h3.6c0.8,0,1.1,0.3,1.1,1l1.3,31.1
		c0,0.8-0.3,1.1-1.1,1.1h-3.5c-0.8,0-1.1-0.3-1.1-1l-0.3-12c-0.1-4.7-0.2-7.8-0.2-10.8c-0.9,2.8-2.4,7-3.8,10.5l-2.9,7
		c-0.3,0.7-0.6,0.9-1.7,0.9H423.1z"/>
</g>
<g opacity="0.87">
	<path fill="#FFFFFF" d="M236.4,234.5h-9.9l-1.9,5.9c-0.2,0.5-0.5,0.7-1,0.7h-3.2c-0.5,0-0.7-0.3-0.5-0.8l9-25.9
		c0.2-0.5,0.4-0.7,1.1-0.7h3.1c0.6,0,0.9,0.2,1.1,0.7l9.3,26c0.2,0.5-0.1,0.8-0.5,0.8h-3.5c-0.6,0-0.8-0.2-1-0.7L236.4,234.5z
		 M227.8,230.7h7.3l-0.4-1.3c-1.3-4-2.4-7.6-3.2-10.2c-0.8,2.6-2.1,6.5-3.3,10.1L227.8,230.7z"/>
	<path fill="#FFFFFF" d="M255.3,231.3c-0.5-0.8-0.8-0.9-1.7-0.9h-1.8v10.1c0,0.5-0.2,0.7-0.8,0.7h-3.3c-0.5,0-0.8-0.2-0.8-0.7v-26
		c0-0.5,0.2-0.7,0.8-0.7h6.2c4,0,6.9,0.8,8.6,2.6c1.2,1.3,1.8,3,1.8,5.4c0,3.7-1.8,6.3-5,7.8l6.4,10.6c0.4,0.6,0.2,1-0.4,1h-3.5
		c-0.7,0-0.9,0-1.3-0.6L255.3,231.3z M251.8,217.6v8.9h2.4c3.5,0,5.3-1.7,5.3-4.8c0-1.4-0.4-2.3-1-3c-1-1-2.6-1.2-4.5-1.2H251.8z"/>
	<path fill="#FFFFFF" d="M278.5,217.7v22.8c0,0.5-0.2,0.7-0.8,0.7h-3.3c-0.5,0-0.8-0.2-0.8-0.7v-22.8h-6.4c-0.5,0-0.8-0.2-0.8-0.7
		v-2.5c0-0.5,0.2-0.7,0.8-0.7h17.6c0.5,0,0.8,0.2,0.8,0.7v2.5c0,0.5-0.2,0.7-0.8,0.7H278.5z"/>
	<path fill="#FFFFFF" d="M290,241.2c-0.5,0-0.8-0.2-0.8-0.7v-26c0-0.5,0.2-0.7,0.8-0.7h3.3c0.5,0,0.8,0.2,0.8,0.7v26
		c0,0.5-0.2,0.7-0.8,0.7H290z"/>
	<path fill="#FFFFFF" d="M306.5,237.5c2.7,0,4.9-1.3,4.9-3.7c0-2.5-2.4-3.7-4.8-4.9c-3.2-1.6-6.9-3.4-6.9-7.8c0-5,3.9-7.8,8.5-7.8
		c2.9,0,5.1,0.8,6.8,1.9c0.4,0.3,0.5,0.6,0.2,1.2l-1.1,1.9c-0.2,0.5-0.6,0.6-1.1,0.3c-1.6-0.9-2.9-1.3-4.6-1.3c-2.6,0-4,1.4-4,3.3
		c0,2.2,2.3,3.2,4.7,4.5c4.5,2.2,7,4.2,7,8.3c0,4.8-3.2,8.1-9.2,8.1c-3.2,0-6.4-1.1-8-2.5c-0.4-0.3-0.4-0.7-0.2-1.2l1.1-2.1
		c0.3-0.5,0.7-0.5,1.1-0.2C302.6,236.7,304.7,237.5,306.5,237.5z"/>
	<path fill="#FFFFFF" d="M329,241.2c-0.5,0-0.8-0.2-0.8-0.7v-1.8c0-0.8,0.1-1.3,0.6-2.1l11.8-18.9h-11c-0.5,0-0.8-0.2-0.8-0.7v-2.5
		c0-0.5,0.2-0.7,0.8-0.7h15.9c0.5,0,0.8,0.2,0.8,0.7v1.8c0,0.8-0.2,1.3-0.6,2l-11.9,19H346c0.5,0,0.8,0.2,0.8,0.7v2.5
		c0,0.5-0.2,0.7-0.8,0.7H329z"/>
	<path fill="#FFFFFF" d="M360.7,241.5c-6.7,0-11.4-4.2-11.4-13.7c0-8.8,4.3-14.5,12.2-14.5c6.7,0,11.4,4.2,11.4,13.7
		C372.9,235.9,368.5,241.5,360.7,241.5z M361.4,217.4c-4.5,0-7.1,3.7-7.1,10.2c0,6.7,2.4,9.8,6.5,9.8c4.5,0,7.1-3.7,7.1-10.2
		C367.9,220.5,365.5,217.4,361.4,217.4z"/>
	<path fill="#FFFFFF" d="M387.3,241.5c-6.7,0-11.4-4.2-11.4-13.7c0-8.8,4.3-14.5,12.2-14.5c6.7,0,11.4,4.2,11.4,13.7
		C399.5,235.9,395.2,241.5,387.3,241.5z M388,217.4c-4.5,0-7.1,3.7-7.1,10.2c0,6.7,2.4,9.8,6.5,9.8c4.5,0,7.1-3.7,7.1-10.2
		C394.5,220.5,392.1,217.4,388,217.4z"/>
</g>
<g opacity="0.87">
	<path fill="#FFFFFF" d="M189.9,279.2c-0.3-0.1-0.4-0.4-0.3-0.8l0.5-1.7c0.1-0.4,0.3-0.4,0.8-0.3c1,0.4,2.2,0.7,3,0.7
		c2.4,0,2.9-1.6,2.9-3.9V262h-4.7c-0.4,0-0.6-0.2-0.6-0.6v-1.9c0-0.4,0.2-0.6,0.6-0.6h7.8c0.4,0,0.6,0.2,0.6,0.6v13.7
		c0,4.5-1.8,7.1-6.2,7.1C192.8,280.2,190.8,279.7,189.9,279.2z"/>
	<path fill="#FFFFFF" d="M220.7,271.6c0,5.7-2.5,8.6-8.1,8.6c-5.4,0-7.8-2.7-7.8-8v-12.7c0-0.4,0.2-0.6,0.6-0.6h2.5
		c0.4,0,0.6,0.2,0.6,0.6v12.6c0,3.4,1.3,5,4.3,5c2.9,0,4.3-1.8,4.3-5v-12.6c0-0.4,0.2-0.6,0.6-0.6h2.5c0.4,0,0.6,0.2,0.6,0.6V271.6z
		"/>
	<path fill="#FFFFFF" d="M231.7,270.5c-1.8-2.8-2.7-4.3-3.4-5.7c0.1,1.6,0.1,4.5,0.1,6.6v8c0,0.4-0.2,0.6-0.6,0.6h-2.3
		c-0.4,0-0.6-0.2-0.6-0.6v-19.9c0-0.4,0.2-0.6,0.6-0.6h2c0.6,0,0.8,0.1,1,0.5l5.7,8.9c1.7,2.8,2.6,4,3.4,5.7
		c-0.1-1.7-0.1-4.5-0.1-6.6v-8c0-0.4,0.2-0.6,0.6-0.6h2.3c0.4,0,0.6,0.2,0.6,0.6v19.9c0,0.4-0.2,0.6-0.6,0.6h-2
		c-0.6,0-0.8-0.1-1-0.5L231.7,270.5z"/>
	<path fill="#FFFFFF" d="M246,279.9c-0.4,0-0.6-0.2-0.6-0.6v-19.9c0-0.4,0.2-0.6,0.6-0.6h11.2c0.4,0,0.6,0.2,0.6,0.6v1.9
		c0,0.4-0.2,0.6-0.6,0.6h-8.1v5.9h6.9c0.4,0,0.6,0.2,0.6,0.5v1.9c0,0.4-0.2,0.6-0.6,0.6h-6.9v6.1h8.2c0.4,0,0.6,0.2,0.6,0.6v1.9
		c0,0.4-0.2,0.6-0.6,0.6H246z"/>
	<path fill="#FFFFFF" d="M280.5,276.9c0.3,0,0.4,0.1,0.4,0.4v2.2c0,0.3-0.1,0.4-0.4,0.4h-11.9c-0.4,0-0.5-0.1-0.5-0.5v-1.4
		c0-6.7,8.9-9.4,8.9-13.7c0-1.8-1.3-2.8-3.1-2.8c-1.5,0-3,0.6-4.2,1.4c-0.3,0.2-0.5,0.1-0.7-0.1l-0.9-1.5c-0.2-0.4-0.1-0.5,0.3-0.8
		c1.5-1.1,3.7-1.9,5.7-1.9c2.3,0,4,0.6,5.1,1.7c0.9,1,1.4,2.3,1.4,3.9c0,5.2-8.5,8.7-8.9,12.6H280.5z"/>
	<path fill="#FFFFFF" d="M284.6,269.9c0-7.3,2.8-11.2,7.6-11.2c4.4,0,7.1,3.4,7.1,10.4c0,7.2-2.8,11.2-7.6,11.2
		C287.3,280.2,284.6,276.8,284.6,269.9z M295.6,269.2c0-5.1-1.2-7.6-3.6-7.6c-2.5,0-3.8,2.9-3.8,8c0,5.1,1.2,7.6,3.6,7.6
		C294.4,277.3,295.6,274.3,295.6,269.2z"/>
	<path fill="#FFFFFF" d="M304.2,279.7c-0.1,0.3-0.2,0.4-0.6,0.4h-2.5c-0.3,0-0.4-0.1-0.3-0.5l6.2-20.5c0.1-0.3,0.2-0.4,0.6-0.4h2.5
		c0.3,0,0.4,0.1,0.4,0.5L304.2,279.7z"/>
	<path fill="#FFFFFF" d="M324.7,276.9c0.3,0,0.4,0.1,0.4,0.4v2.2c0,0.3-0.1,0.4-0.4,0.4h-11.9c-0.4,0-0.5-0.1-0.5-0.5v-1.4
		c0-6.7,8.9-9.4,8.9-13.7c0-1.8-1.3-2.8-3.1-2.8c-1.5,0-3,0.6-4.2,1.4c-0.3,0.2-0.5,0.1-0.7-0.1l-0.9-1.5c-0.2-0.4-0.1-0.5,0.3-0.8
		c1.5-1.1,3.7-1.9,5.7-1.9c2.3,0,4,0.6,5.1,1.7c0.9,1,1.4,2.3,1.4,3.9c0,5.2-8.5,8.7-8.9,12.6H324.7z"/>
	<path fill="#FFFFFF" d="M338.2,259c0.3,0,0.4,0.1,0.4,0.4v17.7h3.7c0.3,0,0.4,0.1,0.4,0.4v2c0,0.3-0.1,0.4-0.4,0.4H331
		c-0.3,0-0.4-0.1-0.4-0.4v-2c0-0.3,0.1-0.4,0.4-0.4h4.1v-14.4l-3.7,2c-0.3,0.2-0.6,0.1-0.7-0.2l-0.8-1.6c-0.2-0.4-0.1-0.6,0.3-0.8
		l5.1-2.7c0.7-0.3,1-0.5,1.9-0.5H338.2z"/>
	<path fill="#FFFFFF" d="M372.7,276.9c0.3,0,0.4,0.1,0.4,0.4v2.2c0,0.3-0.1,0.4-0.4,0.4h-11.9c-0.4,0-0.5-0.1-0.5-0.5v-1.4
		c0-6.7,8.9-9.4,8.9-13.7c0-1.8-1.3-2.8-3.1-2.8c-1.5,0-3,0.6-4.2,1.4c-0.3,0.2-0.5,0.1-0.7-0.1l-0.9-1.5c-0.2-0.4-0.1-0.5,0.3-0.8
		c1.5-1.1,3.7-1.9,5.7-1.9c2.3,0,4,0.6,5.1,1.7c0.9,1,1.4,2.3,1.4,3.9c0,5.2-8.5,8.7-8.9,12.6H372.7z"/>
	<path fill="#FFFFFF" d="M376.8,269.9c0-7.3,2.8-11.2,7.6-11.2c4.4,0,7.1,3.4,7.1,10.4c0,7.2-2.8,11.2-7.6,11.2
		C379.5,280.2,376.8,276.8,376.8,269.9z M387.9,269.2c0-5.1-1.2-7.6-3.6-7.6c-2.5,0-3.8,2.9-3.8,8c0,5.1,1.2,7.6,3.6,7.6
		C386.6,277.3,387.9,274.3,387.9,269.2z"/>
	<path fill="#FFFFFF" d="M403.1,259c0.3,0,0.4,0.1,0.4,0.4v17.7h3.7c0.3,0,0.4,0.1,0.4,0.4v2c0,0.3-0.1,0.4-0.4,0.4h-11.4
		c-0.3,0-0.4-0.1-0.4-0.4v-2c0-0.3,0.1-0.4,0.4-0.4h4.1v-14.4l-3.7,2c-0.3,0.2-0.6,0.1-0.7-0.2l-0.8-1.6c-0.2-0.4-0.1-0.6,0.3-0.8
		l5.1-2.7c0.7-0.3,1-0.5,1.9-0.5H403.1z"/>
	<path fill="#FFFFFF" d="M411.4,271c0-6.9,2.8-12.4,8.4-12.4c1.6,0,2.9,0.5,4,1.1c0.3,0.2,0.4,0.3,0.1,0.8l-0.7,1.4
		c-0.1,0.3-0.3,0.3-0.7,0.2c-0.9-0.4-1.8-0.6-2.7-0.6c-3.1,0-4.3,2.7-4.7,6c1.1-0.7,2.7-1.2,4.1-1.2c3.8,0,6,2.8,6,6.6
		c0,4-2.6,7.3-6.9,7.3C413.3,280.2,411.4,276.3,411.4,271z M421.7,273.2c0-2.2-1-3.9-3.2-3.9c-1.1,0-2.5,0.4-3.4,0.9v0.8
		c0,3.6,0.9,6.3,3.5,6.3C420.5,277.3,421.7,275.4,421.7,273.2z"/>
</g>
<g>
	<g>
		<polygon fill="#61A5D9" points="116.3,66.5 116.3,58.7 113.2,58.7 113.2,51.9 110.1,51.9 110.1,45.3 106.8,45.3 106.8,38.1 
			104.4,38.1 104.4,32.8 94.8,32.8 94.8,38.1 92.4,38.1 92.4,45.3 89.1,45.3 89.1,51.9 86,51.9 86,58.7 83,58.7 83,66.5 81.4,66.5 
			81.4,143.4 117.8,143.4 117.8,66.5 		"/>
		<g>
			<rect x="95.5" y="55.6" fill="#FFFFFF" width="4" height="4"/>
			<rect x="95.5" y="51.3" fill="#FFFFFF" width="4" height="4"/>
			<rect x="99.8" y="55.6" fill="#FFFFFF" width="4" height="4"/>
			<rect x="99.8" y="51.3" fill="#FFFFFF" width="4" height="4"/>
		</g>
		<g>
			<g>
				<g>
					<g>
						<rect x="86.7" y="75.4" fill="#FFFFFF" width="4" height="4"/>
						<rect x="86.7" y="71.1" fill="#FFFFFF" width="4" height="4"/>
						<rect x="91" y="75.4" fill="#FFFFFF" width="4" height="4"/>
						<rect x="91" y="71.1" fill="#FFFFFF" width="4" height="4"/>
					</g>
					<g>
						<rect x="86.7" y="84.1" fill="#FFFFFF" width="4" height="4"/>
						<rect x="86.7" y="79.8" fill="#FFFFFF" width="4" height="4"/>
						<rect x="91" y="84.1" fill="#FFFFFF" width="4" height="4"/>
						<rect x="91" y="79.8" fill="#FFFFFF" width="4" height="4"/>
					</g>
				</g>
				<g>
					<g>
						<rect x="104.2" y="75.4" fill="#FFFFFF" width="4" height="4"/>
						<rect x="104.2" y="71.1" fill="#FFFFFF" width="4" height="4"/>
						<rect x="108.6" y="75.4" fill="#FFFFFF" width="4" height="4"/>
						<rect x="108.6" y="71.1" fill="#FFFFFF" width="4" height="4"/>
					</g>
					<g>
						<rect x="104.2" y="84.1" fill="#FFFFFF" width="4" height="4"/>
						<rect x="104.2" y="79.8" fill="#FFFFFF" width="4" height="4"/>
						<rect x="108.6" y="84.1" fill="#FFFFFF" width="4" height="4"/>
						<rect x="108.6" y="79.8" fill="#FFFFFF" width="4" height="4"/>
					</g>
				</g>
			</g>
			<g>
				<g>
					<rect x="86.7" y="100.7" fill="#FFFFFF" width="4" height="4"/>
					<rect x="86.7" y="96.4" fill="#FFFFFF" width="4" height="4"/>
					<rect x="91" y="100.7" fill="#FFFFFF" width="4" height="4"/>
					<rect x="91" y="96.4" fill="#FFFFFF" width="4" height="4"/>
				</g>
				<g>
					<rect x="86.7" y="109.4" fill="#FFFFFF" width="4" height="4"/>
					<rect x="86.7" y="105.1" fill="#FFFFFF" width="4" height="4"/>
					<rect x="91" y="109.4" fill="#FFFFFF" width="4" height="4"/>
					<rect x="91" y="105.1" fill="#FFFFFF" width="4" height="4"/>
				</g>
			</g>
			<g>
				<g>
					<rect x="104.2" y="100.7" fill="#FFFFFF" width="4" height="4"/>
					<rect x="104.2" y="96.4" fill="#FFFFFF" width="4" height="4"/>
					<rect x="108.6" y="100.7" fill="#FFFFFF" width="4" height="4"/>
					<rect x="108.6" y="96.4" fill="#FFFFFF" width="4" height="4"/>
				</g>
				<g>
					<rect x="104.2" y="109.4" fill="#FFFFFF" width="4" height="4"/>
					<rect x="104.2" y="105.1" fill="#FFFFFF" width="4" height="4"/>
					<rect x="108.6" y="109.4" fill="#FFFFFF" width="4" height="4"/>
					<rect x="108.6" y="105.1" fill="#FFFFFF" width="4" height="4"/>
				</g>
			</g>
		</g>
		<rect x="95.5" y="129.1" fill="#FFFFFF" width="8.3" height="14.2"/>
	</g>
	<g>
		<polygon fill="#61A5D9" points="209.5,66.5 209.5,58.7 206.4,58.7 206.4,51.9 203.3,51.9 203.3,45.3 200,45.3 200,38.1 
			197.6,38.1 197.6,32.8 188,32.8 188,38.1 185.6,38.1 185.6,45.3 182.3,45.3 182.3,51.9 179.2,51.9 179.2,58.7 176.1,58.7 
			176.1,66.5 174.6,66.5 174.6,143.4 211,143.4 211,66.5 		"/>
		<g>
			<rect x="188.7" y="55.6" fill="#FFFFFF" width="4" height="4"/>
			<rect x="188.7" y="51.3" fill="#FFFFFF" width="4" height="4"/>
			<rect x="193" y="55.6" fill="#FFFFFF" width="4" height="4"/>
			<rect x="193" y="51.3" fill="#FFFFFF" width="4" height="4"/>
		</g>
		<g>
			<g>
				<g>
					<g>
						<rect x="179.9" y="75.4" fill="#FFFFFF" width="4" height="4"/>
						<rect x="179.9" y="71.1" fill="#FFFFFF" width="4" height="4"/>
						<rect x="184.2" y="75.4" fill="#FFFFFF" width="4" height="4"/>
						<rect x="184.2" y="71.1" fill="#FFFFFF" width="4" height="4"/>
					</g>
					<g>
						<rect x="179.9" y="84.1" fill="#FFFFFF" width="4" height="4"/>
						<rect x="179.9" y="79.8" fill="#FFFFFF" width="4" height="4"/>
						<rect x="184.2" y="84.1" fill="#FFFFFF" width="4" height="4"/>
						<rect x="184.2" y="79.8" fill="#FFFFFF" width="4" height="4"/>
					</g>
				</g>
				<g>
					<g>
						<rect x="197.4" y="75.4" fill="#FFFFFF" width="4" height="4"/>
						<rect x="197.4" y="71.1" fill="#FFFFFF" width="4" height="4"/>
						<rect x="201.8" y="75.4" fill="#FFFFFF" width="4" height="4"/>
						<rect x="201.8" y="71.1" fill="#FFFFFF" width="4" height="4"/>
					</g>
					<g>
						<rect x="197.4" y="84.1" fill="#FFFFFF" width="4" height="4"/>
						<rect x="197.4" y="79.8" fill="#FFFFFF" width="4" height="4"/>
						<rect x="201.8" y="84.1" fill="#FFFFFF" width="4" height="4"/>
						<rect x="201.8" y="79.8" fill="#FFFFFF" width="4" height="4"/>
					</g>
				</g>
			</g>
			<g>
				<g>
					<rect x="179.9" y="100.7" fill="#FFFFFF" width="4" height="4"/>
					<rect x="179.9" y="96.4" fill="#FFFFFF" width="4" height="4"/>
					<rect x="184.2" y="100.7" fill="#FFFFFF" width="4" height="4"/>
					<rect x="184.2" y="96.4" fill="#FFFFFF" width="4" height="4"/>
				</g>
				<g>
					<rect x="179.9" y="109.4" fill="#FFFFFF" width="4" height="4"/>
					<rect x="179.9" y="105.1" fill="#FFFFFF" width="4" height="4"/>
					<rect x="184.2" y="109.4" fill="#FFFFFF" width="4" height="4"/>
					<rect x="184.2" y="105.1" fill="#FFFFFF" width="4" height="4"/>
				</g>
			</g>
			<g>
				<g>
					<rect x="197.4" y="100.7" fill="#FFFFFF" width="4" height="4"/>
					<rect x="197.4" y="96.4" fill="#FFFFFF" width="4" height="4"/>
					<rect x="201.8" y="100.7" fill="#FFFFFF" width="4" height="4"/>
					<rect x="201.8" y="96.4" fill="#FFFFFF" width="4" height="4"/>
				</g>
				<g>
					<rect x="197.4" y="109.4" fill="#FFFFFF" width="4" height="4"/>
					<rect x="197.4" y="105.1" fill="#FFFFFF" width="4" height="4"/>
					<rect x="201.8" y="109.4" fill="#FFFFFF" width="4" height="4"/>
					<rect x="201.8" y="105.1" fill="#FFFFFF" width="4" height="4"/>
				</g>
			</g>
		</g>
		<rect x="188.7" y="129.1" fill="#FFFFFF" width="8.3" height="14.2"/>
	</g>
	<path fill="#61A5D9" d="M175.2,114.4h-3.3v-0.8c0-0.2-0.2-0.4-0.4-0.4h-0.1c-0.2,0-0.4,0.2-0.4,0.4v0.8h-2.6v-0.8
		c0-0.2-0.2-0.4-0.4-0.4h-0.1c-0.2,0-0.4,0.2-0.4,0.4v0.8h-2.6v-0.8c0-0.2-0.2-0.4-0.4-0.4h-0.1c-0.2,0-0.4,0.2-0.4,0.4v0.8h-2.6
		v-0.8c0-0.2-0.2-0.4-0.4-0.4h-0.1c-0.2,0-0.4,0.2-0.4,0.4v0.8h-2.6v-0.8c0-0.2-0.2-0.4-0.4-0.4h-0.1c-0.2,0-0.4,0.2-0.4,0.4v0.8
		h-2.6v-0.8c0-0.2-0.2-0.4-0.4-0.4h-0.1c-0.2,0-0.4,0.2-0.4,0.4v0.8h-2.6v-0.8c0-0.2-0.2-0.4-0.4-0.4H150c-0.2,0-0.4,0.2-0.4,0.4
		v0.8H147v-0.8c0-0.2-0.2-0.4-0.4-0.4h-0.1c-0.2,0-0.4,0.2-0.4,0.4v0.8h-2.6v-0.8c0-0.2-0.2-0.4-0.4-0.4h-0.1
		c-0.2,0-0.4,0.2-0.4,0.4v0.8h-2.6v-0.8c0-0.2-0.2-0.4-0.4-0.4h-0.1c-0.2,0-0.4,0.2-0.4,0.4v0.8h-2.6v-0.8c0-0.2-0.2-0.4-0.4-0.4
		h-0.1c-0.2,0-0.4,0.2-0.4,0.4v0.8h-2.6v-0.8c0-0.2-0.2-0.4-0.4-0.4h-0.1c-0.2,0-0.4,0.2-0.4,0.4v0.8h-2.6v-0.8
		c0-0.2-0.2-0.4-0.4-0.4h-0.1c-0.2,0-0.4,0.2-0.4,0.4v0.8h-2.6v-0.8c0-0.2-0.2-0.4-0.4-0.4h-0.1c-0.2,0-0.4,0.2-0.4,0.4v0.8h-2.6
		v-0.8c0-0.2-0.2-0.4-0.4-0.4h-0.1c-0.2,0-0.4,0.2-0.4,0.4v0.8H117c-0.1,0-0.2,0.1-0.2,0.2c0,0.1,0.1,0.2,0.2,0.2h4.1v3.9h-3.3v24.6
		h0c0.6-10.5,13.1-19,28.4-19s27.7,8.4,28.4,19h0v-24.6h-2.7v-3.9h3.3c0.1,0,0.2-0.1,0.2-0.2C175.5,114.5,175.4,114.4,175.2,114.4z
		 M167.4,114.9v3.9h-2.6v-3.9H167.4z M163.8,114.9v3.9h-2.6v-3.9H163.8z M160.3,114.9v3.9h-2.6v-3.9H160.3z M156.7,114.9v3.9h-2.6
		v-3.9H156.7z M153.2,114.9v3.9h-2.6v-3.9H153.2z M149.6,114.9v3.9H147v-3.9H149.6z M146,114.9v3.9h-2.6v-3.9H146z M142.5,114.9v3.9
		h-2.6v-3.9H142.5z M138.9,114.9v3.9h-2.6v-3.9H138.9z M135.4,114.9v3.9h-2.6v-3.9H135.4z M131.8,114.9v3.9h-2.6v-3.9H131.8z
		 M128.2,114.9v3.9h-2.6v-3.9H128.2z M122.1,118.8v-3.9h2.6v3.9H122.1z M171,118.8h-2.6v-3.9h2.6V118.8z"/>
	<g>
		<polygon fill="#61A5D9" points="248.1,66.5 248.1,58.7 245,58.7 245,51.9 241.9,51.9 241.9,45.3 238.6,45.3 238.6,38.1 
			236.2,38.1 236.2,32.8 226.6,32.8 226.6,38.1 224.2,38.1 224.2,45.3 220.9,45.3 220.9,51.9 217.8,51.9 217.8,58.7 214.7,58.7 
			214.7,66.5 213.2,66.5 213.2,143.4 249.6,143.4 249.6,66.5 		"/>
		<g>
			<rect x="227.2" y="55.6" fill="#FFFFFF" width="4" height="4"/>
			<rect x="227.2" y="51.3" fill="#FFFFFF" width="4" height="4"/>
			<rect x="231.6" y="55.6" fill="#FFFFFF" width="4" height="4"/>
			<rect x="231.6" y="51.3" fill="#FFFFFF" width="4" height="4"/>
		</g>
		<g>
			<g>
				<g>
					<g>
						<rect x="218.5" y="75.4" fill="#FFFFFF" width="4" height="4"/>
						<rect x="218.5" y="71.1" fill="#FFFFFF" width="4" height="4"/>
						<rect x="222.8" y="75.4" fill="#FFFFFF" width="4" height="4"/>
						<rect x="222.8" y="71.1" fill="#FFFFFF" width="4" height="4"/>
					</g>
					<g>
						<rect x="218.5" y="84.1" fill="#FFFFFF" width="4" height="4"/>
						<rect x="218.5" y="79.8" fill="#FFFFFF" width="4" height="4"/>
						<rect x="222.8" y="84.1" fill="#FFFFFF" width="4" height="4"/>
						<rect x="222.8" y="79.8" fill="#FFFFFF" width="4" height="4"/>
					</g>
				</g>
				<g>
					<g>
						<rect x="236" y="75.4" fill="#FFFFFF" width="4" height="4"/>
						<rect x="236" y="71.1" fill="#FFFFFF" width="4" height="4"/>
						<rect x="240.4" y="75.4" fill="#FFFFFF" width="4" height="4"/>
						<rect x="240.4" y="71.1" fill="#FFFFFF" width="4" height="4"/>
					</g>
					<g>
						<rect x="236" y="84.1" fill="#FFFFFF" width="4" height="4"/>
						<rect x="236" y="79.8" fill="#FFFFFF" width="4" height="4"/>
						<rect x="240.4" y="84.1" fill="#FFFFFF" width="4" height="4"/>
						<rect x="240.4" y="79.8" fill="#FFFFFF" width="4" height="4"/>
					</g>
				</g>
			</g>
			<g>
				<g>
					<rect x="218.5" y="100.7" fill="#FFFFFF" width="4" height="4"/>
					<rect x="218.5" y="96.4" fill="#FFFFFF" width="4" height="4"/>
					<rect x="222.8" y="100.7" fill="#FFFFFF" width="4" height="4"/>
					<rect x="222.8" y="96.4" fill="#FFFFFF" width="4" height="4"/>
				</g>
				<g>
					<rect x="218.5" y="109.4" fill="#FFFFFF" width="4" height="4"/>
					<rect x="218.5" y="105.1" fill="#FFFFFF" width="4" height="4"/>
					<rect x="222.8" y="109.4" fill="#FFFFFF" width="4" height="4"/>
					<rect x="222.8" y="105.1" fill="#FFFFFF" width="4" height="4"/>
				</g>
			</g>
			<g>
				<g>
					<rect x="236" y="100.7" fill="#FFFFFF" width="4" height="4"/>
					<rect x="236" y="96.4" fill="#FFFFFF" width="4" height="4"/>
					<rect x="240.4" y="100.7" fill="#FFFFFF" width="4" height="4"/>
					<rect x="240.4" y="96.4" fill="#FFFFFF" width="4" height="4"/>
				</g>
				<g>
					<rect x="236" y="109.4" fill="#FFFFFF" width="4" height="4"/>
					<rect x="236" y="105.1" fill="#FFFFFF" width="4" height="4"/>
					<rect x="240.4" y="109.4" fill="#FFFFFF" width="4" height="4"/>
					<rect x="240.4" y="105.1" fill="#FFFFFF" width="4" height="4"/>
				</g>
			</g>
		</g>
		<rect x="227.2" y="129.1" fill="#FFFFFF" width="8.3" height="14.2"/>
	</g>
</g>
<g>
	<g>
		<polygon fill="#61A5D9" points="507.5,66.5 507.5,58.7 510.6,58.7 510.6,51.9 513.7,51.9 513.7,45.3 517,45.3 517,38.1 
			519.4,38.1 519.4,32.8 529,32.8 529,38.1 531.4,38.1 531.4,45.3 534.7,45.3 534.7,51.9 537.8,51.9 537.8,58.7 540.9,58.7 
			540.9,66.5 542.4,66.5 542.4,143.4 506,143.4 506,66.5 		"/>
		<g>
			<rect x="524.4" y="55.6" fill="#FFFFFF" width="4" height="4"/>
			<rect x="524.4" y="51.3" fill="#FFFFFF" width="4" height="4"/>
			<rect x="520" y="55.6" fill="#FFFFFF" width="4" height="4"/>
			<rect x="520" y="51.3" fill="#FFFFFF" width="4" height="4"/>
		</g>
		<g>
			<g>
				<g>
					<g>
						<rect x="533.2" y="75.4" fill="#FFFFFF" width="4" height="4"/>
						<rect x="533.2" y="71.1" fill="#FFFFFF" width="4" height="4"/>
						<rect x="528.8" y="75.4" fill="#FFFFFF" width="4" height="4"/>
						<rect x="528.8" y="71.1" fill="#FFFFFF" width="4" height="4"/>
					</g>
					<g>
						<rect x="533.2" y="84.1" fill="#FFFFFF" width="4" height="4"/>
						<rect x="533.2" y="79.8" fill="#FFFFFF" width="4" height="4"/>
						<rect x="528.8" y="84.1" fill="#FFFFFF" width="4" height="4"/>
						<rect x="528.8" y="79.8" fill="#FFFFFF" width="4" height="4"/>
					</g>
				</g>
				<g>
					<g>
						<rect x="515.6" y="75.4" fill="#FFFFFF" width="4" height="4"/>
						<rect x="515.6" y="71.1" fill="#FFFFFF" width="4" height="4"/>
						<rect x="511.3" y="75.4" fill="#FFFFFF" width="4" height="4"/>
						<rect x="511.3" y="71.1" fill="#FFFFFF" width="4" height="4"/>
					</g>
					<g>
						<rect x="515.6" y="84.1" fill="#FFFFFF" width="4" height="4"/>
						<rect x="515.6" y="79.8" fill="#FFFFFF" width="4" height="4"/>
						<rect x="511.3" y="84.1" fill="#FFFFFF" width="4" height="4"/>
						<rect x="511.3" y="79.8" fill="#FFFFFF" width="4" height="4"/>
					</g>
				</g>
			</g>
			<g>
				<g>
					<rect x="533.2" y="100.7" fill="#FFFFFF" width="4" height="4"/>
					<rect x="533.2" y="96.4" fill="#FFFFFF" width="4" height="4"/>
					<rect x="528.8" y="100.7" fill="#FFFFFF" width="4" height="4"/>
					<rect x="528.8" y="96.4" fill="#FFFFFF" width="4" height="4"/>
				</g>
				<g>
					<rect x="533.2" y="109.4" fill="#FFFFFF" width="4" height="4"/>
					<rect x="533.2" y="105.1" fill="#FFFFFF" width="4" height="4"/>
					<rect x="528.8" y="109.4" fill="#FFFFFF" width="4" height="4"/>
					<rect x="528.8" y="105.1" fill="#FFFFFF" width="4" height="4"/>
				</g>
			</g>
			<g>
				<g>
					<rect x="515.6" y="100.7" fill="#FFFFFF" width="4" height="4"/>
					<rect x="515.6" y="96.4" fill="#FFFFFF" width="4" height="4"/>
					<rect x="511.3" y="100.7" fill="#FFFFFF" width="4" height="4"/>
					<rect x="511.3" y="96.4" fill="#FFFFFF" width="4" height="4"/>
				</g>
				<g>
					<rect x="515.6" y="109.4" fill="#FFFFFF" width="4" height="4"/>
					<rect x="515.6" y="105.1" fill="#FFFFFF" width="4" height="4"/>
					<rect x="511.3" y="109.4" fill="#FFFFFF" width="4" height="4"/>
					<rect x="511.3" y="105.1" fill="#FFFFFF" width="4" height="4"/>
				</g>
			</g>
		</g>
		<rect x="520" y="129.1" fill="#FFFFFF" width="8.3" height="14.2"/>
	</g>
	<g>
		<polygon fill="#61A5D9" points="414.4,66.5 414.4,58.7 417.4,58.7 417.4,51.9 420.5,51.9 420.5,45.3 423.8,45.3 423.8,38.1 
			426.2,38.1 426.2,32.8 435.8,32.8 435.8,38.1 438.2,38.1 438.2,45.3 441.5,45.3 441.5,51.9 444.6,51.9 444.6,58.7 447.7,58.7 
			447.7,66.5 449.2,66.5 449.2,143.4 412.8,143.4 412.8,66.5 		"/>
		<g>
			<rect x="431.2" y="55.6" fill="#FFFFFF" width="4" height="4"/>
			<rect x="431.2" y="51.3" fill="#FFFFFF" width="4" height="4"/>
			<rect x="426.9" y="55.6" fill="#FFFFFF" width="4" height="4"/>
			<rect x="426.9" y="51.3" fill="#FFFFFF" width="4" height="4"/>
		</g>
		<g>
			<g>
				<g>
					<g>
						<rect x="440" y="75.4" fill="#FFFFFF" width="4" height="4"/>
						<rect x="440" y="71.1" fill="#FFFFFF" width="4" height="4"/>
						<rect x="435.6" y="75.4" fill="#FFFFFF" width="4" height="4"/>
						<rect x="435.6" y="71.1" fill="#FFFFFF" width="4" height="4"/>
					</g>
					<g>
						<rect x="440" y="84.1" fill="#FFFFFF" width="4" height="4"/>
						<rect x="440" y="79.8" fill="#FFFFFF" width="4" height="4"/>
						<rect x="435.6" y="84.1" fill="#FFFFFF" width="4" height="4"/>
						<rect x="435.6" y="79.8" fill="#FFFFFF" width="4" height="4"/>
					</g>
				</g>
				<g>
					<g>
						<rect x="422.4" y="75.4" fill="#FFFFFF" width="4" height="4"/>
						<rect x="422.4" y="71.1" fill="#FFFFFF" width="4" height="4"/>
						<rect x="418.1" y="75.4" fill="#FFFFFF" width="4" height="4"/>
						<rect x="418.1" y="71.1" fill="#FFFFFF" width="4" height="4"/>
					</g>
					<g>
						<rect x="422.4" y="84.1" fill="#FFFFFF" width="4" height="4"/>
						<rect x="422.4" y="79.8" fill="#FFFFFF" width="4" height="4"/>
						<rect x="418.1" y="84.1" fill="#FFFFFF" width="4" height="4"/>
						<rect x="418.1" y="79.8" fill="#FFFFFF" width="4" height="4"/>
					</g>
				</g>
			</g>
			<g>
				<g>
					<rect x="440" y="100.7" fill="#FFFFFF" width="4" height="4"/>
					<rect x="440" y="96.4" fill="#FFFFFF" width="4" height="4"/>
					<rect x="435.6" y="100.7" fill="#FFFFFF" width="4" height="4"/>
					<rect x="435.6" y="96.4" fill="#FFFFFF" width="4" height="4"/>
				</g>
				<g>
					<rect x="440" y="109.4" fill="#FFFFFF" width="4" height="4"/>
					<rect x="440" y="105.1" fill="#FFFFFF" width="4" height="4"/>
					<rect x="435.6" y="109.4" fill="#FFFFFF" width="4" height="4"/>
					<rect x="435.6" y="105.1" fill="#FFFFFF" width="4" height="4"/>
				</g>
			</g>
			<g>
				<g>
					<rect x="422.4" y="100.7" fill="#FFFFFF" width="4" height="4"/>
					<rect x="422.4" y="96.4" fill="#FFFFFF" width="4" height="4"/>
					<rect x="418.1" y="100.7" fill="#FFFFFF" width="4" height="4"/>
					<rect x="418.1" y="96.4" fill="#FFFFFF" width="4" height="4"/>
				</g>
				<g>
					<rect x="422.4" y="109.4" fill="#FFFFFF" width="4" height="4"/>
					<rect x="422.4" y="105.1" fill="#FFFFFF" width="4" height="4"/>
					<rect x="418.1" y="109.4" fill="#FFFFFF" width="4" height="4"/>
					<rect x="418.1" y="105.1" fill="#FFFFFF" width="4" height="4"/>
				</g>
			</g>
		</g>
		<rect x="426.9" y="129.1" fill="#FFFFFF" width="8.3" height="14.2"/>
	</g>
	<path fill="#61A5D9" d="M448.4,114.7c0,0.1,0.1,0.2,0.2,0.2h3.3v3.9h-2.7v24.6h0c0.6-10.5,13.1-19,28.4-19s27.7,8.4,28.4,19h0
		v-24.6h-3.3v-3.9h4.1c0.1,0,0.2-0.1,0.2-0.2c0-0.1-0.1-0.2-0.2-0.2h-4.1v-0.8c0-0.2-0.2-0.4-0.4-0.4h-0.1c-0.2,0-0.4,0.2-0.4,0.4
		v0.8h-2.6v-0.8c0-0.2-0.2-0.4-0.4-0.4h-0.1c-0.2,0-0.4,0.2-0.4,0.4v0.8h-2.6v-0.8c0-0.2-0.2-0.4-0.4-0.4h-0.1
		c-0.2,0-0.4,0.2-0.4,0.4v0.8H492v-0.8c0-0.2-0.2-0.4-0.4-0.4h-0.1c-0.2,0-0.4,0.2-0.4,0.4v0.8h-2.6v-0.8c0-0.2-0.2-0.4-0.4-0.4
		h-0.1c-0.2,0-0.4,0.2-0.4,0.4v0.8h-2.6v-0.8c0-0.2-0.2-0.4-0.4-0.4h-0.1c-0.2,0-0.4,0.2-0.4,0.4v0.8h-2.6v-0.8
		c0-0.2-0.2-0.4-0.4-0.4h-0.1c-0.2,0-0.4,0.2-0.4,0.4v0.8h-2.6v-0.8c0-0.2-0.2-0.4-0.4-0.4h-0.1c-0.2,0-0.4,0.2-0.4,0.4v0.8h-2.6
		v-0.8c0-0.2-0.2-0.4-0.4-0.4h-0.1c-0.2,0-0.4,0.2-0.4,0.4v0.8h-2.6v-0.8c0-0.2-0.2-0.4-0.4-0.4h-0.1c-0.2,0-0.4,0.2-0.4,0.4v0.8
		h-2.6v-0.8c0-0.2-0.2-0.4-0.4-0.4h-0.1c-0.2,0-0.4,0.2-0.4,0.4v0.8h-2.6v-0.8c0-0.2-0.2-0.4-0.4-0.4H463c-0.2,0-0.4,0.2-0.4,0.4
		v0.8H460v-0.8c0-0.2-0.2-0.4-0.4-0.4h-0.1c-0.2,0-0.4,0.2-0.4,0.4v0.8h-2.6v-0.8c0-0.2-0.2-0.4-0.4-0.4h-0.1
		c-0.2,0-0.4,0.2-0.4,0.4v0.8h-2.6v-0.8c0-0.2-0.2-0.4-0.4-0.4h-0.1c-0.2,0-0.4,0.2-0.4,0.4v0.8h-3.3
		C448.5,114.4,448.4,114.5,448.4,114.7z M459,114.9v3.9h-2.6v-3.9H459z M462.6,114.9v3.9H460v-3.9H462.6z M466.2,114.9v3.9h-2.6
		v-3.9H466.2z M469.7,114.9v3.9h-2.6v-3.9H469.7z M473.3,114.9v3.9h-2.6v-3.9H473.3z M476.8,114.9v3.9h-2.6v-3.9H476.8z
		 M480.4,114.9v3.9h-2.6v-3.9H480.4z M484,114.9v3.9h-2.6v-3.9H484z M487.5,114.9v3.9h-2.6v-3.9H487.5z M491.1,114.9v3.9h-2.6v-3.9
		H491.1z M494.6,114.9v3.9H492v-3.9H494.6z M498.2,114.9v3.9h-2.6v-3.9H498.2z M499.1,118.8v-3.9h2.6v3.9H499.1z M452.9,114.9h2.6
		v3.9h-2.6V114.9z"/>
	<g>
		<polygon fill="#61A5D9" points="375.8,66.5 375.8,58.7 378.8,58.7 378.8,51.9 381.9,51.9 381.9,45.3 385.2,45.3 385.2,38.1 
			387.6,38.1 387.6,32.8 397.2,32.8 397.2,38.1 399.6,38.1 399.6,45.3 402.9,45.3 402.9,51.9 406,51.9 406,58.7 409.1,58.7 
			409.1,66.5 410.6,66.5 410.6,143.4 374.2,143.4 374.2,66.5 		"/>
		<g>
			<rect x="392.6" y="55.6" fill="#FFFFFF" width="4" height="4"/>
			<rect x="392.6" y="51.3" fill="#FFFFFF" width="4" height="4"/>
			<rect x="388.3" y="55.6" fill="#FFFFFF" width="4" height="4"/>
			<rect x="388.3" y="51.3" fill="#FFFFFF" width="4" height="4"/>
		</g>
		<g>
			<g>
				<g>
					<g>
						<rect x="401.4" y="75.4" fill="#FFFFFF" width="4" height="4"/>
						<rect x="401.4" y="71.1" fill="#FFFFFF" width="4" height="4"/>
						<rect x="397.1" y="75.4" fill="#FFFFFF" width="4" height="4"/>
						<rect x="397.1" y="71.1" fill="#FFFFFF" width="4" height="4"/>
					</g>
					<g>
						<rect x="401.4" y="84.1" fill="#FFFFFF" width="4" height="4"/>
						<rect x="401.4" y="79.8" fill="#FFFFFF" width="4" height="4"/>
						<rect x="397.1" y="84.1" fill="#FFFFFF" width="4" height="4"/>
						<rect x="397.1" y="79.8" fill="#FFFFFF" width="4" height="4"/>
					</g>
				</g>
				<g>
					<g>
						<rect x="383.8" y="75.4" fill="#FFFFFF" width="4" height="4"/>
						<rect x="383.8" y="71.1" fill="#FFFFFF" width="4" height="4"/>
						<rect x="379.5" y="75.4" fill="#FFFFFF" width="4" height="4"/>
						<rect x="379.5" y="71.1" fill="#FFFFFF" width="4" height="4"/>
					</g>
					<g>
						<rect x="383.8" y="84.1" fill="#FFFFFF" width="4" height="4"/>
						<rect x="383.8" y="79.8" fill="#FFFFFF" width="4" height="4"/>
						<rect x="379.5" y="84.1" fill="#FFFFFF" width="4" height="4"/>
						<rect x="379.5" y="79.8" fill="#FFFFFF" width="4" height="4"/>
					</g>
				</g>
			</g>
			<g>
				<g>
					<rect x="401.4" y="100.7" fill="#FFFFFF" width="4" height="4"/>
					<rect x="401.4" y="96.4" fill="#FFFFFF" width="4" height="4"/>
					<rect x="397.1" y="100.7" fill="#FFFFFF" width="4" height="4"/>
					<rect x="397.1" y="96.4" fill="#FFFFFF" width="4" height="4"/>
				</g>
				<g>
					<rect x="401.4" y="109.4" fill="#FFFFFF" width="4" height="4"/>
					<rect x="401.4" y="105.1" fill="#FFFFFF" width="4" height="4"/>
					<rect x="397.1" y="109.4" fill="#FFFFFF" width="4" height="4"/>
					<rect x="397.1" y="105.1" fill="#FFFFFF" width="4" height="4"/>
				</g>
			</g>
			<g>
				<g>
					<rect x="383.8" y="100.7" fill="#FFFFFF" width="4" height="4"/>
					<rect x="383.8" y="96.4" fill="#FFFFFF" width="4" height="4"/>
					<rect x="379.5" y="100.7" fill="#FFFFFF" width="4" height="4"/>
					<rect x="379.5" y="96.4" fill="#FFFFFF" width="4" height="4"/>
				</g>
				<g>
					<rect x="383.8" y="109.4" fill="#FFFFFF" width="4" height="4"/>
					<rect x="383.8" y="105.1" fill="#FFFFFF" width="4" height="4"/>
					<rect x="379.5" y="109.4" fill="#FFFFFF" width="4" height="4"/>
					<rect x="379.5" y="105.1" fill="#FFFFFF" width="4" height="4"/>
				</g>
			</g>
		</g>
		<rect x="388.3" y="129.1" fill="#FFFFFF" width="8.3" height="14.2"/>
	</g>
</g>
<g>
	<path fill="#61A5D9" d="M22.3,132.9c-0.2,0.3-0.5,0.6-0.7,0.9c-0.6,0.8-1.2,1.5-1.8,2.3c-0.7,0.8-1.4,1.6-2,2.4
		c-0.3,0.5-0.4,1-0.3,1.6c0.1,0.5,0.2,1,0.2,1.5c0,0.3,0.3,0.6,0.7,0.5c0.5-0.1,0.9,0,1.2,0.3c0.1,0.1,0.3,0.1,0.4,0.2
		c0.2,0.1,0.3,0.3,0.5,0.4c-0.3,0.3-0.6,0.5-0.9,0.7c-0.1,0-0.2,0-0.3,0c-0.3-0.1-0.5-0.1-0.8,0c-0.1,0.1-0.4,0-0.5,0
		c-0.4,0-0.8,0-1.2,0c-0.3,0-0.7-0.2-0.8-0.6c-0.1-0.5-0.3-0.8-0.7-1.2c-0.1,0.3-0.2,0.5-0.2,0.7c-0.1,0.4-0.3,0.8-0.7,1.1
		c-0.2,0.2-0.4,0.3-0.6,0.5c-0.2,0.1-0.3,0.2-0.3-0.1c-0.3,0.1-0.5,0.1-0.8,0.2c-0.1-0.1-0.1-0.2-0.2-0.3c0,0,0.1-0.1,0.2-0.2
		c-0.2,0-0.3,0-0.4,0c0,0,0,0,0-0.1c0.1-0.1,0.1-0.1,0.2-0.2c0,0,0-0.1,0-0.1c-0.2,0.1-0.4,0.2-0.6,0.3c0,0,0,0-0.1-0.1
		c0.2-0.2,0.4-0.4,0.7-0.7c0,0,0,0,0,0c-0.3,0.2-0.5,0.3-0.8,0.5c0,0,0,0-0.1-0.1c0.1-0.2,0.3-0.4,0.4-0.5c0,0,0,0,0,0
		c-0.2,0.1-0.4,0.3-0.6,0.4c0,0,0,0-0.1,0c0.1-0.2,0.1-0.4,0.2-0.5c0.2-0.3,0.2-0.7,0.2-1.1c0-0.8,0.7-1.5,1.5-1.5
		c0.3,0,0.5-0.1,0.6-0.3c0.3-0.5,0.6-0.9,0.8-1.4c0.1-0.2,0.1-0.4,0.1-0.6c0-0.3,0-0.6,0.1-0.8c0.1-0.2,0.2-0.4,0.3-0.5
		c0.1-0.1,0.1-0.2,0.1-0.3c0.1-0.4,0.1-0.8,0.2-1.2c0-0.1,0.1-0.3,0.1-0.4c0-0.5,0.1-1,0.1-1.5c0-1.3,0.1-2.6,0-3.9
		c0-1.2,0.1-2.4,0.4-3.6c0.2-1.1,0.7-2.1,1.5-2.9c0.6-0.7,1.4-1.2,2.2-1.5c0.9-0.3,1.7-0.6,2.6-0.8c0.6-0.1,1.3-0.2,1.9-0.3
		c0.8-0.2,1.6-0.2,2.5-0.1c1,0.1,2.1,0.4,3.1,0.5c0.4,0.1,0.8,0.1,1.2,0.1c0.7,0,1.3,0.1,2,0.1c0.4,0,0.8,0,1.2,0
		c0.1,0,0.3,0,0.3-0.1c0.3-0.3,0.6-0.4,1-0.4c0.1,0,0.1-0.1,0.2-0.1c0.2-0.1,0.4-0.3,0.6-0.4c0,0-0.1-0.1-0.1-0.2
		c0.2-0.1,0.4-0.2,0.7-0.4c0.2-0.1,0.5-0.2,0.7-0.4c0.4-0.2,0.7-0.5,1.1-0.7c0.1-0.1,0.1-0.1,0.2-0.2c-0.1-0.1-0.1-0.1-0.2-0.2
		c0,0-0.1-0.1-0.2-0.1c0.5-0.3,1-0.6,1.4-0.9c-0.1-0.2,0.2-0.5,0.4-0.5c0.1,0,0.2,0,0.2,0c0.2-0.3,0.5-0.3,0.7-0.4
		c0.2-0.1,0.5-0.2,0.7-0.3c0.1,0,0.3,0,0.4,0c0.1,0,0.2,0,0.2,0c0.5-0.3,1.1-0.2,1.7-0.3c0.1,0,0.3-0.1,0.4-0.1
		c0.5-0.3,0.9-0.7,1.5-0.8c0.1,0,0.2-0.1,0.3-0.2c0.3-0.4,0.6-0.7,1-1.1c0.2-0.2,0.3-0.3,0.5-0.5c0.1-0.1,0.2-0.1,0.3-0.1
		c0.3,0,0.6,0.1,0.9,0.1c0.3,0,0.6-0.1,0.9-0.1c-0.1-0.3,0.4-0.5,0.7-0.3c0.1,0.1,0.1,0.2,0.2,0.3c0.1-0.1,0.1-0.2,0.2-0.4
		c0.1,0.2,0.1,0.3,0.2,0.5c0,0,0.1,0.1,0.3,0.1c-0.1-0.3-0.2-0.5-0.3-0.7c0,0,0,0,0.1-0.1c0.2,0.1,0.4,0.2,0.6,0.3
		c0.3-0.1,0.3-0.1,0.6,0.4c0.1,0,0.2-0.1,0.3-0.1c0.1,0.3,0.5,0.6,0.3,1.1c0.1-0.1,0.2-0.2,0.3-0.4c0,0,0,0,0,0c0,0,0,0.1-0.1,0.1
		c0,0.1,0,0.1,0,0.2c0.1,0,0.2,0,0.2-0.1c0.1,0,0.2-0.1,0.3-0.1c-0.2,0.2-0.3,0.5-0.1,0.7c0.1,0,0.1-0.1,0.2-0.1c0,0,0,0,0,0.1
		c0,0.1,0.1,0.3,0.1,0.4c0,0.4,0.1,0.7,0.2,1c0,0.1,0.1,0.2,0.1,0.3c-0.1,0.4,0.2,0.6,0.4,0.8c0.2,0.2,0.3,0.5,0.4,0.8
		c0,0.2,0.1,0.3,0.1,0.5c0.2,0.3,0.3,0.7,0.3,1.1c0,0.2,0.1,0.4,0.2,0.5c0.4,0.5,0.8,0.9,1.2,1.3c0.3,0.4,0.4,0.6,0.2,1
		c-0.2,0.3-0.3,0.7-0.4,1c-0.2,0.4-0.3,0.9-0.5,1.3c0,0.1-0.1,0.2-0.1,0.2c-0.1,0.6-0.7,0.9-1.2,0.7c-0.2-0.1-0.3-0.1-0.5-0.2
		c-0.2-0.1-0.3,0-0.3,0.2c0,0.2,0.1,0.3,0,0.5c-0.1,0.7-0.3,1.4-0.4,2.1c0,0.2-0.1,0.4-0.1,0.6c0,0.4-0.3,0.6-0.5,0.9
		c-0.1,0-0.1-0.1-0.2-0.1c0,0.2-0.1,0.3-0.1,0.5c-0.1,0-0.1-0.1-0.2-0.2c-0.2,0.3-0.4,0.6-0.6,0.8c0,0,0,0,0-0.1c0,0,0-0.1,0-0.1
		c-0.2,0.3-0.4,0.5-0.6,0.7c0,0,0-0.1-0.1-0.1c-0.6,0.2-0.5,0.8-0.7,1.1c-0.1-0.1-0.2-0.1-0.3-0.2c-0.1,0.1-0.3,0.3-0.3,0.4
		c0,0.4,0,0.7,0,1.1c0,0.2-0.1,0.4-0.2,0.6c-0.1,0.2-0.1,0.4-0.2,0.6c0,0.1-0.1,0.2-0.2,0.2c0-0.1,0-0.2,0-0.3
		c-0.2,0.1-0.2,0.1-0.2,0.5c0,0.2,0,0.4,0,0.6c0,0-0.1,0-0.1,0c0-0.1-0.1-0.2-0.1-0.3c0,0-0.1,0-0.1,0c-0.1,0.4-0.1,0.8-0.5,1.1
		c0.1-0.2,0.1-0.4-0.2-0.5c0,0.1-0.1,0.3-0.1,0.4c0.1,0.4,0,0.6-0.3,0.8c0-0.1,0-0.2-0.1-0.3c-0.2,0.3-0.3,0.5-0.4,0.7
		c-0.1-0.1-0.1-0.1-0.1-0.2c-0.3,0.2-0.4,0.7-0.7,0.8c0-0.3,0-0.5,0-0.8c-0.3,0.2-0.4,0.4-0.5,0.7c0,0.2-0.1,0.4-0.3,0.5
		c0-0.2-0.1-0.3-0.1-0.5c0-0.1,0.1-0.2,0.2-0.3c0,0,0,0,0-0.1c-0.1,0.1-0.3,0.1-0.4,0.2c0.1-0.3,0.2-0.5,0.3-0.8
		c-0.2,0-0.2,0.1-0.3,0.2c-0.1,0.2-0.2,0.4-0.2,0.6c-0.1,0.2-0.1,0.3-0.1,0.5c0,0.6,0,1.2-0.1,1.8c-0.1,0.4-0.1,0.9,0.1,1.3
		c0.1,0.1,0.2,0.2,0.4,0.2c0.8,0.1,1.5,0.7,1.7,1.5c0.1,0.3-0.1,0.6-0.4,0.6c-1.1,0-2.3,0-3.4,0c-0.4,0-0.4,0-0.5-0.4
		c0-0.1,0-0.2-0.1-0.3c-0.1-0.5-0.1-0.9-0.2-1.4c-0.1-0.4-0.3-0.9-0.4-1.3c-0.1-0.3-0.1-0.6-0.2-0.9c-0.1-0.2-0.3-0.4-0.4-0.5
		c0-0.1-0.1-0.1-0.1-0.2c-0.1-0.2-0.1-0.4-0.2-0.7c-0.8,0.3-0.9,1-1.3,1.5c-0.2-0.1-0.3-0.2-0.3-0.4c-0.1-0.5-0.1-1.1-0.2-1.6
		c-0.3,0-0.4-0.1-0.3-0.5c0-0.2,0-0.4,0-0.5c0-0.2-0.1-0.3-0.3-0.2c0-0.1,0-0.1,0-0.1c0.2-0.3,0.1-0.5-0.2-0.5
		c-0.2-0.1-0.4-0.1-0.6-0.2c0,0-0.1,0-0.1,0c-0.3,0.1-0.6,0.2-0.9,0.3c-0.2,0-0.4,0.1-0.6,0.1c0,0.2,0.1,0.3,0.1,0.6
		c-0.1-0.1-0.2-0.2-0.3-0.3c0,0.1,0,0.1,0,0.3c-0.3-0.3-0.5-0.6-0.7-1c0,0-0.1,0.1-0.1,0.1c-0.3-0.2-0.3,0.3-0.6,0.2
		c-0.1-0.1-0.7-0.1-0.8,0c0,0.1-0.1,0.2-0.1,0.3c0,0-0.1,0-0.1,0c-0.1-0.3-0.2-0.5-0.2-0.9c-0.2,0.2-0.3,0.3-0.4,0.5
		c0-0.1-0.1-0.2-0.1-0.4c0,0-0.1,0-0.1-0.1c-0.1,0.1-0.2,0.2-0.2,0.4c-0.1-0.1-0.2-0.1-0.2-0.2c-0.2-0.1-0.3-0.1-0.5,0.1
		c-0.1,0.1-0.2,0.1-0.4,0.2c0.2-0.3,0.4-0.6,0.4-1c-0.2,0.2-0.3,0.3-0.4,0.4c0,0-0.1,0-0.1-0.1c0-0.1,0.1-0.2,0.1-0.3
		c-0.1-0.1-0.1-0.2-0.2-0.2c-0.1,0.1-0.2,0.3-0.3,0.4c0,0-0.1-0.1-0.1-0.1c0-0.1,0-0.3,0-0.4c-0.2,0.3-0.6,0.5-1,0.7
		c0.1-0.2,0.1-0.3,0.1-0.4c-0.6,0-0.1-0.5-0.3-0.7c-0.2,0.1-0.4,0.2-0.6,0.3c-0.1-0.1-0.2-0.2-0.3-0.2c0,0,0,0,0,0
		c-0.1-0.1-0.2-0.2-0.3-0.3c-0.1-0.1-0.1-0.2-0.1-0.3c-0.3,0-0.4,0.2-0.5,0.5c-0.5-0.3-0.3-0.7-0.3-1c-0.3,0-0.3,0-0.3,0.4
		c-0.2-0.1-0.3-0.4-0.2-0.6c0.1-0.2,0.1-0.2-0.1-0.4c-0.1,0.3-0.2,0.5-0.3,0.8c-0.2,0.7-0.4,1.3-0.5,2c-0.1,0.5-0.2,1-0.3,1.5
		c0,0.1-0.1,0.3-0.1,0.4c-0.5,1.2-0.5,2.4-0.1,3.6c0.1,0.3,0.3,0.6,0.6,0.8c0.2,0.3,0.5,0.5,0.7,0.8c0.1,0.1,0.3,0.2,0.5,0.1
		c0.2-0.1,0.5-0.2,0.7-0.3c0.4-0.1,0.7,0.1,1,0.2c0.4,0.2,0.7,0.5,0.9,1c0,0.1,0.1,0.2,0.2,0.2c0.2,0.2,0.2,0.3-0.1,0.4
		c-0.3,0.1-0.6,0.1-0.9,0.1c-0.9,0-1.8,0-2.7,0.1c-0.4,0-0.7-0.2-0.9-0.4c0-0.1-0.1-0.1-0.2-0.1c-0.8-0.2-1.3-0.7-1.8-1.3
		c-0.2-0.3-0.3-0.7-0.5-1c-0.3-0.6-0.5-1.1-0.8-1.7c-0.2-0.4-0.3-0.9-0.1-1.4c0.1-0.4,0.3-0.8,0.3-1.2c0-0.4,0-0.8,0-1.1
		C22.8,134.5,22.6,133.7,22.3,132.9C22.4,133,22.4,133,22.3,132.9z M17.1,132.3C17.1,132.3,17.1,132.3,17.1,132.3
		c0.1-0.1,0.1-0.2,0.1-0.3c0.1-0.6,0.2-1.2,0.2-1.8c0.1-1.6,0.1-3.3,0.5-4.9c0-0.1,0-0.2,0-0.3c-0.1,0.1-0.1,0.1-0.1,0.2
		c-0.3,0.9-0.5,1.9-0.5,2.8c-0.1,1-0.1,1.9-0.2,2.9C17.1,131.3,17.1,131.8,17.1,132.3z"/>
</g>
<path fill="#61A5D9" d="M599,141.5c-0.1-0.4-0.3-0.9-0.4-1.3c-0.4-2-0.8-4-1.1-6.1c-0.2-1.8-0.4-3.6,0.1-5.4c0-0.2,0-0.5-0.1-0.6
	c-0.3-0.5-0.6-1-0.8-1.5c-0.9-2.1-1.1-4.4-0.8-6.7c0.1-1.2,0.3-2.4,0.5-3.6c0-0.1,0.1-0.1,0.1-0.3c0.5,1.5,0.8,3,0.8,4.6
	c0,0.4-0.1,0.8-0.1,1.2c-0.1,0.4-0.3,0.8-0.2,1.2c0.1,1.1,0.4,2.1,1,3c0.4,0.5,0.5,1,0.5,1.6c0,0.1,0.1,0.2,0.1,0.3
	c0.1-0.1,0.2-0.2,0.2-0.3c0.1-0.4,0.2-0.8,0.2-1.2c-0.1-1.3-0.3-2.6-0.5-3.9c0-0.3-0.3-0.5-0.4-0.8c-0.1-0.2-0.3-0.5-0.3-0.7
	c0-1.1,0-2.2-0.1-3.3c0-1.2,0-2.4-0.2-3.5c-0.2-1.2-0.8-2.1-1.7-2.9c-0.6-0.6-1.3-1.1-1.8-1.8c-0.8-1.3-2-2.1-3.4-2.4
	c-0.9-0.2-1.9-0.3-2.7-0.6c-2.8-1-4.9-2.9-6.6-5.3c-0.5-0.8-1.2-1.2-2-1.5c-0.3-0.1-0.6-0.1-0.9-0.3c-1.6-0.8-3.2-1.4-4.7-2.3
	c-3.8-2.2-7-5.1-9.5-8.8c-0.6-0.8-1-1.8-1.6-2.6c-0.6-0.9-1.4-1.7-2-2.6c-0.3-0.4-0.6-0.8-1-1.1c0.6-0.4,1.1-0.8,0.7-0.9
	c-0.4,0-1.1,0.2-1.7,0.4c-0.1,0-0.1,0-0.2,0c0,0-0.1-0.1-0.1-0.1c-0.3-0.2-0.5-0.4-0.4-0.9c0.1-0.6-0.1-2.2-0.1-2.2s-0.4-0.5-0.5,0
	c-0.4,0.7-0.7,1.6-1,2.4c-0.3,0.6-1.1,1.2-1.8,1.1c-0.3,0-0.5,0.1-0.6,0.4c-0.3,1-1,1.7-1.7,2.5c-0.2,0.2-0.4,0.5-0.7,0.7
	c-0.7,0.6-1.2,1.3-1.6,2.2c0,0.4,0,0.8,0,1.1c0.2,0,0,0.2,0.5,0.1c0.4-0.3,0.8-0.1,1.2-0.1c0.2,0,0.5,0,0.7-0.1
	c0.7-0.3,1.5-0.6,2.3-0.5c0.8,0.1,1.5-0.1,2.2-0.6c0.4-0.3,0.7-0.2,1.1,0c0.6,0.3,0.9,0.8,1.2,1.4c1.2,2.9,2.6,5.7,4.2,8.4
	c2,3.2,4.2,6.3,7.3,8.6c0.7,0.5,1.3,1.2,1.8,1.9c0.7,0.9,0.8,1.8,0.3,2.8c-0.2,0.4-0.3,0.8-0.6,1.1c-0.5,0.8-0.5,1.6-0.4,2.4
	c0.2,1.1,0.6,2.1,1.2,3c0.4,0.7,0.4,1.4,0.4,2.1c-0.4,3.1-1.4,6-2.5,8.9c-0.3,0.7-0.5,1.5-0.6,2.2c-0.3,1.9-0.5,3.8-0.8,5.6
	c-0.3,1.7-0.7,3.4-1.1,5.2c-0.2,0.8-0.2,1.7-1.2,2c0,0,0,0-0.1,0.1c-0.2,0.3-0.1,0.6,0.2,0.6c0.4,0.1,0.9,0.1,1.3,0.1
	c0.4,0,0.7-0.1,0.8-0.6c0.1-0.3,0.3-0.6,0.5-0.9c0.2-0.3,0.4-0.5,0.4-0.8c0.1-0.8,0.1-1.7,0.3-2.5c0.5-2.4,1-4.8,1.6-7.2
	c0.1-0.3,0.2-0.8,0.4-1c0.4-0.4,0.5-0.8,0.6-1.3c0.1-0.4,0.1-0.8,0.3-1.1c0.3-0.8,0.7-1.5,1.1-2.2c0.6-1.1,1.3-2.2,2-3.3
	c0,0,0.1,0,0.1,0c0.3,1,0.5,2.1,0.8,3.1c0.6,1.9,0.5,4,1.4,5.8c0,0.1,0,0.2,0.1,0.2c0.4,2.9,0.8,5.8,1.1,8.7
	c0.1,0.6,0.1,1.2-0.8,1.5c-0.2,0-0.3,0.5-0.3,0.7c0,0.1,0.4,0.3,0.6,0.3c0.5,0,1.1-0.1,1.6-0.1c0.1,0,0.2-0.1,0.3-0.2
	c0.1-0.3,0-0.5,0.1-0.8c0-0.2,0.2-0.4,0.2-0.5c0.1-0.2,0.3-0.4,0.3-0.6c-0.1-1-0.4-2-0.5-2.9c-0.3-2.4-0.6-4.8-0.6-7.2
	c0-0.4,0.1-0.8,0.1-1.2c-0.5-2.9-0.9-5.7-1.4-8.6c0-0.3,0-0.4,0.2-0.5c0.7-0.5,1.4-0.4,2.1-0.2c1.7,0.5,3.3,0.7,5,0.1
	c0.7-0.2,1.4-0.6,2.1-0.9c0.1,0.5,0.2,1,0.4,1.5c0.6,2.3,1.2,4.6,2,6.8c0.6,1.7,0.9,3.5,0.8,5.3c-0.1,1.3-0.1,2.6-0.2,3.8
	c-0.1,1.2-0.2,2.4-0.4,3.5c-0.1,0.7-0.3,1.3-0.9,1.8c-0.1,0.1-0.3,0.2-0.4,0.3c-0.1,0.2-0.3,0.5-0.2,0.7c0,0.1,0.4,0.3,0.6,0.3
	c0.4,0,0.9,0,1.3-0.1c0.3,0,0.6-0.1,0.7-0.5c0-0.1,0.3-0.2,0.4-0.2c0.4,0,0.4-0.2,0.4-0.5c0-1.8,0-3.6,0.2-5.4
	c0.2-2.1,0.4-4.1,0.7-6.2c0-0.2,0.1-0.4,0.2-0.6c0.1,0,0.1,0,0.2,0c0.5,1.7,1,3.4,1.5,5.1c0.5,2.1,0.8,4.3,0.9,6.4
	c0,0.7,0.2,1.5-0.3,2.1c0,0.1,0,0.3,0.1,0.4c0.1,0.1,0.3,0.1,0.5,0.1c1.4,0.4,1.7-0.2,1.5-1.3c0-0.2,0.1-0.5,0.2-0.6
	C599.2,142.2,599.1,141.9,599,141.5z"/>
<g>
	<polygon fill="#61A5D9" points="324.3,77.3 330,77.3 330,73.7 317.7,64.1 320.4,61.4 324.2,65.2 358.1,31.3 352.5,25.7 320.9,57.2 
		318.5,59.5 315.6,62.5 311.4,59.2 303.2,65.7 301.9,64.4 305.7,60.6 271.8,26.7 266.2,32.3 297.7,63.9 300,66.2 301.1,67.3 
		292.7,74 292.7,77.3 297,77.3 296.9,78.9 296.3,78.3 262.3,112.1 267.9,117.8 295.9,89.8 291.3,143.6 331.5,143.6 326.2,94.2 
		348.6,116.8 354.3,111.1 324.8,81.6 	"/>
	<rect x="306.8" y="123.7" fill="#FFFFFF" width="8.6" height="12.9"/>
	<path fill="#FFFFFF" d="M311.1,80c-1.6,0-3,1.3-3,3v4v3.8h6v-3.8v-4C314.1,81.3,312.7,80,311.1,80z"/>
</g>
<path fill="#61A5D9" d="M293.1,134.6c0,0-12.7,3.3-12.7,7.3v5.9c0,4,3.3,7.3,7.3,7.3h5.5c4,0,7.3-3.3,7.3-7.3v-5.9
	C300.3,137.9,297.1,134.6,293.1,134.6z"/>
<path fill="#61A5D9" d="M330.3,134.6c-4,0-7.3,3.3-7.3,7.3v5.9c0,4,3.3,7.3,7.3,7.3h5.5c4,0,7.3-3.3,7.3-7.3v-5.9
	C343.1,137.9,330.3,134.6,330.3,134.6z"/>
</svg>
