<?xml version="1.0" encoding="utf-8"?>
<!-- Generator: Adobe Illustrator 16.0.4, SVG Export Plug-In . SVG Version: 6.00 Build 0)  -->
<!DOCTYPE svg PUBLIC "-//W3C//DTD SVG 1.1//EN" "http://www.w3.org/Graphics/SVG/1.1/DTD/svg11.dtd">
<svg version="1.1" id="Layer_1" xmlns="http://www.w3.org/2000/svg" xmlns:xlink="http://www.w3.org/1999/xlink" x="0px" y="0px"
	 width="128px" height="128px" viewBox="0 0 128 128" enable-background="new 0 0 128 128" xml:space="preserve">
<path fill="#F26722" d="M123.358,124.078H5.372c-1.288,0-2.341-1.054-2.341-2.342V55.058c0-1.288,1.054-2.341,2.341-2.341h117.987
	c1.288,0,2.342,1.054,2.342,2.341v66.679C125.7,123.024,124.646,124.078,123.358,124.078"/>
<path fill="none" stroke="#F26722" stroke-width="3" stroke-miterlimit="10" d="M123.358,124.078H5.372
	c-1.288,0-2.341-1.054-2.341-2.342V55.058c0-1.288,1.054-2.341,2.341-2.341h117.987c1.288,0,2.342,1.054,2.342,2.341v66.679
	C125.7,123.024,124.646,124.078,123.358,124.078z"/>
<path fill="#FFFFFF" d="M122.283,61.183H6.446c-1.878,0-3.416-1.537-3.416-3.417V5.892c0-1.879,1.538-3.417,3.416-3.417h115.837
	c1.881,0,3.418,1.538,3.418,3.417v51.874C125.701,59.646,124.164,61.183,122.283,61.183"/>
<path fill="none" stroke="#F26722" stroke-width="3" stroke-miterlimit="10" d="M122.283,61.183H6.446
	c-1.878,0-3.416-1.537-3.416-3.417V5.892c0-1.879,1.538-3.417,3.416-3.417h115.837c1.881,0,3.418,1.538,3.418,3.417v51.874
	C125.701,59.646,124.164,61.183,122.283,61.183z"/>
<line fill="none" x1="-19.083" y1="-11.333" x2="328.148" y2="-11.333"/>
<g>
	<path fill="#FFFFFF" d="M17.155,79.02h-4.927l-0.951,2.968c-0.089,0.241-0.26,0.361-0.514,0.361H9.166
		c-0.267,0-0.355-0.14-0.267-0.419l4.508-12.935c0.05-0.127,0.111-0.216,0.181-0.267c0.07-0.05,0.187-0.075,0.352-0.075h1.56
		c0.165,0,0.286,0.025,0.361,0.075c0.076,0.051,0.133,0.14,0.171,0.267l4.642,12.973c0.038,0.114,0.031,0.207-0.019,0.276
		c-0.051,0.069-0.133,0.104-0.248,0.104h-1.75c-0.254,0-0.425-0.12-0.514-0.361L17.155,79.02z M12.855,77.137h3.671l-0.209-0.628
		c-0.33-1.002-0.631-1.937-0.903-2.806c-0.273-0.868-0.511-1.626-0.713-2.273c-0.102,0.317-0.212,0.676-0.333,1.075
		s-0.253,0.817-0.399,1.255s-0.295,0.889-0.447,1.351c-0.152,0.464-0.305,0.923-0.457,1.38L12.855,77.137z"/>
	<path fill="#FFFFFF" d="M28.301,80.085c-0.215,0-0.368-0.025-0.456-0.076c-0.089-0.051-0.165-0.152-0.229-0.305l-1.179-2.872
		c-0.14-0.329-0.286-0.685-0.438-1.065c-0.152-0.38-0.298-0.761-0.438-1.141c-0.14-0.381-0.276-0.748-0.409-1.104
		c-0.133-0.354-0.244-0.672-0.333-0.951c0,0.33,0,0.71,0,1.142c0,0.431-0.003,0.891-0.009,1.379s-0.016,0.989-0.029,1.503
		s-0.025,1.011-0.038,1.493l-0.133,3.842c-0.013,0.279-0.146,0.419-0.399,0.419h-1.408c-0.178,0-0.298-0.031-0.361-0.095
		c-0.063-0.063-0.089-0.178-0.076-0.343l0.571-12.84c0.012-0.278,0.165-0.418,0.457-0.418h1.541c0.178,0,0.308,0.025,0.39,0.075
		c0.082,0.051,0.155,0.146,0.219,0.286l1.75,4.317c0.368,0.888,0.678,1.671,0.932,2.35c0.253,0.679,0.469,1.265,0.646,1.76
		c0.089-0.254,0.19-0.539,0.305-0.856c0.114-0.316,0.237-0.649,0.371-0.999c0.133-0.349,0.272-0.71,0.418-1.084
		c0.146-0.374,0.289-0.738,0.428-1.094l1.769-4.394c0.063-0.14,0.139-0.235,0.228-0.286c0.089-0.05,0.209-0.075,0.361-0.075h1.503
		c0.292,0,0.444,0.14,0.457,0.418l0.552,12.84c0.012,0.292-0.133,0.438-0.438,0.438H33.38c-0.292,0-0.438-0.14-0.438-0.419
		l-0.133-4.964c-0.025-0.964-0.044-1.791-0.057-2.482s-0.019-1.354-0.019-1.988c-0.19,0.584-0.428,1.269-0.713,2.055
		c-0.286,0.786-0.574,1.541-0.866,2.264l-1.179,2.891c-0.064,0.152-0.14,0.254-0.229,0.305s-0.241,0.076-0.457,0.076H28.301z"/>
	<path fill="#FFFFFF" d="M38.497,79.533c0.444,0.305,0.91,0.546,1.398,0.723c0.488,0.178,0.954,0.267,1.398,0.267
		c0.685,0,1.262-0.155,1.731-0.466s0.704-0.764,0.704-1.36c0-0.316-0.07-0.593-0.209-0.827s-0.323-0.447-0.551-0.638
		c-0.229-0.189-0.485-0.361-0.771-0.514c-0.286-0.151-0.58-0.304-0.885-0.456c-0.406-0.203-0.812-0.415-1.217-0.638
		c-0.406-0.222-0.773-0.481-1.103-0.779c-0.33-0.298-0.6-0.65-0.809-1.056c-0.209-0.406-0.314-0.888-0.314-1.446
		c0-0.621,0.114-1.173,0.342-1.654c0.229-0.482,0.536-0.888,0.923-1.218c0.387-0.329,0.837-0.58,1.351-0.751
		c0.514-0.172,1.056-0.257,1.626-0.257c0.723,0,1.36,0.089,1.912,0.266c0.551,0.178,1.043,0.413,1.474,0.704
		c0.203,0.14,0.241,0.336,0.114,0.59l-0.533,0.951c-0.127,0.254-0.311,0.298-0.552,0.133c-0.406-0.215-0.783-0.38-1.132-0.494
		s-0.732-0.172-1.151-0.172c-0.646,0-1.138,0.159-1.474,0.476c-0.336,0.317-0.504,0.711-0.504,1.18c0,0.267,0.066,0.504,0.2,0.714
		c0.133,0.209,0.307,0.399,0.523,0.57c0.215,0.171,0.466,0.333,0.751,0.485c0.285,0.151,0.58,0.304,0.884,0.456
		c0.558,0.279,1.053,0.555,1.484,0.827c0.431,0.273,0.796,0.571,1.094,0.895s0.523,0.685,0.675,1.084s0.228,0.854,0.228,1.36
		c0,0.596-0.102,1.142-0.304,1.636c-0.203,0.494-0.498,0.923-0.884,1.284c-0.387,0.361-0.869,0.641-1.446,0.837
		c-0.577,0.196-1.24,0.295-1.988,0.295c-0.812,0-1.579-0.121-2.302-0.361c-0.723-0.241-1.293-0.533-1.712-0.875
		c-0.19-0.152-0.222-0.349-0.095-0.59l0.571-1.065C38.072,79.407,38.256,79.369,38.497,79.533z"/>
	<path fill="#FFFFFF" d="M52.896,70.612v11.375c0,0.241-0.127,0.361-0.38,0.361h-1.655c-0.253,0-0.38-0.12-0.38-0.361V70.612h-3.177
		c-0.253,0-0.38-0.12-0.38-0.361v-1.236c0-0.241,0.127-0.361,0.38-0.361h8.77c0.253,0,0.38,0.12,0.38,0.361v1.236
		c0,0.241-0.127,0.361-0.38,0.361H52.896z"/>
	<path fill="#FFFFFF" d="M58.584,82.349c-0.254,0-0.381-0.12-0.381-0.361V69.015c0-0.241,0.127-0.361,0.381-0.361h7.343
		c0.253,0,0.38,0.12,0.38,0.361v1.236c0,0.241-0.127,0.361-0.38,0.361h-5.308v3.842h4.489c0.254,0,0.381,0.114,0.381,0.343v1.236
		c0,0.241-0.127,0.361-0.381,0.361h-4.489v3.995h5.384c0.253,0,0.38,0.12,0.38,0.361v1.236c0,0.241-0.127,0.361-0.38,0.361H58.584z"
		/>
	<path fill="#FFFFFF" d="M72.983,77.422c-0.114-0.216-0.226-0.346-0.333-0.39c-0.107-0.045-0.275-0.066-0.504-0.066h-0.913v5.021
		c0,0.241-0.127,0.361-0.38,0.361h-1.655c-0.254,0-0.381-0.12-0.381-0.361V69.015c0-0.241,0.127-0.361,0.381-0.361h3.119
		c1.002,0,1.861,0.104,2.578,0.313c0.716,0.209,1.29,0.542,1.722,0.999c0.608,0.634,0.912,1.527,0.912,2.682
		c0,0.913-0.212,1.696-0.637,2.35s-1.05,1.17-1.874,1.55l3.177,5.308c0.102,0.14,0.134,0.257,0.096,0.352s-0.14,0.143-0.305,0.143
		h-1.731c-0.178,0-0.301-0.016-0.37-0.048c-0.07-0.031-0.156-0.123-0.257-0.275L72.983,77.422z M71.233,70.593v4.471h1.218
		c0.888,0,1.55-0.206,1.987-0.618s0.656-0.999,0.656-1.76c0-0.354-0.044-0.649-0.133-0.885c-0.089-0.234-0.216-0.434-0.381-0.599
		c-0.254-0.254-0.573-0.419-0.96-0.495c-0.388-0.076-0.809-0.114-1.266-0.114H71.233z"/>
	<path fill="#FFFFFF" d="M80.611,82.349c-0.254,0-0.381-0.12-0.381-0.361V69.015c0-0.241,0.127-0.361,0.381-0.361h3.119
		c1.243,0,2.283,0.133,3.12,0.399c0.837,0.266,1.541,0.697,2.111,1.293c0.532,0.546,0.951,1.243,1.256,2.093
		c0.304,0.85,0.456,1.852,0.456,3.005c0,1.154-0.158,2.194-0.476,3.12s-0.818,1.712-1.503,2.358c-0.57,0.546-1.259,0.92-2.063,1.122
		c-0.806,0.203-1.74,0.305-2.806,0.305H80.611z M82.646,70.593v9.815h1.16c0.597,0,1.167-0.066,1.712-0.199
		c0.546-0.134,1.015-0.384,1.408-0.752c0.431-0.405,0.751-0.947,0.96-1.626c0.21-0.679,0.314-1.462,0.314-2.35
		c0-0.812-0.083-1.521-0.247-2.13c-0.165-0.609-0.399-1.097-0.704-1.465c-0.355-0.431-0.806-0.755-1.351-0.971
		c-0.546-0.215-1.224-0.323-2.035-0.323H82.646z"/>
	<path fill="#FFFFFF" d="M99.822,79.02h-4.927l-0.951,2.968c-0.089,0.241-0.26,0.361-0.513,0.361h-1.599
		c-0.266,0-0.354-0.14-0.266-0.419l4.508-12.935c0.051-0.127,0.111-0.216,0.181-0.267c0.069-0.05,0.187-0.075,0.352-0.075h1.561
		c0.164,0,0.285,0.025,0.361,0.075c0.076,0.051,0.133,0.14,0.171,0.267l4.642,12.973c0.038,0.114,0.031,0.207-0.02,0.276
		s-0.133,0.104-0.247,0.104h-1.75c-0.254,0-0.425-0.12-0.514-0.361L99.822,79.02z M95.523,77.137h3.671l-0.209-0.628
		c-0.33-1.002-0.631-1.937-0.903-2.806c-0.272-0.868-0.511-1.626-0.713-2.273c-0.103,0.317-0.213,0.676-0.333,1.075
		c-0.121,0.399-0.254,0.817-0.399,1.255c-0.146,0.438-0.295,0.889-0.447,1.351c-0.152,0.464-0.305,0.923-0.457,1.38L95.523,77.137z"
		/>
	<path fill="#FFFFFF" d="M110.97,80.085c-0.216,0-0.368-0.025-0.456-0.076c-0.089-0.051-0.165-0.152-0.229-0.305l-1.18-2.872
		c-0.14-0.329-0.285-0.685-0.438-1.065c-0.151-0.38-0.298-0.761-0.438-1.141c-0.14-0.381-0.275-0.748-0.408-1.104
		c-0.134-0.354-0.245-0.672-0.333-0.951c0,0.33,0,0.71,0,1.142c0,0.431-0.004,0.891-0.01,1.379
		c-0.007,0.488-0.016,0.989-0.028,1.503s-0.025,1.011-0.038,1.493l-0.134,3.842c-0.013,0.279-0.146,0.419-0.399,0.419h-1.407
		c-0.178,0-0.298-0.031-0.361-0.095s-0.089-0.178-0.076-0.343l0.57-12.84c0.013-0.278,0.165-0.418,0.457-0.418h1.541
		c0.177,0,0.307,0.025,0.39,0.075c0.082,0.051,0.155,0.146,0.219,0.286l1.75,4.317c0.367,0.888,0.678,1.671,0.932,2.35
		s0.47,1.265,0.647,1.76c0.088-0.254,0.189-0.539,0.304-0.856c0.114-0.316,0.238-0.649,0.371-0.999
		c0.133-0.349,0.272-0.71,0.419-1.084c0.146-0.374,0.288-0.738,0.428-1.094l1.769-4.394c0.063-0.14,0.14-0.235,0.229-0.286
		c0.089-0.05,0.209-0.075,0.361-0.075h1.503c0.292,0,0.443,0.14,0.456,0.418l0.552,12.84c0.013,0.292-0.133,0.438-0.438,0.438
		h-1.445c-0.292,0-0.438-0.14-0.438-0.419l-0.133-4.964c-0.026-0.964-0.045-1.791-0.058-2.482s-0.019-1.354-0.019-1.988
		c-0.19,0.584-0.429,1.269-0.714,2.055s-0.573,1.541-0.865,2.264l-1.18,2.891c-0.063,0.152-0.14,0.254-0.228,0.305
		c-0.089,0.051-0.241,0.076-0.457,0.076H110.97z"/>
</g>
<g opacity="0.87">
	<g>
		<defs>
			<rect id="SVGID_1_" x="26.399" y="87.816" width="75.004" height="18.732"/>
		</defs>
		<clipPath id="SVGID_2_">
			<use xlink:href="#SVGID_1_"  overflow="visible"/>
		</clipPath>
		<g clip-path="url(#SVGID_2_)">
			<path fill="#FFFFFF" d="M33.496,98.573h-4.067l-0.785,2.45c-0.073,0.198-0.214,0.298-0.424,0.298h-1.319
				c-0.22,0-0.293-0.115-0.22-0.346l3.721-10.677c0.042-0.104,0.091-0.178,0.149-0.22s0.155-0.062,0.291-0.062h1.288
				c0.136,0,0.236,0.021,0.298,0.062c0.063,0.042,0.11,0.115,0.142,0.22l3.831,10.708c0.031,0.095,0.026,0.171-0.016,0.229
				c-0.042,0.058-0.11,0.086-0.204,0.086h-1.445c-0.209,0-0.351-0.1-0.424-0.298L33.496,98.573z M29.947,97.02h3.031l-0.173-0.519
				c-0.272-0.827-0.521-1.599-0.746-2.316c-0.226-0.717-0.422-1.342-0.589-1.876c-0.084,0.262-0.176,0.558-0.275,0.887
				c-0.1,0.33-0.209,0.676-0.33,1.037c-0.121,0.36-0.244,0.732-0.369,1.114c-0.125,0.383-0.251,0.762-0.377,1.139L29.947,97.02z"/>
			<path fill="#FFFFFF" d="M41.315,97.255c-0.094-0.178-0.186-0.285-0.274-0.322c-0.089-0.036-0.228-0.055-0.417-0.055h-0.753v4.146
				c0,0.198-0.105,0.298-0.314,0.298H38.19c-0.209,0-0.314-0.1-0.314-0.298V90.314c0-0.198,0.104-0.298,0.314-0.298h2.575
				c0.827,0,1.536,0.086,2.127,0.259s1.065,0.447,1.421,0.824c0.502,0.523,0.754,1.262,0.754,2.214c0,0.754-0.175,1.4-0.526,1.939
				c-0.351,0.539-0.867,0.966-1.547,1.279l2.622,4.381c0.084,0.115,0.11,0.212,0.079,0.29c-0.031,0.079-0.115,0.118-0.251,0.118
				h-1.429c-0.146,0-0.249-0.013-0.306-0.039s-0.128-0.103-0.212-0.228L41.315,97.255z M39.871,91.618v3.689h1.005
				c0.732,0,1.28-0.17,1.641-0.511c0.361-0.34,0.542-0.824,0.542-1.452c0-0.293-0.037-0.536-0.11-0.729
				c-0.074-0.194-0.178-0.359-0.314-0.495c-0.209-0.209-0.474-0.346-0.792-0.408c-0.32-0.062-0.667-0.094-1.044-0.094H39.871z"/>
			<path fill="#FFFFFF" d="M50.893,91.634v9.39c0,0.198-0.105,0.298-0.314,0.298h-1.366c-0.209,0-0.314-0.1-0.314-0.298v-9.39
				h-2.622c-0.209,0-0.314-0.1-0.314-0.299v-1.021c0-0.198,0.104-0.298,0.314-0.298h7.239c0.209,0,0.314,0.1,0.314,0.298v1.021
				c0,0.199-0.105,0.299-0.314,0.299H50.893z"/>
			<path fill="#FFFFFF" d="M55.635,101.321c-0.21,0-0.314-0.1-0.314-0.298V90.314c0-0.198,0.104-0.298,0.314-0.298h1.366
				c0.209,0,0.313,0.1,0.313,0.298v10.709c0,0.198-0.104,0.298-0.313,0.298H55.635z"/>
			<path fill="#FFFFFF" d="M60.109,98.997c0.366,0.252,0.751,0.45,1.154,0.597c0.402,0.147,0.787,0.22,1.153,0.22
				c0.565,0,1.042-0.128,1.429-0.384c0.388-0.257,0.581-0.631,0.581-1.123c0-0.262-0.058-0.489-0.173-0.683
				c-0.115-0.194-0.267-0.369-0.455-0.526s-0.4-0.299-0.636-0.424c-0.235-0.126-0.479-0.251-0.73-0.377
				c-0.335-0.167-0.67-0.343-1.005-0.526c-0.335-0.183-0.639-0.397-0.91-0.644c-0.272-0.246-0.495-0.536-0.668-0.871
				c-0.172-0.335-0.259-0.732-0.259-1.193c0-0.513,0.095-0.969,0.283-1.366s0.441-0.732,0.761-1.005s0.691-0.479,1.115-0.62
				s0.871-0.212,1.343-0.212c0.597,0,1.122,0.073,1.578,0.22c0.455,0.146,0.86,0.34,1.217,0.581
				c0.167,0.115,0.198,0.277,0.094,0.486l-0.439,0.785c-0.104,0.21-0.257,0.246-0.455,0.11c-0.336-0.178-0.646-0.314-0.935-0.408
				c-0.288-0.095-0.604-0.142-0.95-0.142c-0.533,0-0.939,0.131-1.217,0.393s-0.416,0.586-0.416,0.974
				c0,0.22,0.055,0.416,0.165,0.589c0.109,0.173,0.254,0.329,0.432,0.471s0.385,0.274,0.62,0.4s0.479,0.251,0.73,0.377
				c0.46,0.23,0.868,0.458,1.225,0.683c0.355,0.226,0.656,0.472,0.902,0.738s0.433,0.565,0.558,0.895
				c0.126,0.33,0.188,0.704,0.188,1.123c0,0.492-0.084,0.942-0.251,1.351c-0.168,0.408-0.411,0.762-0.73,1.06
				c-0.319,0.299-0.717,0.529-1.193,0.691s-1.023,0.243-1.641,0.243c-0.67,0-1.303-0.1-1.899-0.299
				c-0.597-0.198-1.068-0.439-1.413-0.722c-0.157-0.126-0.184-0.288-0.079-0.487l0.471-0.879
				C59.759,98.893,59.91,98.861,60.109,98.997z"/>
			<path fill="#FFFFFF" d="M71.729,101.321c-0.21,0-0.314-0.1-0.314-0.298v-0.723c0-0.167,0.016-0.312,0.047-0.432
				c0.032-0.12,0.104-0.27,0.22-0.447l4.853-7.788h-4.538c-0.21,0-0.314-0.1-0.314-0.299v-1.021c0-0.198,0.104-0.298,0.314-0.298
				h6.563c0.209,0,0.313,0.1,0.313,0.298v0.723c0,0.156-0.018,0.296-0.055,0.416s-0.102,0.254-0.196,0.4l-4.898,7.851h4.993
				c0.209,0,0.313,0.1,0.313,0.298v1.021c0,0.198-0.104,0.298-0.313,0.298H71.729z"/>
			<path fill="#FFFFFF" d="M89.832,95.512c0,0.911-0.11,1.732-0.33,2.465c-0.22,0.733-0.542,1.358-0.966,1.877
				c-0.424,0.518-0.95,0.918-1.578,1.201c-0.628,0.282-1.345,0.424-2.15,0.424c-0.691,0-1.325-0.11-1.9-0.33
				c-0.576-0.22-1.07-0.562-1.483-1.028c-0.414-0.466-0.735-1.055-0.966-1.767s-0.346-1.555-0.346-2.527
				c0-0.911,0.11-1.732,0.33-2.466c0.22-0.732,0.541-1.358,0.966-1.876c0.424-0.519,0.949-0.919,1.577-1.201
				c0.629-0.283,1.346-0.424,2.151-0.424c0.691,0,1.324,0.109,1.9,0.329c0.575,0.22,1.07,0.563,1.483,1.029s0.735,1.055,0.966,1.766
				C89.717,93.695,89.832,94.538,89.832,95.512z M87.774,95.574c0-1.392-0.235-2.412-0.706-3.062
				c-0.471-0.648-1.131-0.974-1.979-0.974c-0.942,0-1.664,0.361-2.167,1.084c-0.502,0.722-0.754,1.769-0.754,3.14
				c0,1.393,0.236,2.413,0.707,3.062c0.471,0.648,1.131,0.973,1.979,0.973c0.942,0,1.664-0.36,2.167-1.083
				C87.523,97.992,87.774,96.946,87.774,95.574z"/>
			<path fill="#FFFFFF" d="M100.808,95.512c0,0.911-0.11,1.732-0.33,2.465c-0.22,0.733-0.542,1.358-0.966,1.877
				c-0.424,0.518-0.95,0.918-1.578,1.201c-0.628,0.282-1.345,0.424-2.15,0.424c-0.691,0-1.325-0.11-1.9-0.33
				c-0.576-0.22-1.07-0.562-1.483-1.028c-0.414-0.466-0.735-1.055-0.966-1.767s-0.346-1.555-0.346-2.527
				c0-0.911,0.11-1.732,0.33-2.466c0.22-0.732,0.541-1.358,0.966-1.876c0.424-0.519,0.949-0.919,1.577-1.201
				c0.629-0.283,1.346-0.424,2.151-0.424c0.691,0,1.324,0.109,1.9,0.329c0.575,0.22,1.07,0.563,1.483,1.029s0.735,1.055,0.966,1.766
				C100.692,93.695,100.808,94.538,100.808,95.512z M98.75,95.574c0-1.392-0.235-2.412-0.706-3.062
				c-0.471-0.648-1.131-0.974-1.979-0.974c-0.942,0-1.664,0.361-2.167,1.084c-0.502,0.722-0.754,1.769-0.754,3.14
				c0,1.393,0.236,2.413,0.707,3.062c0.471,0.648,1.131,0.973,1.979,0.973c0.942,0,1.664-0.36,2.167-1.083
				C98.499,97.992,98.75,96.946,98.75,95.574z"/>
		</g>
	</g>
</g>
<g opacity="0.87">
	<g>
		<defs>
			<rect id="SVGID_3_" x="17.601" y="106.566" width="92.603" height="14.339"/>
		</defs>
		<clipPath id="SVGID_4_">
			<use xlink:href="#SVGID_3_"  overflow="visible"/>
		</clipPath>
		<g clip-path="url(#SVGID_4_)">
			<path fill="#FFFFFF" d="M19.884,117.023c-0.161,0-0.327-0.012-0.499-0.036c-0.172-0.023-0.342-0.056-0.511-0.096
				s-0.327-0.084-0.475-0.133c-0.148-0.048-0.271-0.1-0.367-0.156c-0.064-0.031-0.106-0.073-0.126-0.126
				c-0.02-0.052-0.014-0.126,0.018-0.223l0.216-0.696c0.048-0.137,0.156-0.173,0.324-0.108c0.208,0.088,0.423,0.158,0.643,0.21
				c0.22,0.053,0.422,0.078,0.607,0.078c0.248,0,0.451-0.04,0.607-0.12s0.28-0.19,0.373-0.33c0.092-0.141,0.154-0.309,0.187-0.505
				c0.032-0.196,0.048-0.411,0.048-0.644v-4.65h-1.935c-0.16,0-0.24-0.076-0.24-0.229v-0.781c0-0.152,0.08-0.229,0.24-0.229h3.221
				c0.16,0,0.24,0.076,0.24,0.229v5.637c0,0.945-0.198,1.666-0.595,2.163C21.464,116.775,20.805,117.023,19.884,117.023z"/>
			<path fill="#FFFFFF" d="M30.749,113.466c0,1.178-0.266,2.065-0.799,2.662c-0.533,0.598-1.376,0.896-2.53,0.896
				c-1.122,0-1.941-0.272-2.458-0.817c-0.517-0.545-0.775-1.378-0.775-2.5v-5.228c0-0.152,0.08-0.229,0.24-0.229h1.046
				c0.16,0,0.24,0.076,0.24,0.229v5.191c0,0.714,0.136,1.238,0.409,1.575c0.272,0.336,0.721,0.505,1.346,0.505
				c0.601,0,1.047-0.177,1.34-0.529s0.439-0.869,0.439-1.551v-5.191c0-0.152,0.08-0.229,0.24-0.229h1.021
				c0.16,0,0.24,0.076,0.24,0.229V113.466z"/>
			<path fill="#FFFFFF" d="M35.268,112.997c-0.185-0.288-0.347-0.545-0.487-0.769c-0.141-0.225-0.265-0.429-0.373-0.613
				c-0.108-0.185-0.205-0.353-0.289-0.505s-0.162-0.301-0.234-0.444c0.008,0.168,0.016,0.364,0.024,0.589s0.016,0.459,0.024,0.703
				c0.008,0.244,0.012,0.49,0.012,0.739c0,0.248,0,0.477,0,0.685v3.293c0,0.152-0.08,0.229-0.24,0.229h-0.938
				c-0.161,0-0.24-0.076-0.24-0.229v-8.196c0-0.152,0.08-0.229,0.24-0.229h0.829c0.12,0,0.208,0.017,0.265,0.048
				c0.056,0.032,0.112,0.089,0.168,0.169l2.332,3.689c0.176,0.288,0.333,0.539,0.469,0.751s0.259,0.408,0.367,0.589
				c0.108,0.181,0.206,0.349,0.294,0.505s0.172,0.318,0.252,0.486c-0.008-0.168-0.016-0.364-0.024-0.589
				c-0.008-0.224-0.014-0.456-0.018-0.697c-0.004-0.24-0.006-0.482-0.006-0.727s0-0.475,0-0.691v-3.305
				c0-0.152,0.08-0.229,0.24-0.229h0.938c0.16,0,0.24,0.076,0.24,0.229v8.196c0,0.152-0.08,0.229-0.24,0.229h-0.83
				c-0.12,0-0.208-0.016-0.264-0.048c-0.056-0.032-0.108-0.088-0.156-0.169L35.268,112.997z"/>
			<path fill="#FFFFFF" d="M41.181,116.903c-0.161,0-0.24-0.076-0.24-0.229v-8.196c0-0.152,0.08-0.229,0.24-0.229h4.639
				c0.16,0,0.24,0.076,0.24,0.229v0.781c0,0.152-0.08,0.229-0.24,0.229h-3.353v2.428h2.836c0.161,0,0.241,0.071,0.241,0.216v0.781
				c0,0.152-0.08,0.229-0.241,0.229h-2.836v2.523h3.401c0.16,0,0.241,0.076,0.241,0.229v0.781c0,0.152-0.081,0.229-0.241,0.229
				H41.181z"/>
			<path fill="#FFFFFF" d="M53.006,117.035c-0.376,0-0.737-0.048-1.081-0.144c-0.345-0.097-0.647-0.242-0.907-0.439
				c-0.261-0.195-0.469-0.442-0.625-0.738c-0.156-0.297-0.234-0.642-0.234-1.034c0-0.528,0.144-0.981,0.433-1.357
				c0.288-0.377,0.657-0.669,1.105-0.878c-0.336-0.184-0.613-0.44-0.829-0.769c-0.216-0.329-0.325-0.737-0.325-1.227
				c0-0.353,0.07-0.671,0.21-0.955s0.333-0.527,0.577-0.728c0.245-0.2,0.529-0.354,0.854-0.463c0.325-0.107,0.671-0.162,1.04-0.162
				c0.353,0,0.686,0.049,0.998,0.145s0.584,0.236,0.816,0.421s0.417,0.408,0.554,0.673c0.136,0.265,0.204,0.564,0.204,0.901
				c0,0.433-0.125,0.815-0.373,1.147c-0.248,0.333-0.557,0.604-0.925,0.812c0.208,0.104,0.408,0.225,0.601,0.36
				c0.192,0.137,0.36,0.297,0.505,0.48c0.145,0.185,0.26,0.396,0.349,0.632c0.088,0.236,0.132,0.502,0.132,0.799
				c0,0.408-0.082,0.771-0.246,1.088s-0.385,0.581-0.661,0.793s-0.604,0.372-0.979,0.48
				C53.819,116.981,53.423,117.035,53.006,117.035z M53.09,115.821c0.209,0,0.403-0.027,0.584-0.084
				c0.18-0.056,0.338-0.138,0.475-0.246c0.136-0.108,0.244-0.238,0.324-0.391s0.12-0.32,0.12-0.505c0-0.216-0.054-0.402-0.162-0.559
				s-0.248-0.297-0.421-0.421c-0.172-0.124-0.364-0.234-0.576-0.33c-0.213-0.097-0.424-0.192-0.631-0.289
				c-0.345,0.185-0.625,0.411-0.841,0.68s-0.325,0.57-0.325,0.907c0,0.2,0.038,0.377,0.114,0.528
				c0.076,0.152,0.18,0.281,0.312,0.385c0.132,0.104,0.286,0.185,0.463,0.24C52.702,115.794,52.89,115.821,53.09,115.821z
				 M53.355,111.724c0.127-0.072,0.252-0.156,0.372-0.253c0.12-0.096,0.229-0.202,0.324-0.318c0.097-0.116,0.173-0.24,0.229-0.372
				c0.056-0.133,0.084-0.274,0.084-0.427c0-0.305-0.114-0.555-0.343-0.751c-0.228-0.196-0.51-0.295-0.847-0.295
				c-0.161,0-0.312,0.026-0.457,0.078c-0.144,0.052-0.27,0.126-0.378,0.223c-0.108,0.096-0.192,0.206-0.252,0.33
				s-0.09,0.259-0.09,0.402c0,0.177,0.038,0.333,0.114,0.469c0.076,0.137,0.176,0.261,0.301,0.373
				c0.124,0.112,0.268,0.212,0.433,0.301C53.008,111.571,53.179,111.651,53.355,111.724z"/>
			<path fill="#FFFFFF" d="M57.537,118.935c-0.152,0-0.216-0.072-0.192-0.217l0.373-1.826l-0.301-0.145
				c-0.088-0.04-0.148-0.086-0.18-0.139c-0.032-0.052-0.049-0.138-0.049-0.258v-0.926c0-0.152,0.08-0.229,0.241-0.229h1.262
				c0.168,0,0.252,0.076,0.252,0.229v0.638c0,0.28-0.02,0.511-0.06,0.69c-0.04,0.181-0.104,0.387-0.192,0.619l-0.493,1.346
				c-0.04,0.089-0.076,0.146-0.108,0.175c-0.031,0.027-0.092,0.042-0.18,0.042H57.537z"/>
			<path fill="#FFFFFF" d="M63.823,108.25c0.12,0,0.181,0.061,0.181,0.181v7.307h1.538c0.12,0,0.181,0.061,0.181,0.181v0.805
				c0,0.12-0.061,0.181-0.181,0.181h-4.688c-0.12,0-0.18-0.061-0.18-0.181v-0.805c0-0.12,0.06-0.181,0.18-0.181h1.671v-5.925
				l-1.538,0.805c-0.137,0.072-0.236,0.045-0.301-0.084l-0.337-0.673c-0.063-0.136-0.027-0.24,0.108-0.312l2.104-1.105
				c0.145-0.072,0.267-0.122,0.366-0.15c0.101-0.028,0.234-0.042,0.403-0.042H63.823z"/>
			<path fill="#FFFFFF" d="M70.12,117.023c-0.528,0-0.978-0.096-1.346-0.288c-0.369-0.192-0.667-0.459-0.896-0.8
				c-0.229-0.34-0.393-0.741-0.493-1.201c-0.1-0.461-0.15-0.964-0.15-1.509c0-0.713,0.072-1.38,0.217-2.001s0.358-1.16,0.643-1.616
				c0.284-0.457,0.644-0.817,1.076-1.082s0.938-0.396,1.514-0.396c0.329,0,0.632,0.044,0.908,0.132
				c0.276,0.089,0.526,0.201,0.751,0.337c0.063,0.04,0.102,0.08,0.114,0.12c0.012,0.04-0.006,0.112-0.055,0.217l-0.288,0.576
				c-0.056,0.12-0.152,0.145-0.288,0.072c-0.377-0.176-0.741-0.265-1.094-0.265c-0.321,0-0.595,0.064-0.823,0.192
				c-0.229,0.129-0.417,0.305-0.565,0.529s-0.264,0.488-0.349,0.793c-0.084,0.305-0.146,0.629-0.186,0.974
				c0.224-0.145,0.486-0.263,0.787-0.354c0.3-0.092,0.595-0.139,0.883-0.139c0.393,0,0.743,0.068,1.052,0.205
				c0.309,0.136,0.569,0.324,0.781,0.564s0.375,0.527,0.487,0.859c0.111,0.332,0.168,0.695,0.168,1.088
				c0,0.408-0.066,0.795-0.198,1.159c-0.133,0.365-0.321,0.682-0.565,0.95c-0.244,0.268-0.543,0.482-0.896,0.643
				S70.561,117.023,70.12,117.023z M70.168,115.821c0.209,0,0.395-0.046,0.56-0.138c0.164-0.092,0.302-0.215,0.414-0.367
				c0.112-0.151,0.198-0.33,0.259-0.534c0.06-0.204,0.09-0.423,0.09-0.655c0-0.457-0.106-0.841-0.318-1.153
				c-0.213-0.312-0.551-0.469-1.016-0.469c-0.232,0-0.477,0.034-0.733,0.102c-0.256,0.068-0.484,0.158-0.685,0.271v0.349
				c0,0.369,0.025,0.711,0.078,1.027c0.052,0.317,0.134,0.591,0.246,0.823s0.259,0.415,0.438,0.547
				C69.682,115.756,69.904,115.821,70.168,115.821z"/>
			<path fill="#FFFFFF" d="M85.071,115.653c0.12,0,0.18,0.061,0.18,0.181v0.889c0,0.12-0.06,0.181-0.18,0.181h-4.916
				c-0.088,0-0.146-0.014-0.174-0.042c-0.028-0.028-0.042-0.078-0.042-0.15v-0.577c0-0.456,0.09-0.873,0.27-1.25
				c0.181-0.376,0.407-0.725,0.68-1.045s0.564-0.621,0.877-0.901s0.605-0.553,0.878-0.817c0.271-0.265,0.498-0.529,0.679-0.793
				c0.181-0.265,0.271-0.545,0.271-0.842c0-0.385-0.116-0.671-0.349-0.859s-0.537-0.282-0.913-0.282
				c-0.321,0-0.627,0.056-0.92,0.168c-0.292,0.112-0.566,0.249-0.823,0.409c-0.12,0.072-0.216,0.052-0.288-0.061l-0.373-0.612
				c-0.04-0.072-0.05-0.131-0.03-0.175c0.021-0.044,0.07-0.098,0.15-0.162c0.305-0.232,0.667-0.421,1.088-0.565
				c0.421-0.144,0.848-0.216,1.28-0.216c0.929,0,1.626,0.24,2.091,0.721c0.185,0.201,0.329,0.436,0.433,0.703
				c0.104,0.269,0.156,0.575,0.156,0.92c0,0.36-0.088,0.703-0.265,1.027c-0.176,0.324-0.395,0.633-0.654,0.926
				c-0.261,0.292-0.547,0.576-0.859,0.853c-0.312,0.277-0.604,0.546-0.871,0.806c-0.269,0.261-0.499,0.521-0.691,0.781
				s-0.301,0.522-0.324,0.787H85.071z"/>
			<path fill="#FFFFFF" d="M89.71,117.023c-0.913,0-1.631-0.354-2.151-1.063s-0.781-1.78-0.781-3.215
				c0-1.507,0.272-2.652,0.817-3.438s1.314-1.178,2.308-1.178c0.913,0,1.631,0.353,2.151,1.058s0.781,1.778,0.781,3.221
				c0,1.499-0.271,2.643-0.812,3.432S90.712,117.023,89.71,117.023z M89.758,115.798c0.529,0,0.922-0.286,1.178-0.859
				c0.257-0.573,0.385-1.393,0.385-2.458c0-2.083-0.488-3.125-1.466-3.125c-0.529,0-0.922,0.285-1.178,0.854
				c-0.257,0.569-0.385,1.387-0.385,2.452C88.292,114.752,88.78,115.798,89.758,115.798z"/>
			<path fill="#FFFFFF" d="M97.618,108.25c0.12,0,0.181,0.061,0.181,0.181v7.307h1.538c0.12,0,0.181,0.061,0.181,0.181v0.805
				c0,0.12-0.061,0.181-0.181,0.181h-4.688c-0.12,0-0.18-0.061-0.18-0.181v-0.805c0-0.12,0.06-0.181,0.18-0.181h1.671v-5.925
				l-1.538,0.805c-0.137,0.072-0.236,0.045-0.301-0.084l-0.337-0.673c-0.063-0.136-0.027-0.24,0.108-0.312l2.104-1.105
				c0.145-0.072,0.267-0.122,0.366-0.15c0.101-0.028,0.234-0.042,0.403-0.042H97.618z"/>
			<path fill="#FFFFFF" d="M103.916,117.023c-0.528,0-0.978-0.096-1.346-0.288c-0.369-0.192-0.667-0.459-0.896-0.8
				c-0.229-0.34-0.393-0.741-0.493-1.201c-0.1-0.461-0.15-0.964-0.15-1.509c0-0.713,0.072-1.38,0.217-2.001s0.358-1.16,0.643-1.616
				c0.284-0.457,0.644-0.817,1.076-1.082s0.938-0.396,1.514-0.396c0.329,0,0.632,0.044,0.908,0.132
				c0.276,0.089,0.526,0.201,0.751,0.337c0.063,0.04,0.102,0.08,0.114,0.12c0.012,0.04-0.006,0.112-0.055,0.217l-0.288,0.576
				c-0.056,0.12-0.152,0.145-0.288,0.072c-0.377-0.176-0.741-0.265-1.094-0.265c-0.321,0-0.595,0.064-0.823,0.192
				c-0.229,0.129-0.417,0.305-0.565,0.529s-0.264,0.488-0.349,0.793c-0.084,0.305-0.146,0.629-0.186,0.974
				c0.224-0.145,0.486-0.263,0.787-0.354c0.3-0.092,0.595-0.139,0.883-0.139c0.393,0,0.743,0.068,1.052,0.205
				c0.309,0.136,0.569,0.324,0.781,0.564s0.375,0.527,0.487,0.859c0.111,0.332,0.168,0.695,0.168,1.088
				c0,0.408-0.066,0.795-0.198,1.159c-0.133,0.365-0.321,0.682-0.565,0.95c-0.244,0.268-0.543,0.482-0.896,0.643
				S104.356,117.023,103.916,117.023z M103.964,115.821c0.209,0,0.395-0.046,0.56-0.138c0.164-0.092,0.302-0.215,0.414-0.367
				c0.112-0.151,0.198-0.33,0.259-0.534c0.06-0.204,0.09-0.423,0.09-0.655c0-0.457-0.106-0.841-0.318-1.153
				c-0.213-0.312-0.551-0.469-1.016-0.469c-0.232,0-0.477,0.034-0.733,0.102c-0.256,0.068-0.484,0.158-0.685,0.271v0.349
				c0,0.369,0.025,0.711,0.078,1.027c0.052,0.317,0.134,0.591,0.246,0.823s0.259,0.415,0.438,0.547
				C103.478,115.756,103.7,115.821,103.964,115.821z"/>
		</g>
	</g>
</g>
<polygon fill="#F26722" points="42.533,29.274 42.533,26.047 41.276,26.047 41.276,23.264 39.984,23.264 39.984,20.523 
	38.64,20.523 38.64,17.557 37.629,17.557 37.629,15.374 33.694,15.374 33.694,17.557 32.683,17.557 32.683,20.523 31.339,20.523 
	31.339,23.264 30.047,23.264 30.047,26.047 28.79,26.047 28.79,29.274 28.164,29.274 28.164,60.99 43.159,60.99 43.159,29.274 "/>
<rect x="33.95" y="24.805" fill="#FFFFFF" width="1.634" height="1.634"/>
<rect x="33.95" y="23.016" fill="#FFFFFF" width="1.634" height="1.634"/>
<rect x="35.739" y="24.805" fill="#FFFFFF" width="1.634" height="1.634"/>
<rect x="35.739" y="23.016" fill="#FFFFFF" width="1.634" height="1.634"/>
<rect x="30.328" y="32.96" fill="#FFFFFF" width="1.634" height="1.634"/>
<rect x="30.328" y="31.172" fill="#FFFFFF" width="1.634" height="1.634"/>
<rect x="32.117" y="32.96" fill="#FFFFFF" width="1.634" height="1.634"/>
<rect x="32.117" y="31.172" fill="#FFFFFF" width="1.634" height="1.634"/>
<rect x="30.328" y="36.548" fill="#FFFFFF" width="1.634" height="1.635"/>
<rect x="30.328" y="34.76" fill="#FFFFFF" width="1.634" height="1.634"/>
<rect x="32.117" y="36.548" fill="#FFFFFF" width="1.634" height="1.635"/>
<rect x="32.117" y="34.76" fill="#FFFFFF" width="1.634" height="1.634"/>
<rect x="37.572" y="32.96" fill="#FFFFFF" width="1.634" height="1.634"/>
<rect x="37.572" y="31.172" fill="#FFFFFF" width="1.634" height="1.634"/>
<rect x="39.361" y="32.96" fill="#FFFFFF" width="1.634" height="1.634"/>
<rect x="39.361" y="31.172" fill="#FFFFFF" width="1.634" height="1.634"/>
<rect x="37.572" y="36.548" fill="#FFFFFF" width="1.634" height="1.635"/>
<rect x="37.572" y="34.76" fill="#FFFFFF" width="1.634" height="1.634"/>
<rect x="39.361" y="36.548" fill="#FFFFFF" width="1.634" height="1.635"/>
<rect x="39.361" y="34.76" fill="#FFFFFF" width="1.634" height="1.634"/>
<rect x="30.328" y="43.402" fill="#FFFFFF" width="1.634" height="1.634"/>
<rect x="30.328" y="41.613" fill="#FFFFFF" width="1.634" height="1.635"/>
<rect x="32.117" y="43.402" fill="#FFFFFF" width="1.634" height="1.634"/>
<rect x="32.117" y="41.613" fill="#FFFFFF" width="1.634" height="1.635"/>
<rect x="30.328" y="46.989" fill="#FFFFFF" width="1.634" height="1.635"/>
<rect x="30.328" y="45.202" fill="#FFFFFF" width="1.634" height="1.634"/>
<rect x="32.117" y="46.989" fill="#FFFFFF" width="1.634" height="1.635"/>
<rect x="32.117" y="45.202" fill="#FFFFFF" width="1.634" height="1.634"/>
<rect x="37.572" y="43.402" fill="#FFFFFF" width="1.634" height="1.634"/>
<rect x="37.572" y="41.613" fill="#FFFFFF" width="1.634" height="1.635"/>
<rect x="39.361" y="43.402" fill="#FFFFFF" width="1.634" height="1.634"/>
<rect x="39.361" y="41.613" fill="#FFFFFF" width="1.634" height="1.635"/>
<rect x="37.572" y="46.989" fill="#FFFFFF" width="1.634" height="1.635"/>
<rect x="37.572" y="45.202" fill="#FFFFFF" width="1.634" height="1.634"/>
<rect x="39.361" y="46.989" fill="#FFFFFF" width="1.634" height="1.635"/>
<rect x="39.361" y="45.202" fill="#FFFFFF" width="1.634" height="1.634"/>
<rect x="33.949" y="55.117" fill="#FFFFFF" width="3.423" height="5.874"/>
<polygon fill="#F26722" points="80.966,29.274 80.966,26.047 79.708,26.047 79.708,23.264 78.417,23.264 78.417,20.523 
	77.073,20.523 77.073,17.557 76.062,17.557 76.062,15.374 72.126,15.374 72.126,17.557 71.116,17.557 71.116,20.523 69.771,20.523 
	69.771,23.264 68.48,23.264 68.48,26.047 67.224,26.047 67.224,29.274 66.598,29.274 66.598,60.99 81.592,60.99 81.592,29.274 "/>
<rect x="72.383" y="24.805" fill="#FFFFFF" width="1.635" height="1.634"/>
<rect x="72.383" y="23.016" fill="#FFFFFF" width="1.635" height="1.634"/>
<rect x="74.172" y="24.805" fill="#FFFFFF" width="1.634" height="1.634"/>
<rect x="74.172" y="23.016" fill="#FFFFFF" width="1.634" height="1.634"/>
<rect x="68.761" y="32.96" fill="#FFFFFF" width="1.635" height="1.634"/>
<rect x="68.761" y="31.172" fill="#FFFFFF" width="1.635" height="1.634"/>
<rect x="70.55" y="32.96" fill="#FFFFFF" width="1.635" height="1.634"/>
<rect x="70.55" y="31.172" fill="#FFFFFF" width="1.635" height="1.634"/>
<rect x="68.761" y="36.548" fill="#FFFFFF" width="1.635" height="1.635"/>
<rect x="68.761" y="34.76" fill="#FFFFFF" width="1.635" height="1.634"/>
<rect x="70.55" y="36.548" fill="#FFFFFF" width="1.635" height="1.635"/>
<rect x="70.55" y="34.76" fill="#FFFFFF" width="1.635" height="1.634"/>
<rect x="76.005" y="32.96" fill="#FFFFFF" width="1.634" height="1.634"/>
<rect x="76.005" y="31.172" fill="#FFFFFF" width="1.634" height="1.634"/>
<rect x="77.794" y="32.96" fill="#FFFFFF" width="1.634" height="1.634"/>
<rect x="77.794" y="31.172" fill="#FFFFFF" width="1.634" height="1.634"/>
<rect x="76.005" y="36.548" fill="#FFFFFF" width="1.634" height="1.635"/>
<rect x="76.005" y="34.76" fill="#FFFFFF" width="1.634" height="1.634"/>
<rect x="77.794" y="36.548" fill="#FFFFFF" width="1.634" height="1.635"/>
<rect x="77.794" y="34.76" fill="#FFFFFF" width="1.634" height="1.634"/>
<rect x="68.761" y="43.402" fill="#FFFFFF" width="1.635" height="1.634"/>
<rect x="68.761" y="41.613" fill="#FFFFFF" width="1.635" height="1.635"/>
<rect x="70.55" y="43.402" fill="#FFFFFF" width="1.635" height="1.634"/>
<rect x="70.55" y="41.613" fill="#FFFFFF" width="1.635" height="1.635"/>
<rect x="68.761" y="46.989" fill="#FFFFFF" width="1.635" height="1.635"/>
<rect x="68.761" y="45.202" fill="#FFFFFF" width="1.635" height="1.634"/>
<rect x="70.55" y="46.989" fill="#FFFFFF" width="1.635" height="1.635"/>
<rect x="70.55" y="45.202" fill="#FFFFFF" width="1.635" height="1.634"/>
<rect x="76.005" y="43.402" fill="#FFFFFF" width="1.634" height="1.634"/>
<rect x="76.005" y="41.613" fill="#FFFFFF" width="1.634" height="1.635"/>
<rect x="77.794" y="43.402" fill="#FFFFFF" width="1.634" height="1.634"/>
<rect x="77.794" y="41.613" fill="#FFFFFF" width="1.634" height="1.635"/>
<rect x="76.005" y="46.989" fill="#FFFFFF" width="1.634" height="1.635"/>
<rect x="76.005" y="45.202" fill="#FFFFFF" width="1.634" height="1.634"/>
<rect x="77.794" y="46.989" fill="#FFFFFF" width="1.634" height="1.635"/>
<rect x="77.794" y="45.202" fill="#FFFFFF" width="1.634" height="1.634"/>
<rect x="72.383" y="55.117" fill="#FFFFFF" width="3.423" height="5.874"/>
<path fill="#F26722" d="M66.847,49.048h-1.371v-0.317c0-0.096-0.079-0.175-0.174-0.175H65.26c-0.097,0-0.176,0.079-0.176,0.175
	v0.317h-1.076v-0.317c0-0.096-0.078-0.175-0.175-0.175H63.79c-0.096,0-0.175,0.079-0.175,0.175v0.317h-1.076v-0.317
	c0-0.096-0.079-0.175-0.174-0.175h-0.043c-0.096,0-0.174,0.079-0.174,0.175v0.317h-1.077v-0.317c0-0.096-0.079-0.175-0.175-0.175
	h-0.042c-0.097,0-0.175,0.079-0.175,0.175v0.317h-1.078v-0.317c0-0.096-0.077-0.175-0.175-0.175h-0.041
	c-0.096,0-0.175,0.079-0.175,0.175v0.317h-1.077v-0.317c0-0.096-0.078-0.175-0.175-0.175h-0.042c-0.095,0-0.174,0.079-0.174,0.175
	v0.317h-1.077v-0.317c0-0.096-0.079-0.175-0.175-0.175h-0.042c-0.097,0-0.176,0.079-0.176,0.175v0.317h-1.076v-0.317
	c0-0.096-0.078-0.175-0.175-0.175H54.98c-0.097,0-0.175,0.079-0.175,0.175v0.317h-1.076v-0.317c0-0.096-0.079-0.175-0.175-0.175
	h-0.042c-0.097,0-0.176,0.079-0.176,0.175v0.317h-1.076v-0.317c0-0.096-0.079-0.175-0.175-0.175h-0.042
	c-0.096,0-0.175,0.079-0.175,0.175v0.317h-1.077v-0.317c0-0.096-0.078-0.175-0.174-0.175h-0.042c-0.096,0-0.175,0.079-0.175,0.175
	v0.317h-1.077v-0.317c0-0.096-0.079-0.175-0.175-0.175h-0.041c-0.096,0-0.175,0.079-0.175,0.175v0.317h-1.077v-0.317
	c0-0.096-0.079-0.175-0.174-0.175h-0.042c-0.096,0-0.175,0.079-0.175,0.175v0.317h-1.077v-0.317c0-0.096-0.079-0.175-0.175-0.175
	h-0.041c-0.097,0-0.175,0.079-0.175,0.175v0.317h-1.077v-0.317c0-0.096-0.079-0.175-0.175-0.175h-0.042
	c-0.096,0-0.175,0.079-0.175,0.175v0.317h-1.696c-0.054,0-0.098,0.044-0.098,0.098c0,0.053,0.044,0.098,0.098,0.098h1.696v1.598
	h-1.368V60.99h0.012c0.263-4.347,5.403-7.816,11.707-7.816c6.304,0,11.442,3.469,11.707,7.816h0.013V50.842h-1.122v-1.598h1.371
	c0.054,0,0.098-0.045,0.098-0.098C66.944,49.092,66.9,49.048,66.847,49.048 M63.615,50.842h-1.076v-1.599h1.076V50.842z
	 M62.148,50.842h-1.077v-1.599h1.077V50.842z M60.68,50.842h-1.078v-1.599h1.078V50.842z M59.211,50.842h-1.077v-1.599h1.077V50.842
	z M57.743,50.842h-1.077v-1.599h1.077V50.842z M56.273,50.842h-1.076v-1.599h1.076V50.842z M54.806,50.842h-1.077v-1.599h1.077
	V50.842z M53.337,50.842h-1.076v-1.599h1.076V50.842z M51.869,50.842h-1.077v-1.599h1.077V50.842z M50.401,50.842h-1.077v-1.599
	h1.077V50.842z M48.933,50.842h-1.077v-1.599h1.077V50.842z M47.464,50.842h-1.077v-1.599h1.077V50.842z M44.919,49.245h1.077v1.599
	h-1.077V49.245z M65.084,50.842h-1.076v-1.599h1.076V50.842z"/>
<polygon fill="#F26722" points="96.885,29.274 96.885,26.047 95.627,26.047 95.627,23.264 94.336,23.264 94.336,20.523 
	92.992,20.523 92.992,17.557 91.98,17.557 91.98,15.374 88.046,15.374 88.046,17.557 87.036,17.557 87.036,20.523 85.69,20.523 
	85.69,23.264 84.398,23.264 84.398,26.047 83.143,26.047 83.143,29.274 82.517,29.274 82.517,60.99 97.511,60.99 97.511,29.274 "/>
<rect x="88.302" y="24.805" fill="#FFFFFF" width="1.635" height="1.634"/>
<rect x="88.302" y="23.016" fill="#FFFFFF" width="1.635" height="1.634"/>
<rect x="90.091" y="24.805" fill="#FFFFFF" width="1.635" height="1.634"/>
<rect x="90.091" y="23.016" fill="#FFFFFF" width="1.635" height="1.634"/>
<rect x="84.681" y="32.96" fill="#FFFFFF" width="1.634" height="1.634"/>
<rect x="84.681" y="31.172" fill="#FFFFFF" width="1.634" height="1.634"/>
<rect x="86.469" y="32.96" fill="#FFFFFF" width="1.635" height="1.634"/>
<rect x="86.469" y="31.172" fill="#FFFFFF" width="1.635" height="1.634"/>
<rect x="84.681" y="36.548" fill="#FFFFFF" width="1.634" height="1.635"/>
<rect x="84.681" y="34.76" fill="#FFFFFF" width="1.634" height="1.634"/>
<rect x="86.469" y="36.548" fill="#FFFFFF" width="1.635" height="1.635"/>
<rect x="86.469" y="34.76" fill="#FFFFFF" width="1.635" height="1.634"/>
<rect x="91.924" y="32.96" fill="#FFFFFF" width="1.634" height="1.634"/>
<rect x="91.924" y="31.172" fill="#FFFFFF" width="1.634" height="1.634"/>
<rect x="93.713" y="32.96" fill="#FFFFFF" width="1.634" height="1.634"/>
<rect x="93.713" y="31.172" fill="#FFFFFF" width="1.634" height="1.634"/>
<rect x="91.924" y="36.548" fill="#FFFFFF" width="1.634" height="1.635"/>
<rect x="91.924" y="34.76" fill="#FFFFFF" width="1.634" height="1.634"/>
<rect x="93.713" y="36.548" fill="#FFFFFF" width="1.634" height="1.635"/>
<rect x="93.713" y="34.76" fill="#FFFFFF" width="1.634" height="1.634"/>
<rect x="84.681" y="43.402" fill="#FFFFFF" width="1.634" height="1.634"/>
<rect x="84.681" y="41.613" fill="#FFFFFF" width="1.634" height="1.635"/>
<rect x="86.469" y="43.402" fill="#FFFFFF" width="1.635" height="1.634"/>
<rect x="86.469" y="41.613" fill="#FFFFFF" width="1.635" height="1.635"/>
<rect x="84.681" y="46.989" fill="#FFFFFF" width="1.634" height="1.635"/>
<rect x="84.681" y="45.202" fill="#FFFFFF" width="1.634" height="1.634"/>
<rect x="86.469" y="46.989" fill="#FFFFFF" width="1.635" height="1.635"/>
<rect x="86.469" y="45.202" fill="#FFFFFF" width="1.635" height="1.634"/>
<rect x="91.924" y="43.402" fill="#FFFFFF" width="1.634" height="1.634"/>
<rect x="91.924" y="41.613" fill="#FFFFFF" width="1.634" height="1.635"/>
<rect x="93.713" y="43.402" fill="#FFFFFF" width="1.634" height="1.634"/>
<rect x="93.713" y="41.613" fill="#FFFFFF" width="1.634" height="1.635"/>
<rect x="91.924" y="46.989" fill="#FFFFFF" width="1.634" height="1.635"/>
<rect x="91.924" y="45.202" fill="#FFFFFF" width="1.634" height="1.634"/>
<rect x="93.713" y="46.989" fill="#FFFFFF" width="1.634" height="1.635"/>
<rect x="93.713" y="45.202" fill="#FFFFFF" width="1.634" height="1.634"/>
<rect x="88.302" y="55.117" fill="#FFFFFF" width="3.424" height="5.874"/>
<path fill="#F26722" d="M11.616,56.669c-0.096,0.126-0.19,0.248-0.284,0.369c-0.249,0.314-0.489,0.638-0.75,0.942
	c-0.28,0.327-0.581,0.64-0.807,1.008c-0.122,0.197-0.156,0.423-0.112,0.657c0.038,0.206,0.07,0.414,0.1,0.621
	c0.02,0.137,0.139,0.228,0.278,0.191c0.19-0.049,0.354,0.003,0.513,0.108c0.052,0.036,0.12,0.048,0.173,0.083
	c0.071,0.047,0.135,0.106,0.203,0.162c-0.136,0.112-0.252,0.213-0.375,0.304c-0.027,0.02-0.085,0.012-0.124,0
	c-0.109-0.033-0.208-0.051-0.32,0.003c-0.061,0.027-0.145,0.003-0.218,0.004c-0.165,0.002-0.332-0.002-0.496,0.01
	c-0.14,0.01-0.296-0.102-0.327-0.254c-0.04-0.194-0.115-0.326-0.298-0.509c-0.033,0.104-0.068,0.196-0.093,0.294
	c-0.047,0.177-0.141,0.321-0.281,0.439c-0.079,0.065-0.149,0.142-0.227,0.208c-0.065,0.057-0.121,0.066-0.117-0.042
	c-0.116,0.026-0.227,0.051-0.332,0.074C7.7,61.307,7.68,61.272,7.653,61.229c0.018-0.02,0.05-0.053,0.096-0.101H7.596
	c-0.003-0.008-0.006-0.017-0.009-0.023c0.03-0.022,0.062-0.046,0.091-0.069c-0.005-0.01-0.011-0.021-0.016-0.031
	c-0.083,0.044-0.166,0.09-0.249,0.134c-0.007-0.01-0.015-0.019-0.022-0.029c0.09-0.092,0.18-0.183,0.269-0.274
	c-0.004-0.006-0.008-0.01-0.012-0.016c-0.111,0.069-0.222,0.138-0.333,0.207c-0.008-0.008-0.014-0.016-0.021-0.022
	c0.051-0.075,0.104-0.15,0.156-0.226c-0.005-0.008-0.01-0.015-0.015-0.021c-0.079,0.061-0.156,0.121-0.235,0.181
	c-0.007-0.002-0.014-0.004-0.021-0.007c0.026-0.073,0.044-0.15,0.079-0.219c0.071-0.141,0.086-0.284,0.083-0.437
	c-0.004-0.313,0.295-0.614,0.604-0.606c0.111,0.003,0.188-0.024,0.243-0.125c0.108-0.19,0.23-0.37,0.332-0.562
	c0.037-0.067,0.032-0.157,0.042-0.237c0.017-0.117,0.016-0.237,0.049-0.35c0.023-0.079,0.092-0.144,0.136-0.218
	c0.024-0.038,0.049-0.079,0.057-0.122c0.031-0.165,0.056-0.332,0.083-0.497c0.01-0.062,0.024-0.124,0.029-0.185
	c0.014-0.206,0.032-0.411,0.037-0.618c0.011-0.53,0.026-1.06,0.018-1.59c-0.008-0.498,0.055-0.99,0.156-1.473
	c0.093-0.448,0.279-0.869,0.604-1.209c0.26-0.273,0.563-0.481,0.918-0.618c0.355-0.136,0.71-0.263,1.091-0.313
	c0.265-0.035,0.534-0.063,0.796-0.121c0.336-0.075,0.675-0.074,1.011-0.028c0.43,0.059,0.856,0.148,1.284,0.219
	c0.167,0.027,0.336,0.045,0.505,0.055c0.275,0.016,0.552,0.022,0.829,0.032c0.163,0.007,0.325,0.018,0.487,0.019
	c0.048,0,0.109-0.014,0.141-0.045c0.116-0.113,0.25-0.167,0.409-0.176c0.029,0,0.055-0.032,0.083-0.051
	c0.081-0.055,0.161-0.112,0.249-0.173c-0.009-0.011-0.023-0.028-0.054-0.07c0.094-0.05,0.185-0.098,0.275-0.147
	c0.092-0.051,0.186-0.1,0.274-0.157c0.149-0.097,0.297-0.201,0.445-0.304c0.03-0.02,0.056-0.047,0.084-0.072
	c-0.027-0.023-0.053-0.048-0.083-0.069c-0.02-0.014-0.045-0.022-0.077-0.037c0.202-0.134,0.399-0.263,0.594-0.392
	c-0.031-0.09,0.077-0.201,0.181-0.201c0.026,0,0.068,0.003,0.078-0.012c0.075-0.107,0.194-0.122,0.306-0.156
	c0.102-0.033,0.197-0.087,0.299-0.12c0.057-0.019,0.121-0.016,0.182-0.021c0.03-0.002,0.064,0.01,0.087-0.003
	c0.222-0.111,0.465-0.088,0.699-0.121c0.054-0.007,0.109-0.032,0.156-0.062c0.197-0.122,0.379-0.273,0.619-0.316
	c0.048-0.009,0.1-0.045,0.136-0.083c0.136-0.146,0.265-0.302,0.401-0.45c0.068-0.074,0.143-0.143,0.222-0.207
	c0.026-0.021,0.074-0.029,0.111-0.024c0.125,0.014,0.25,0.051,0.375,0.049c0.122-0.001,0.244-0.038,0.368-0.061
	c-0.042-0.115,0.17-0.206,0.275-0.125c0.034,0.026,0.058,0.064,0.097,0.109c0.023-0.052,0.041-0.091,0.075-0.165
	c0.024,0.078,0.04,0.13,0.063,0.204c0.014,0.006,0.057,0.024,0.123,0.051c-0.041-0.103-0.074-0.189-0.108-0.274l0.026-0.029
	c0.078,0.036,0.156,0.071,0.253,0.115c0.104-0.039,0.119-0.03,0.249,0.181c0.039-0.012,0.079-0.025,0.119-0.037
	c0.028,0.142,0.206,0.25,0.104,0.434c0.044-0.049,0.089-0.099,0.134-0.148c0.005,0.002,0.012,0.006,0.017,0.009
	c-0.007,0.019-0.02,0.038-0.023,0.059c-0.005,0.029-0.003,0.061-0.003,0.092c0.032-0.007,0.067-0.008,0.097-0.022
	c0.039-0.019,0.074-0.046,0.13-0.055c-0.069,0.101-0.114,0.195-0.04,0.308c0.022-0.013,0.046-0.026,0.073-0.042
	c0.008,0.009,0.018,0.016,0.02,0.024c0.011,0.054,0.033,0.109,0.027,0.161c-0.018,0.147,0.026,0.281,0.072,0.417
	c0.011,0.035,0.037,0.073,0.03,0.104c-0.036,0.162,0.078,0.235,0.179,0.318c0.103,0.085,0.144,0.197,0.146,0.332
	c0.002,0.068,0.025,0.142,0.06,0.2c0.081,0.141,0.139,0.28,0.129,0.448c-0.005,0.072,0.031,0.162,0.078,0.219
	c0.156,0.187,0.323,0.365,0.491,0.542c0.142,0.15,0.153,0.234,0.066,0.416c-0.063,0.131-0.116,0.268-0.169,0.405
	c-0.068,0.176-0.133,0.355-0.199,0.532c-0.011,0.031-0.025,0.062-0.032,0.094c-0.05,0.238-0.281,0.377-0.512,0.303
	c-0.066-0.022-0.128-0.05-0.191-0.08c-0.066-0.031-0.125,0.012-0.125,0.099c0,0.066,0.027,0.134,0.016,0.198
	c-0.049,0.283-0.106,0.565-0.162,0.848c-0.017,0.086-0.059,0.172-0.055,0.256c0.007,0.167-0.121,0.251-0.196,0.373
	c-0.025-0.015-0.046-0.027-0.08-0.047c-0.019,0.067-0.037,0.127-0.057,0.196c-0.027-0.021-0.049-0.039-0.083-0.063
	c-0.087,0.117-0.172,0.231-0.259,0.35c-0.002-0.005-0.011-0.017-0.017-0.031c-0.005-0.012-0.009-0.025-0.018-0.048
	c-0.084,0.105-0.161,0.203-0.242,0.304c-0.008-0.014-0.02-0.033-0.031-0.05c-0.227,0.072-0.202,0.319-0.302,0.455
	c-0.04-0.031-0.074-0.059-0.108-0.086c-0.043,0.056-0.117,0.109-0.125,0.17c-0.02,0.147,0,0.301-0.014,0.45
	c-0.007,0.078-0.054,0.151-0.079,0.227c-0.026,0.084-0.047,0.171-0.075,0.256c-0.011,0.034-0.034,0.064-0.076,0.089
	c-0.006-0.038-0.012-0.075-0.018-0.114c-0.08,0.042-0.078,0.042-0.065,0.195c0.006,0.078,0.002,0.158,0.002,0.237
	c-0.012,0.001-0.023,0.001-0.035,0.002c-0.016-0.042-0.033-0.083-0.049-0.124l-0.032-0.005c-0.048,0.151-0.041,0.332-0.204,0.457
	c0.036-0.098,0.048-0.168-0.083-0.194c-0.011,0.051-0.041,0.109-0.03,0.155c0.038,0.146,0.001,0.25-0.132,0.32
	c-0.008-0.034-0.017-0.072-0.03-0.132c-0.063,0.109-0.113,0.195-0.171,0.294c-0.022-0.035-0.031-0.052-0.047-0.079
	c-0.117,0.091-0.148,0.272-0.303,0.319v-0.315c-0.105,0.079-0.179,0.155-0.219,0.281c-0.019,0.063-0.057,0.169-0.143,0.188
	c-0.02-0.071-0.034-0.124-0.053-0.194c0.019-0.023,0.052-0.064,0.086-0.106c-0.005-0.008-0.009-0.016-0.014-0.025
	c-0.052,0.022-0.105,0.044-0.159,0.069c0.038-0.108,0.073-0.21,0.112-0.318c-0.086-0.017-0.103,0.032-0.122,0.087
	c-0.03,0.085-0.073,0.167-0.101,0.252c-0.025,0.07-0.047,0.143-0.052,0.216c-0.021,0.244,0.013,0.488-0.047,0.735
	c-0.04,0.168-0.042,0.361,0.058,0.524c0.028,0.045,0.093,0.088,0.146,0.095c0.323,0.041,0.607,0.284,0.683,0.601
	c0.031,0.128-0.042,0.232-0.175,0.234c-0.468,0.01-0.936,0.017-1.403,0.021c-0.157,0.002-0.169-0.014-0.209-0.17
	c-0.01-0.036-0.018-0.072-0.022-0.108c-0.025-0.191-0.037-0.387-0.076-0.576c-0.037-0.182-0.103-0.359-0.153-0.539
	c-0.035-0.124-0.052-0.254-0.099-0.371c-0.034-0.082-0.107-0.147-0.162-0.221c-0.017-0.021-0.042-0.042-0.049-0.067
	c-0.025-0.091-0.044-0.183-0.065-0.269c-0.31,0.114-0.378,0.401-0.524,0.628c-0.088-0.042-0.116-0.101-0.125-0.179
	c-0.025-0.222-0.055-0.443-0.083-0.666c-0.135-0.011-0.153-0.048-0.123-0.185c0.017-0.07,0.006-0.15-0.004-0.225
	c-0.009-0.069-0.049-0.118-0.141-0.087c0.004-0.028,0.001-0.048,0.009-0.062c0.081-0.13,0.057-0.19-0.092-0.224
	c-0.088-0.021-0.177-0.046-0.265-0.07c-0.011-0.003-0.023-0.006-0.033-0.003c-0.124,0.038-0.246,0.08-0.371,0.115
	c-0.072,0.02-0.15,0.028-0.241,0.043c0.015,0.066,0.029,0.13,0.052,0.229c-0.054-0.05-0.086-0.078-0.126-0.116
	c0.003,0.033,0.004,0.056,0.009,0.112c-0.139-0.118-0.194-0.262-0.278-0.399c-0.018,0.019-0.038,0.037-0.05,0.05
	c-0.126-0.095-0.139,0.112-0.237,0.079c-0.023-0.053-0.295-0.048-0.331,0.016c-0.018,0.033-0.025,0.072-0.038,0.107
	c-0.014,0.002-0.027,0.004-0.042,0.006c-0.031-0.114-0.062-0.227-0.1-0.368c-0.064,0.075-0.121,0.142-0.18,0.211
	c-0.016-0.044-0.034-0.094-0.052-0.146l-0.038-0.03c-0.032,0.048-0.063,0.096-0.097,0.147c-0.035-0.022-0.067-0.045-0.1-0.064
	c-0.075-0.042-0.135-0.024-0.197,0.036c-0.04,0.04-0.1,0.059-0.157,0.073c0.065-0.137,0.179-0.238,0.173-0.42
	c-0.073,0.064-0.124,0.108-0.175,0.153c-0.011-0.009-0.021-0.018-0.034-0.025c0.019-0.044,0.038-0.087,0.061-0.142
	c-0.023-0.031-0.052-0.072-0.074-0.102c-0.042,0.062-0.079,0.117-0.116,0.17c-0.02-0.013-0.04-0.029-0.06-0.044
	c-0.003-0.056-0.007-0.113-0.011-0.168c-0.101,0.136-0.229,0.222-0.408,0.271c0.021-0.071,0.037-0.121,0.052-0.174
	c-0.267,0.005-0.046-0.193-0.129-0.272c-0.088,0.047-0.176,0.095-0.256,0.138c-0.047-0.035-0.088-0.067-0.128-0.097
	c0.002-0.003,0.005-0.007,0.006-0.01c-0.042-0.034-0.09-0.064-0.126-0.104c-0.027-0.031-0.04-0.075-0.06-0.113
	c-0.139-0.018-0.173,0.082-0.188,0.193c-0.189-0.112-0.126-0.274-0.11-0.422c-0.129,0.009-0.129,0.009-0.138,0.168
	c-0.07-0.042-0.116-0.175-0.085-0.25c0.032-0.079,0.032-0.079-0.052-0.146c-0.04,0.11-0.083,0.214-0.113,0.321
	c-0.077,0.273-0.154,0.545-0.217,0.821c-0.048,0.208-0.071,0.421-0.107,0.631c-0.009,0.054-0.022,0.108-0.043,0.159
	c-0.198,0.484-0.209,0.977-0.049,1.469c0.041,0.128,0.141,0.24,0.229,0.348c0.091,0.111,0.198,0.208,0.299,0.312
	c0.054,0.056,0.116,0.07,0.19,0.04c0.092-0.037,0.186-0.07,0.278-0.105c0.162-0.062,0.293,0.021,0.427,0.088
	c0.17,0.084,0.299,0.209,0.365,0.395c0.013,0.035,0.046,0.065,0.073,0.096c0.079,0.089,0.064,0.141-0.054,0.16
	c-0.124,0.022-0.249,0.042-0.373,0.047c-0.373,0.013-0.746,0.013-1.119,0.027c-0.164,0.007-0.272-0.067-0.367-0.186
	c-0.02-0.022-0.044-0.05-0.072-0.058c-0.31-0.088-0.555-0.271-0.735-0.528c-0.089-0.127-0.133-0.283-0.196-0.426
	c-0.106-0.24-0.226-0.474-0.314-0.72c-0.064-0.176-0.117-0.361-0.046-0.56c0.058-0.163,0.104-0.333,0.126-0.503
	c0.019-0.15,0.017-0.312-0.016-0.459c-0.069-0.316-0.164-0.626-0.25-0.938C11.649,56.7,11.638,56.693,11.616,56.669 M9.475,56.428
	c0.004,0.001,0.008,0.003,0.012,0.005c0.017-0.045,0.043-0.091,0.049-0.138c0.029-0.245,0.062-0.49,0.075-0.736
	c0.039-0.673,0.042-1.349,0.201-2.011c0.01-0.045,0.001-0.094,0.001-0.141c-0.029,0.022-0.042,0.044-0.051,0.068
	c-0.127,0.379-0.198,0.769-0.224,1.167c-0.024,0.394-0.046,0.788-0.063,1.182C9.468,56.024,9.475,56.226,9.475,56.428"/>
<path fill="#F26722" d="M9.475,56.428c0-0.202-0.007-0.404,0.001-0.604c0.017-0.394,0.039-0.788,0.063-1.182
	c0.026-0.398,0.097-0.788,0.224-1.167c0.009-0.024,0.021-0.046,0.051-0.068c0,0.047,0.009,0.096-0.001,0.141
	c-0.16,0.662-0.163,1.338-0.201,2.011c-0.013,0.246-0.046,0.492-0.075,0.736c-0.006,0.047-0.033,0.093-0.049,0.138
	C9.483,56.431,9.479,56.429,9.475,56.428"/>
<path fill="#F26722" d="M120.798,60.212c-0.052-0.183-0.137-0.356-0.173-0.54c-0.161-0.832-0.341-1.663-0.456-2.501
	c-0.104-0.737-0.15-1.483,0.023-2.222c0.019-0.082,0.002-0.187-0.035-0.263c-0.104-0.21-0.251-0.402-0.337-0.617
	c-0.355-0.885-0.448-1.808-0.339-2.75c0.059-0.494,0.138-0.983,0.209-1.475c0.005-0.026,0.024-0.05,0.055-0.112
	c0.202,0.638,0.337,1.245,0.337,1.876c0,0.168-0.022,0.335-0.049,0.501c-0.025,0.169-0.108,0.341-0.092,0.505
	c0.04,0.44,0.173,0.868,0.419,1.231c0.146,0.216,0.219,0.416,0.199,0.665c-0.004,0.04,0.037,0.083,0.058,0.124
	c0.034-0.035,0.087-0.065,0.097-0.105c0.033-0.165,0.088-0.336,0.074-0.5c-0.047-0.532-0.112-1.064-0.191-1.593
	c-0.018-0.117-0.125-0.219-0.184-0.332c-0.05-0.095-0.125-0.195-0.129-0.295c-0.018-0.456-0.008-0.914-0.021-1.371
	c-0.014-0.488-0.005-0.981-0.068-1.463c-0.065-0.487-0.341-0.879-0.71-1.209c-0.263-0.232-0.551-0.461-0.738-0.75
	c-0.347-0.533-0.821-0.848-1.415-1.003c-0.372-0.097-0.766-0.123-1.128-0.246c-1.173-0.396-2.037-1.205-2.733-2.191
	c-0.224-0.318-0.483-0.514-0.829-0.632c-0.123-0.042-0.258-0.055-0.374-0.111c-0.651-0.312-1.323-0.591-1.943-0.958
	c-1.566-0.924-2.9-2.116-3.935-3.622c-0.239-0.35-0.421-0.739-0.663-1.085c-0.261-0.373-0.569-0.712-0.846-1.075
	c-0.127-0.168-0.258-0.328-0.416-0.448c0.254-0.18,0.434-0.346,0.271-0.364c-0.161-0.018-0.436,0.067-0.696,0.17
	c-0.024-0.005-0.05-0.009-0.077-0.012c-0.016-0.002-0.031-0.022-0.047-0.033c-0.13-0.083-0.192-0.177-0.169-0.355
	c0.034-0.255-0.043-0.888-0.043-0.888s-0.166-0.217-0.196,0c-0.162,0.289-0.283,0.679-0.426,0.976
	c-0.129,0.267-0.471,0.504-0.763,0.473c-0.141-0.015-0.224,0.055-0.251,0.166c-0.106,0.43-0.42,0.712-0.7,1.02
	c-0.092,0.101-0.181,0.207-0.281,0.299c-0.284,0.256-0.511,0.553-0.665,0.905v0.471c0.068,0.015,0,0.093,0.2,0.038
	c0.163-0.124,0.331-0.044,0.498-0.041c0.096,0.002,0.195-0.019,0.283-0.051c0.301-0.113,0.602-0.232,0.93-0.206
	c0.333,0.029,0.633-0.051,0.908-0.238c0.153-0.104,0.306-0.082,0.464-0.011c0.259,0.115,0.39,0.339,0.491,0.584
	c0.5,1.2,1.058,2.371,1.737,3.48c0.819,1.34,1.745,2.586,3.023,3.538c0.284,0.211,0.521,0.493,0.746,0.771
	c0.287,0.354,0.331,0.757,0.117,1.173c-0.078,0.151-0.142,0.311-0.235,0.451c-0.204,0.311-0.225,0.646-0.175,0.998
	c0.062,0.455,0.256,0.863,0.477,1.256c0.157,0.28,0.18,0.568,0.145,0.872c-0.146,1.284-0.56,2.49-1.034,3.683
	c-0.117,0.294-0.205,0.606-0.257,0.918c-0.127,0.774-0.209,1.553-0.344,2.326c-0.125,0.713-0.284,1.42-0.446,2.126
	c-0.073,0.32-0.095,0.687-0.478,0.837c-0.012,0.005-0.021,0.017-0.028,0.028c-0.097,0.117-0.062,0.232,0.09,0.254
	c0.174,0.025,0.35,0.039,0.526,0.053c0.182,0.017,0.287-0.051,0.331-0.246c0.027-0.125,0.123-0.233,0.188-0.353
	c0.062-0.114,0.157-0.226,0.179-0.349c0.057-0.34,0.057-0.69,0.126-1.027c0.205-0.99,0.431-1.978,0.655-2.963
	c0.033-0.144,0.07-0.31,0.164-0.411c0.146-0.156,0.198-0.328,0.231-0.524c0.026-0.153,0.05-0.312,0.113-0.452
	c0.142-0.315,0.295-0.626,0.468-0.925c0.266-0.461,0.553-0.911,0.83-1.365c0.02,0,0.039,0,0.058,0
	c0.113,0.433,0.214,0.869,0.34,1.298c0.233,0.792,0.205,1.65,0.598,2.402c0.016,0.028,0.02,0.062,0.023,0.094
	c0.159,1.19,0.324,2.38,0.468,3.573c0.028,0.243,0.026,0.512-0.315,0.605c-0.07,0.019-0.132,0.203-0.125,0.307
	c0.003,0.051,0.169,0.129,0.264,0.13c0.22,0.001,0.44-0.032,0.66-0.062c0.039-0.005,0.099-0.047,0.106-0.082
	c0.021-0.105,0.012-0.218,0.034-0.325c0.018-0.076,0.064-0.146,0.1-0.219c0.044-0.088,0.137-0.18,0.125-0.257
	c-0.058-0.407-0.155-0.809-0.215-1.214c-0.144-0.982-0.263-1.969-0.247-2.965c0.004-0.163,0.048-0.33,0.023-0.486
	c-0.19-1.186-0.391-2.37-0.597-3.553c-0.021-0.116,0.013-0.167,0.096-0.224c0.283-0.188,0.574-0.164,0.883-0.07
	c0.682,0.207,1.372,0.275,2.062,0.036c0.292-0.101,0.571-0.235,0.864-0.356c0.051,0.198,0.101,0.401,0.157,0.601
	c0.269,0.935,0.507,1.879,0.818,2.798c0.24,0.712,0.354,1.429,0.321,2.172c-0.023,0.529-0.052,1.057-0.093,1.583
	c-0.037,0.488-0.085,0.977-0.144,1.462c-0.035,0.281-0.123,0.55-0.369,0.731c-0.053,0.038-0.123,0.065-0.155,0.116
	c-0.052,0.085-0.114,0.189-0.102,0.275c0.008,0.053,0.146,0.117,0.229,0.121c0.175,0.008,0.352-0.015,0.526-0.034
	c0.13-0.017,0.256-0.037,0.296-0.205c0.011-0.046,0.108-0.093,0.172-0.1c0.146-0.016,0.182-0.097,0.185-0.226
	c0.019-0.743,0.013-1.49,0.068-2.232c0.062-0.852,0.179-1.699,0.276-2.547c0.011-0.083,0.056-0.162,0.084-0.243
	c0.024-0.001,0.05-0.002,0.075-0.003c0.202,0.701,0.423,1.396,0.599,2.103c0.217,0.87,0.344,1.757,0.372,2.655
	c0.008,0.294,0.062,0.602-0.142,0.869c-0.019,0.023,0.021,0.12,0.059,0.148c0.049,0.035,0.124,0.029,0.188,0.048
	c0.572,0.164,0.697-0.094,0.625-0.536c-0.013-0.08,0.025-0.218,0.086-0.252C120.876,60.524,120.842,60.37,120.798,60.212"/>
<line fill="none" x1="-19.083" y1="-11.333" x2="328.148" y2="-11.333"/>
<line fill="none" x1="-19.083" y1="-11.333" x2="328.148" y2="-11.333"/>
<line fill="none" x1="328.148" y1="-11.333" x2="-19.083" y2="-11.333"/>
<g>
</g>
<g>
</g>
<g>
</g>
<g>
</g>
<g>
</g>
<g>
</g>
</svg>
