<?xml version="1.0" encoding="utf-8"?>
<!-- Generator: Adobe Illustrator 16.0.4, SVG Export Plug-In . SVG Version: 6.00 Build 0)  -->
<!DOCTYPE svg PUBLIC "-//W3C//DTD SVG 1.1//EN" "http://www.w3.org/Graphics/SVG/1.1/DTD/svg11.dtd">
<svg version="1.1" id="Layer_1" xmlns="http://www.w3.org/2000/svg" xmlns:xlink="http://www.w3.org/1999/xlink" x="0px" y="0px"
	 width="61.691px" height="130.093px" viewBox="0 0 61.691 130.093" enable-background="new 0 0 61.691 130.093"
	 xml:space="preserve">
<path fill="#231F20" d="M178.586-106.584"/>
<line fill="none" x1="226.499" y1="-172.303" x2="226.499" y2="422.977"/>
<line fill="none" x1="226.499" y1="-172.303" x2="226.499" y2="422.977"/>
<line fill="none" x1="226.499" y1="-172.303" x2="226.499" y2="422.977"/>
<line fill="none" x1="226.499" y1="-172.303" x2="226.499" y2="422.977"/>
<path d="M23.19,7.259c3.81,2.286,6.741,4.163,8.853,5.57c1.935-1.173,5.569-3.4,9.556-5.745l9.498-5.629
	c0.645-0.351,1.23-0.058,1.23,0.704v5.335c0,0.996-0.176,1.465-0.997,1.935l-6.976,4.045c-2.287,1.349-5.042,2.873-6.86,3.752
	c1.643,0.82,4.633,2.404,6.86,3.635l6.976,3.869c0.763,0.411,0.997,0.88,0.997,1.935v5.1c0,0.762-0.527,0.996-1.173,0.587
	l-12.546-7.504c-2.286-1.408-4.807-2.932-6.801-4.222c-1.699,1.055-4.748,2.99-8.031,4.924l-12.37,7.329
	c-0.703,0.41-1.29,0.117-1.29-0.645v-5.453c0-1.055,0.293-1.524,1.056-1.993l8.853-5.042c1.993-1.171,4.631-2.637,6.332-3.575
	L20.2,12.829l-9.028-4.983c-0.763-0.411-1.056-0.938-1.056-1.993V0.869c0-0.821,0.528-1.114,1.29-0.645L23.19,7.259z"/>
<path d="M10.116,41.667c0-0.822,0.353-1.173,1.114-1.173h39.983c0.762,0,1.113,0.351,1.113,1.173v9.614
	c0,7.621-1.583,12.664-5.218,16.122c-3.342,3.224-8.677,5.276-15.712,5.276c-7.094,0-12.956-1.934-16.884-6.097
	c-3.342-3.517-4.397-8.5-4.397-15.008V41.667z M46.348,47.94H16.097v3.576c0,3.634,0.703,7.211,2.931,9.614
	c2.463,2.639,6.801,3.928,12.253,3.928c4.983,0,8.794-1.055,11.08-2.931c2.638-2.169,3.987-5.452,3.987-10.435V47.94z"/>
<path d="M31.525,25.613h-0.607c-0.527,0-0.961,0.433-0.961,0.961v18.692c0,0.529,0.434,0.961,0.961,0.961h0.607
	c0.529,0,0.961-0.432,0.961-0.961V26.574C32.486,26.046,32.055,25.613,31.525,25.613"/>
<path d="M15.217,49.105c0,0,3.27,1.817,7.206-0.151c3.936-1.968,6.604,0.437,6.604,0.437s1.397,2.749,6.162,0.195
	c3.782-2.027,5.332-1.661,7.447,0.061c1.052,0.856,3.427,1.207,5.712-0.848c0,0-2.202-6.203-3.63-6.774
	C43.29,41.455,16.09,42.35,16.09,42.35l-3.103,0.987L15.217,49.105z"/>
<path d="M60.198,79.269H1.494C0.672,79.269,0,79.94,0,80.763v21.137c0,0.822,0.672,1.494,1.494,1.494h58.704
	c0.82,0,1.493-0.672,1.493-1.494V80.763C61.691,79.94,61.019,79.269,60.198,79.269 M18.671,86.896L18.2,87.714
	c-0.111,0.189-0.269,0.267-0.457,0.157c-0.677-0.409-1.259-0.613-1.998-0.613c-1.793,0-2.989,1.399-2.989,4.184
	c0,2.344,0.834,4.075,2.973,4.075c0.692,0,1.433-0.189,2.062-0.504c0.22-0.11,0.346-0.094,0.425,0.095l0.408,0.865
	c0.095,0.205,0.048,0.346-0.125,0.456c-0.787,0.472-1.998,0.787-3.084,0.787c-3.099,0-4.719-2.234-4.719-5.695
	c0-3.383,1.62-5.947,4.892-5.947c1.212,0,2.188,0.299,2.958,0.865C18.733,86.582,18.765,86.708,18.671,86.896 M25.248,97.216
	c-2.769,0-4.704-1.746-4.704-5.664c0-3.634,1.794-5.978,5.034-5.978c2.77,0,4.705,1.747,4.705,5.664
	C30.283,94.873,28.49,97.216,25.248,97.216 M41.438,96.76c0,0.204-0.094,0.298-0.314,0.298h-1.085c-0.315,0-0.424-0.078-0.55-0.283
	l-3.084-4.829c-0.959-1.511-1.448-2.313-1.81-3.053c0.063,0.882,0.078,2.455,0.078,3.556v4.311c0,0.204-0.094,0.298-0.314,0.298
	h-1.228c-0.219,0-0.314-0.094-0.314-0.298V86.031c0-0.205,0.096-0.3,0.314-0.3h1.086c0.315,0,0.425,0.079,0.567,0.283l3.051,4.831
	c0.945,1.494,1.385,2.17,1.81,3.051c-0.048-0.896-0.063-2.423-0.063-3.539v-4.326c0-0.205,0.095-0.3,0.315-0.3h1.227
	c0.221,0,0.314,0.095,0.314,0.3V96.76z M51.099,87.054c0,0.205-0.095,0.299-0.313,0.299h-4.248v3.178h3.57
	c0.221,0,0.314,0.094,0.314,0.283v1.022c0,0.205-0.094,0.3-0.314,0.3h-3.57v4.625c0,0.204-0.094,0.298-0.315,0.298h-1.368
	c-0.221,0-0.315-0.094-0.315-0.298V86.031c0-0.205,0.095-0.3,0.315-0.3h5.932c0.219,0,0.313,0.095,0.313,0.3V87.054z"/>
<path d="M25.531,87.258c-1.872,0-2.926,1.51-2.926,4.232c0,2.784,0.991,4.043,2.69,4.043c1.872,0,2.926-1.51,2.926-4.232
	C28.222,88.516,27.23,87.258,25.531,87.258"/>
<path d="M14.296,127.472c0.253,0,0.345,0.115,0.345,0.345v1.702c0,0.23-0.092,0.345-0.345,0.345H4.891
	c-0.321,0-0.412-0.092-0.412-0.368v-1.104c0-5.289,6.989-7.427,6.989-10.808c0-1.448-0.988-2.184-2.415-2.184
	c-1.219,0-2.345,0.506-3.334,1.104c-0.229,0.137-0.414,0.114-0.552-0.115l-0.713-1.173c-0.161-0.276-0.069-0.414,0.229-0.644
	c1.15-0.897,2.897-1.495,4.53-1.495c1.816,0,3.128,0.483,4.001,1.38c0.713,0.759,1.127,1.793,1.127,3.104
	c0,4.14-6.736,6.876-7.014,9.911H14.296z"/>
<path d="M17.887,121.908c0-5.726,2.207-8.83,5.978-8.83c3.495,0,5.611,2.667,5.611,8.186c0,5.703-2.185,8.83-5.979,8.83
	C20.001,130.093,17.887,127.38,17.887,121.908 M26.578,121.402c0-4.024-0.942-5.979-2.806-5.979c-2.001,0-2.989,2.276-2.989,6.324
	c0,4.024,0.92,6.001,2.807,6.001C25.59,127.748,26.578,125.449,26.578,121.402"/>
<path d="M38.952,113.307c0.253,0,0.347,0.115,0.347,0.345v13.98h2.942c0.253,0,0.345,0.115,0.345,0.346v1.541
	c0,0.23-0.092,0.345-0.345,0.345h-8.969c-0.253,0-0.344-0.114-0.344-0.345v-1.541c0-0.23,0.091-0.346,0.344-0.346h3.197v-11.335
	l-2.944,1.54c-0.275,0.138-0.436,0.115-0.574-0.161l-0.645-1.287c-0.138-0.299-0.068-0.46,0.208-0.598l4.023-2.116
	c0.552-0.276,0.828-0.368,1.473-0.368H38.952z"/>
<path d="M45.808,122.827c0-5.472,2.185-9.749,6.6-9.749c1.241,0,2.322,0.368,3.173,0.896c0.23,0.161,0.3,0.253,0.115,0.644
	l-0.552,1.104c-0.115,0.253-0.276,0.276-0.551,0.138c-0.691-0.322-1.404-0.506-2.094-0.506c-2.461,0-3.38,2.093-3.68,4.76
	c0.853-0.552,2.093-0.943,3.196-0.943c3.013,0,4.761,2.208,4.761,5.197c0,3.127-2.07,5.726-5.45,5.726
	C47.279,130.093,45.808,126.966,45.808,122.827 M53.947,124.552c0-1.748-0.759-3.104-2.552-3.104c-0.897,0-1.955,0.299-2.714,0.713
	v0.666c0,2.829,0.736,4.968,2.736,4.968C53.028,127.794,53.947,126.3,53.947,124.552"/>
<line fill="none" x1="226.499" y1="-172.303" x2="226.499" y2="422.977"/>
</svg>
