<?xml version="1.0" encoding="utf-8"?>
<!-- Generator: Adobe Illustrator 18.1.1, SVG Export Plug-In . SVG Version: 6.00 Build 0)  -->
<!DOCTYPE svg PUBLIC "-//W3C//DTD SVG 1.1//EN" "http://www.w3.org/Graphics/SVG/1.1/DTD/svg11.dtd" [
	<!ENTITY ns_extend "http://ns.adobe.com/Extensibility/1.0/">
	<!ENTITY ns_ai "http://ns.adobe.com/AdobeIllustrator/10.0/">
	<!ENTITY ns_graphs "http://ns.adobe.com/Graphs/1.0/">
	<!ENTITY ns_vars "http://ns.adobe.com/Variables/1.0/">
	<!ENTITY ns_imrep "http://ns.adobe.com/ImageReplacement/1.0/">
	<!ENTITY ns_sfw "http://ns.adobe.com/SaveForWeb/1.0/">
	<!ENTITY ns_custom "http://ns.adobe.com/GenericCustomNamespace/1.0/">
	<!ENTITY ns_adobe_xpath "http://ns.adobe.com/XPath/1.0/">
]>
<svg version="1.1" xmlns:x="&ns_extend;" xmlns:i="&ns_ai;" xmlns:graph="&ns_graphs;"
	 xmlns="http://www.w3.org/2000/svg" xmlns:xlink="http://www.w3.org/1999/xlink" x="0px" y="0px" viewBox="0 0 217.3 223.7"
	 enable-background="new 0 0 217.3 223.7" xml:space="preserve">
<metadata>
	<sfw  xmlns="&ns_sfw;">
		<slices></slices>
		<sliceSourceBounds  width="1433.5" height="709" bottomLeftOrigin="true" x="89.5" y="-708"></sliceSourceBounds>
	</sfw>
</metadata>
<g id="Background">
</g>
<g id="Objects">
	<g id="_x31_">
		<path fill="none" d="M107.9,65.4c-23.9,0-43.3,19.4-43.3,43.3c0,23.9,19.4,43.3,43.3,43.3c23.9,0,43.3-19.4,43.3-43.3
			C151.2,84.8,131.8,65.4,107.9,65.4z M107.9,130.4c-11.9,0-21.6-9.7-21.6-21.6c0-11.9,9.7-21.6,21.6-21.6
			c11.9,0,21.6,9.7,21.6,21.6C129.5,120.7,119.8,130.4,107.9,130.4z"/>
		<path fill="#FFF" d="M214.5,109.9v-1C214.5,109.2,214.5,109.5,214.5,109.9L214.5,109.9z"/>
		<path fill="#FFF" d="M194.9,110c0-5-0.6-11.9-1.6-17.2l2.5-0.9l19.9-4.1c-2.3-12-6.6-23.5-12.8-34.1l-17.6,10.1l-2.2,1.3
			c-2.8-4.8-6.1-9.4-9.7-13.6l1.9-1.7l15.3-13.4c-8-9.2-17.4-16.9-28-23L152.6,31l-1.3,2.2c-4.8-2.8-9.8-5.1-15.1-6.9L137,24
			l6.7-18.5C132.8,1.7,120,0.1,110,0v19.1v2.6c-5,0-12.3,0.6-17.6,1.6l-1.1-2.5L87.1,0.8C75.1,3.2,63.5,7.5,53,13.6l10.1,17.6
			l1.2,2.2c-4.8,2.8-9.4,6.1-13.6,9.7L49,41.2L35.7,25.9c-9.2,8-16.9,17.4-23,28L30.2,64l2.2,1.3c-2.8,4.8-5.1,9.9-6.9,15.3
			l-2.4-0.8L4.9,73.1C1,84.5,0,96.5,0,108.7v0.1l18.3,1.2h2.5c0,5,0.5,10.7,1.6,16.1l-2.5,0.2L0,130c2.3,12,6.6,23.3,12.7,33.9
			l17.6-10.2l2.2-1.3c2.8,4.8,6.1,9.4,9.7,13.6l-1.9,1.7L25,180.9c8,9.2,17.4,16.9,28,23l10.2-17.6l1.3-2.2
			c4.8,2.8,9.9,5.1,15.3,6.9l-0.8,2.4l-6.6,20.9c11.5,3.9,23.5,7.6,35.7,7.6h0l2.1-23.8v-2.5c5,0,10.2-0.5,15.6-1.6l0,2.5l3.6,19.9
			c12-2.3,23.3-6.6,33.8-12.7l-10.2-17.6l-1.3-2.2c4.8-2.8,9.4-6.1,13.6-9.7l1.7,1.9l13.3,15.3c9.2-8,16.9-17.4,23-27.9l-17.6-10.2
			l-2.2-1.3c2.8-4.8,5.1-9.9,6.9-15.2l2.4,0.8l17.6,6.6c3.8-11.2,4.3-22.5,4.3-34.5h-17H194.9z M107.9,152
			c-23.9,0-43.3-19.4-43.3-43.3c0-23.9,19.4-43.3,43.3-43.3c23.9,0,43.3,19.4,43.3,43.3C151.2,132.6,131.8,152,107.9,152z"/>
		<circle fill="#FFF" cx="107.9" cy="108.7" r="21.6"/>
	</g>
</g>
</svg>
