<?xml version="1.0" encoding="utf-8"?>
<!-- Generator: Adobe Illustrator 18.1.1, SVG Export Plug-In . SVG Version: 6.00 Build 0)  -->
<!DOCTYPE svg PUBLIC "-//W3C//DTD SVG 1.1//EN" "http://www.w3.org/Graphics/SVG/1.1/DTD/svg11.dtd" [
	<!ENTITY ns_extend "http://ns.adobe.com/Extensibility/1.0/">
	<!ENTITY ns_ai "http://ns.adobe.com/AdobeIllustrator/10.0/">
	<!ENTITY ns_graphs "http://ns.adobe.com/Graphs/1.0/">
	<!ENTITY ns_vars "http://ns.adobe.com/Variables/1.0/">
	<!ENTITY ns_imrep "http://ns.adobe.com/ImageReplacement/1.0/">
	<!ENTITY ns_sfw "http://ns.adobe.com/SaveForWeb/1.0/">
	<!ENTITY ns_custom "http://ns.adobe.com/GenericCustomNamespace/1.0/">
	<!ENTITY ns_adobe_xpath "http://ns.adobe.com/XPath/1.0/">
]>
<svg version="1.1" xmlns:x="&ns_extend;" xmlns:i="&ns_ai;" xmlns:graph="&ns_graphs;"
	 xmlns="http://www.w3.org/2000/svg" xmlns:xlink="http://www.w3.org/1999/xlink" x="0px" y="0px" viewBox="0 0 225 222"
	 enable-background="new 0 0 225 222" xml:space="preserve">
<metadata>
	<sfw  xmlns="&ns_sfw;">
		<slices></slices>
		<sliceSourceBounds  width="1433.5" height="709" bottomLeftOrigin="true" x="89.5" y="-708"></sliceSourceBounds>
	</sfw>
</metadata>
<g id="Background">
</g>
<g id="Objects">
	<path fill="#FFF" d="M1.5,111.2C1.5,111.2,1.5,111.2,1.5,111.2L1.5,111.2L1.5,111.2z"/>
	<path fill="#FFF" d="M206.3,111c0-5-0.5-11.1-1.5-16.6l17.4-3.1c-1.8-10-5-19.7-9.4-28.8l-15.9,7.8c-2.4-4.9-5.3-9.6-8.5-14
		l14.3-10.4c-6-8.2-13-15.5-20.9-21.8l-11,13.9c-4.3-3.4-8.8-6.4-13.7-9l8.4-15.6c-8.9-4.8-18.5-8.4-28.4-10.6L133.2,20
		c-5.3-1.2-10.7-1.9-16.3-2.2l0.8-17.7c-10-0.4-20.3,0.5-30.1,2.7l4,17.3C86.2,21.3,81,23,76,25.2L69.1,8.9c-9.3,4-18,9.2-26,15.6
		l11.1,13.8c-4.3,3.4-8.2,7.2-11.8,11.3L29.1,37.9C22.4,45.6,16.8,54,12.4,63.2l16,7.7c-2.4,4.9-4.3,10-5.7,15.4L5.5,81.3
		c-2.7,9.6-4,19.6-4,29.6H19c0,0,0,0.3,0,0.3c0,5.6,0.6,11.1,1.6,16.5l-17.4,3.1c1.8,10,4.9,19.7,9.4,28.8l15.9-7.7
		c2.4,4.9,5.2,9.6,8.4,14.1l-14.3,10.4c5.9,8.2,13,15.6,20.9,21.9l11-13.9c4.3,3.4,8.8,6.5,13.7,9.1L59.7,209
		c8.9,4.8,18.5,8.4,28.4,10.7l3.9-17.3c5.3,1.2,10.7,2,16.2,2.2l-0.8,17.9c1.7,0.1,3.5,0.4,5.3,0.4c0,0,0,0,0,0
		c8.4,0,16.7-1.2,24.8-3l-4-17.4c5.4-1.2,10.6-3,15.6-5.1l6.9,16.3c9.3-4,18.1-9.2,26-15.5l-11.1-13.8c4.3-3.4,8.2-7.2,11.9-11.3
		l13.3,11.7c6.7-7.6,12.3-16.1,16.7-25.2l-15.9-7.7c2.4-4.9,4.3-10.1,5.8-15.4l17.6,4.8c2.7-9.7,4.6-19.8,4.6-30V111H206.3z
		 M52.3,121L52.3,121c-5.6,0-10.1-4.3-10.1-9.8c0,0,0,0,0,0c0,0,0,0,0,0c0-5.6,4.5-10,10.1-10c5.6,0,10.1,4.4,10.2,10
		C62.5,116.7,57.9,121,52.3,121z M134,53.8c2.8-4.8,9-6.5,13.8-3.7c4.8,2.8,6.5,9,3.7,13.8c-1.9,3.3-5.3,5.1-8.8,5.1
		c-1.7,0-3.4-0.4-5-1.3C132.8,64.8,131.2,58.6,134,53.8z M77.3,50.3c4.8-2.8,11-1.2,13.8,3.6c2.8,4.8,1.2,11-3.6,13.8
		c-1.6,0.9-3.4,1.4-5.1,1.4c-3.5,0-6.9-1.8-8.8-5C70.8,59.3,72.5,53.1,77.3,50.3z M91.4,168.7c-1.9,3.3-5.3,5.1-8.8,5.1
		c-1.7,0-3.4-0.5-5-1.4c-3.3-1.9-5.2-5.4-5.1-9c0-1.6,0.5-3.3,1.4-4.8c2.8-4.8,9-6.6,13.8-3.6h0c3.3,2.8,5.2,5.9,5.1,9.2
		C92.7,165.7,92.2,167.2,91.4,168.7z M112.7,136.9c-14.2,0-25.7-11.5-25.7-25.7c0-14.2,11.5-25.7,25.7-25.7s25.7,11.5,25.7,25.7
		C138.4,125.4,126.9,136.9,112.7,136.9z M148,172.3c-1.6,0.9-3.3,1.4-5.1,1.4c-3.5,0-6.9-1.8-8.8-5.1c-2.8-4.8-1.1-11,3.7-13.8
		c4.8-2.8,11-1.1,13.8,3.7C154.5,163.3,152.9,169.5,148,172.3z M185,111c0,0.1,0,0.2,0,0.3c0,5.6-4.9,10.1-10.5,10.1
		c-5.6,0-10.5-4.5-10.5-10.1c0,0,0-0.1,0-0.1c0,0,0,0,0-0.1c0-5.6,4.9-10.1,10.5-10.2C180,100.8,185,105.3,185,111L185,111z"/>
</g>
</svg>
