<?xml version="1.0" encoding="utf-8"?>
<!-- Generator: Adobe Illustrator 18.1.1, SVG Export Plug-In . SVG Version: 6.00 Build 0)  -->
<!DOCTYPE svg PUBLIC "-//W3C//DTD SVG 1.1//EN" "http://www.w3.org/Graphics/SVG/1.1/DTD/svg11.dtd" [
	<!ENTITY ns_extend "http://ns.adobe.com/Extensibility/1.0/">
	<!ENTITY ns_ai "http://ns.adobe.com/AdobeIllustrator/10.0/">
	<!ENTITY ns_graphs "http://ns.adobe.com/Graphs/1.0/">
	<!ENTITY ns_vars "http://ns.adobe.com/Variables/1.0/">
	<!ENTITY ns_imrep "http://ns.adobe.com/ImageReplacement/1.0/">
	<!ENTITY ns_sfw "http://ns.adobe.com/SaveForWeb/1.0/">
	<!ENTITY ns_custom "http://ns.adobe.com/GenericCustomNamespace/1.0/">
	<!ENTITY ns_adobe_xpath "http://ns.adobe.com/XPath/1.0/">
]>
<svg version="1.1" xmlns:x="&ns_extend;" xmlns:i="&ns_ai;" xmlns:graph="&ns_graphs;"
	 xmlns="http://www.w3.org/2000/svg" xmlns:xlink="http://www.w3.org/1999/xlink" x="0px" y="0px" viewBox="0 0 225 222"
	 enable-background="new 0 0 225 222" xml:space="preserve">
<metadata>
	<sfw  xmlns="&ns_sfw;">
		<slices></slices>
		<sliceSourceBounds  width="1433.5" height="709" bottomLeftOrigin="true" x="89.5" y="-708"></sliceSourceBounds>
	</sfw>
</metadata>
<g id="Background">
</g>
<g id="Objects">
	<g id="_x32_">
		<path fill="#464646" d="M1.5,111.2C1.5,111.2,1.5,111.2,1.5,111.2L1.5,111.2L1.5,111.2z"/>
		<path fill="#464646" d="M206.3,111c0-5-0.5-11.1-1.5-16.6l17.4-3.1c-1.8-10-5-19.7-9.4-28.8l-15.9,7.8c-2.4-4.9-5.3-9.6-8.5-14
			l14.3-10.4c-6-8.2-13-15.5-20.9-21.8l-11,13.9c-4.3-3.4-8.8-6.4-13.7-9l8.4-15.6c-8.9-4.8-18.5-8.4-28.4-10.6L133.2,20
			c-5.3-1.2-10.7-1.9-16.3-2.2l0.8-17.7c-10-0.4-20.3,0.5-30.1,2.7l4,17.3C86.2,21.3,81,23,76,25.2L69.1,8.9c-9.3,4-18,9.2-26,15.6
			l11.1,13.8c-4.3,3.4-8.2,7.2-11.8,11.3L29.1,37.9C22.4,45.6,16.8,54,12.4,63.2l16,7.7c-2.4,4.9-4.3,10-5.7,15.4L5.5,81.3
			c-2.7,9.6-4,19.6-4,29.6H19c0,0,0,0.3,0,0.3c0,5.6,0.6,11.1,1.6,16.5l-17.4,3.1c1.8,10,4.9,19.7,9.4,28.8l15.9-7.7
			c2.4,4.9,5.2,9.6,8.4,14.1l-14.3,10.4c5.9,8.2,13,15.6,20.9,21.9l11-13.9c4.3,3.4,8.8,6.5,13.7,9.1L59.7,209
			c8.9,4.8,18.5,8.4,28.4,10.7l3.9-17.3c5.3,1.2,10.7,2,16.2,2.2l-0.8,17.9c1.7,0.1,3.5,0.4,5.3,0.4c0,0,0,0,0,0
			c8.4,0,16.7-1.2,24.8-3l-4-17.4c5.4-1.2,10.6-3,15.6-5.1l6.9,16.3c9.3-4,18.1-9.2,26-15.5l-11.1-13.8c4.3-3.4,8.2-7.2,11.9-11.3
			l13.3,11.7c6.7-7.6,12.3-16.1,16.7-25.2l-15.9-7.7c2.4-4.9,4.3-10.1,5.8-15.4l17.6,4.8c2.7-9.7,4.6-19.8,4.6-30V111H206.3z
			 M148,172.3c-1.6,0.9-3.3,1.4-5.1,1.4c-3.5,0-6.9-1.8-8.8-5.1c-2.8-4.8-1.1-11,3.7-13.8c4.8-2.8,11-1.1,13.8,3.7
			C154.5,163.3,152.9,169.5,148,172.3z M112.7,136.9c-14.2,0-25.7-11.5-25.7-25.7c0-14.2,11.5-25.7,25.7-25.7s25.7,11.5,25.7,25.7
			C138.4,125.4,126.9,136.9,112.7,136.9z M82.6,173.8c-1.7,0-3.4-0.5-5-1.4c-4.8-2.8-6.5-8.9-3.7-13.7c2.8-4.8,9-6.6,13.8-3.6h0
			c4.9,4,6.5,8.9,3.7,13.7C89.5,172,86.1,173.8,82.6,173.8z M52.3,101.2c5.6,0,10.1,4.3,10.2,9.9c0,5.6-4.5,9.9-10.1,9.9h0
			c-5.6,0-10.1-4.3-10.1-9.8C42.2,105.5,46.7,101.2,52.3,101.2z M77.3,50.3c4.8-2.8,11-1.2,13.8,3.6c2.8,4.8,1.2,11-3.6,13.8
			c-1.6,0.9-3.4,1.4-5.1,1.4c-3.5,0-6.9-1.8-8.8-5C70.8,59.3,72.5,53.1,77.3,50.3z M147.8,50c4.8,2.8,6.5,9,3.7,13.8
			c-1.9,3.3-5.3,5.1-8.8,5.1c-1.7,0-3.4-0.4-5-1.3c-4.8-2.8-6.5-9-3.7-13.8C136.7,48.9,142.9,47.3,147.8,50z M174.5,121.3
			c-5.6,0-10.5-4.5-10.5-10.1c0,0,0-0.1,0-0.1c0,0,0,0,0-0.1c0-5.6,4.9-10.1,10.5-10.2c5.6,0,10.5,4.5,10.5,10.1v0
			c0,0.1,0,0.2,0,0.3C185,116.8,180.1,121.3,174.5,121.3z"/>
		<path fill="#FFFFFF" d="M82.4,69.1c1.7,0,3.5-0.4,5.1-1.4c4.8-2.8,6.5-9,3.6-13.8c-2.8-4.8-9-6.5-13.8-3.6
			c-4.8,2.8-6.5,9-3.7,13.8C75.5,67.3,78.9,69.1,82.4,69.1z"/>
		<path fill="#FFFFFF" d="M52.3,121L52.3,121c5.6,0,10.1-4.3,10.1-9.9c0-5.6-4.6-10-10.2-10c-5.6,0-10.1,4.4-10.1,10
			C42.2,116.7,46.7,121,52.3,121z"/>
		<path fill="#FFFFFF" d="M137.7,67.6c1.6,0.9,3.3,1.3,5,1.3c3.5,0,6.9-1.8,8.8-5.1c2.8-4.9,1.1-11-3.7-13.8
			c-4.9-2.8-11.1-1.1-13.8,3.7C131.2,58.6,132.8,64.8,137.7,67.6z"/>
		<path fill="#FFFFFF" d="M185,111L185,111c0-5.6-5-10.1-10.5-10.1c-5.6,0-10.5,4.6-10.5,10.2c0,0,0,0.1,0,0.1c0,0.1,0,0.1,0,0.1
			c0,5.6,4.9,10.1,10.5,10.1c5.6,0,10.5-4.5,10.5-10.1C185,111.1,185,111,185,111z"/>
		<path fill="#FFFFFF" d="M87.6,155L87.6,155c-4.8-3-11-1.2-13.8,3.6c-2.8,4.8-1.1,10.9,3.7,13.7c1.6,0.9,3.3,1.4,5,1.4
			c3.5,0,6.9-1.8,8.8-5.1C94.1,163.9,92.5,159,87.6,155z"/>
		<path fill="#FFFFFF" d="M137.9,154.7c-4.8,2.8-6.5,9-3.7,13.8c1.9,3.2,5.3,5.1,8.8,5.1c1.7,0,3.5-0.4,5.1-1.4
			c4.8-2.8,6.5-9,3.7-13.8C148.9,153.6,142.7,151.9,137.9,154.7z"/>
		<circle fill="#FFFFFF" cx="112.7" cy="111.2" r="25.7"/>
	</g>
</g>
</svg>
