<?xml version="1.0" encoding="utf-8"?>
<!-- Generator: Adobe Illustrator 18.1.1, SVG Export Plug-In . SVG Version: 6.00 Build 0)  -->
<!DOCTYPE svg PUBLIC "-//W3C//DTD SVG 1.1//EN" "http://www.w3.org/Graphics/SVG/1.1/DTD/svg11.dtd" [
	<!ENTITY ns_extend "http://ns.adobe.com/Extensibility/1.0/">
	<!ENTITY ns_ai "http://ns.adobe.com/AdobeIllustrator/10.0/">
	<!ENTITY ns_graphs "http://ns.adobe.com/Graphs/1.0/">
	<!ENTITY ns_vars "http://ns.adobe.com/Variables/1.0/">
	<!ENTITY ns_imrep "http://ns.adobe.com/ImageReplacement/1.0/">
	<!ENTITY ns_sfw "http://ns.adobe.com/SaveForWeb/1.0/">
	<!ENTITY ns_custom "http://ns.adobe.com/GenericCustomNamespace/1.0/">
	<!ENTITY ns_adobe_xpath "http://ns.adobe.com/XPath/1.0/">
]>
<svg version="1.1" xmlns:x="&ns_extend;" xmlns:i="&ns_ai;" xmlns:graph="&ns_graphs;"
	 xmlns="http://www.w3.org/2000/svg" xmlns:xlink="http://www.w3.org/1999/xlink" x="0px" y="0px" viewBox="0 0 221 221"
	 enable-background="new 0 0 221 221" xml:space="preserve">
<metadata>
	<sfw  xmlns="&ns_sfw;">
		<slices></slices>
		<sliceSourceBounds  width="1433.5" height="709" bottomLeftOrigin="true" x="89.5" y="-708"></sliceSourceBounds>
	</sfw>
</metadata>
<g id="Background">
</g>
<g id="Objects">
	<g id="_x33_">
		<path fill="none" d="M110.8,47.1C75.5,47.1,47,75.7,47,110.9c0,35.2,28.6,63.8,63.8,63.8c35.2,0,63.8-28.6,63.8-63.8
			C174.6,75.7,146,47.1,110.8,47.1z M110.8,142.8c-17.6,0-31.9-14.3-31.9-31.9c0-17.6,14.3-31.9,31.9-31.9
			c17.6,0,31.9,14.3,31.9,31.9C142.7,128.5,128.4,142.8,110.8,142.8z"/>
		<path fill="#FFF" d="M201.2,110h-5.6c0-3-0.6-10.9-1.7-16.2l5.5-1l20.1-4c-1.6-8-4.1-15.8-7.5-23.2L193.3,74l-5.1,2.3
			c-2.3-5.1-5.1-10-8.4-14.6l4.6-3.3l16.7-11.9c-4.7-6.6-10.2-12.7-16.3-18.2l-13.7,15.3l-3.7,4.2c-4.2-3.7-8.7-7.1-13.6-9.9
			l2.8-4.8l10.4-17.6c-7-4.2-14.5-7.5-22.3-10l-6.3,19.5l-1.7,5.3c-5.3-1.7-10.8-2.9-16.4-3.5l0.6-5.6l2.3-20.4
			c-8-0.9-16.3-0.9-24.3-0.1l2.1,20.4l0.6,5.6c-5.7,0.6-11.2,1.8-16.4,3.4l-1.7-5.3L77.5,5.1c-7.8,2.4-15.3,5.8-22.3,9.9l10.3,17.7
			l2.8,4.8c-4.9,2.8-9.4,6.1-13.6,9.8l-3.7-4.2L37.3,27.8c-6.1,5.4-11.6,11.5-16.4,18l16.6,12l4.5,3.3c-3.3,4.5-6.1,9.4-8.5,14.5
			l-5.1-2.3L9.9,64.8C6.5,72.2,3.9,80,2.2,88l20.1,4.2l5.5,1.2c-1.1,5.4-1.7,11-1.8,16.7l-5.6-0.1l-20.5-0.2c0,0.4,0,0.7,0,1.1
			c0,7.8,0.8,15.6,2.4,23.2l20-4.3l5.5-1.2c1.2,5.6,2.9,10.9,5.1,16l-5.1,2.2L9,155c3.2,7.5,7.3,14.6,12.1,21.2l16.6-12.1l4.5-3.3
			c3.3,4.5,7.1,8.7,11.2,12.5l-3.8,4.1l-13.9,15.1c6,5.5,12.6,10.4,19.7,14.4l10.2-17.7l2.8-4.9c4.8,2.8,9.9,5.1,15.3,6.9l-1.8,5.3
			l-6.5,19.4c7.7,2.6,15.8,4.3,23.9,5.2l2.1-20.4l0.6-5.6c2.9,0.3,5.8,0.5,8.8,0.5c2.7,0,5.4-0.1,8-0.4l0.5,5.6l1.9,20.4
			c8.1-0.8,16.2-2.4,23.9-4.9l-6.3-19.5l-1.7-5.3c5.4-1.7,10.5-4,15.4-6.8l2.8,4.9l10.1,17.8c7.1-4,13.7-8.8,19.8-14.2l-13.7-15.2
			l-3.7-4.2c4.2-3.8,8-7.9,11.3-12.4l4.5,3.3l16.4,12.2c4.9-6.5,9-13.6,12.3-21.1l-18.7-8.3l-5.1-2.3c2.3-5.1,4-10.4,5.3-15.9
			l5.5,1.2l19.7,4.4c1.8-7.9,2.3-16.1,2.3-24.2V110H201.2z M110.8,174.7c-35.2,0-63.8-28.6-63.8-63.8c0-35.2,28.6-63.8,63.8-63.8
			c35.2,0,63.8,28.6,63.8,63.8C174.6,146.2,146,174.7,110.8,174.7z"/>
		<path fill="#FFF" d="M110.8,79c-17.6,0-31.9,14.3-31.9,31.9c0,17.6,14.3,31.9,31.9,31.9c17.6,0,31.9-14.3,31.9-31.9
			C142.7,93.3,128.4,79,110.8,79z"/>
	</g>
</g>
</svg>
