<?xml version="1.0" encoding="utf-8"?>
<!-- Generator: Adobe Illustrator 16.0.4, SVG Export Plug-In . SVG Version: 6.00 Build 0)  -->
<!DOCTYPE svg PUBLIC "-//W3C//DTD SVG 1.1//EN" "http://www.w3.org/Graphics/SVG/1.1/DTD/svg11.dtd">
<svg version="1.1" id="Layer_1" xmlns="http://www.w3.org/2000/svg" xmlns:xlink="http://www.w3.org/1999/xlink" x="0px" y="0px"
	 width="128px" height="128px" viewBox="0 0 128 128" enable-background="new 0 0 128 128" xml:space="preserve">
<path fill="#231F20" d="M0.258,63.751C0.091,63.751,0,63.659,0,63.508V53.049c0-0.151,0.091-0.243,0.258-0.243h5.533
	c0.167,0,0.259,0.092,0.259,0.243v0.518c0,0.151-0.091,0.243-0.259,0.243H1.17v3.907h3.906c0.167,0,0.259,0.09,0.259,0.226v0.518
	c0,0.152-0.092,0.244-0.259,0.244H1.17v4.043h4.682c0.167,0,0.258,0.091,0.258,0.243v0.518c0,0.151-0.091,0.243-0.258,0.243H0.258z"
	/>
<path fill="#231F20" d="M14.495,63.491c0.076,0.122,0.045,0.26-0.137,0.26h-0.684c-0.228,0-0.288-0.031-0.395-0.197l-0.973-1.49
	l-1.201-1.824l-1.095,1.81l-0.911,1.505c-0.092,0.151-0.152,0.197-0.38,0.197H8.02c-0.183,0-0.213-0.138-0.122-0.273l1.581-2.403
	c0.411-0.637,0.775-1.154,1.079-1.596l-1.094-1.611l-1.277-1.884c-0.076-0.122-0.045-0.258,0.137-0.258h0.684
	c0.229,0,0.289,0.029,0.396,0.197l0.684,1.033c0.365,0.547,0.927,1.414,1.125,1.748c0.198-0.35,0.714-1.201,1.049-1.748l0.639-1.033
	c0.091-0.153,0.152-0.197,0.38-0.197h0.668c0.183,0,0.213,0.136,0.121,0.271l-1.23,1.87l-1.064,1.598
	c0.349,0.485,0.684,0.973,1.125,1.626L14.495,63.491z"/>
<path fill="#231F20" d="M19.996,55.573c0.836,0,1.55,0.304,2.037,0.789c0.745,0.729,1.11,1.871,1.11,3.131
	c0,2.996-1.687,4.394-3.526,4.394c-0.699,0-1.444-0.258-1.915-0.577v3.892c0,0.151-0.077,0.228-0.228,0.228h-0.654
	c-0.152,0-0.229-0.076-0.229-0.228v-8.254c0-1.171-0.015-2.219-0.045-3.01c0-0.137,0.076-0.212,0.229-0.212h0.608
	c0.167,0,0.243,0.06,0.258,0.212c0.016,0.138,0.062,0.562,0.062,0.745C18.218,56.029,19.038,55.573,19.996,55.573 M19.905,56.683
	c-0.684,0-1.292,0.228-1.687,0.607c-0.426,0.411-0.517,0.912-0.517,2.646v2.341c0.44,0.334,1.125,0.592,1.839,0.592
	c1.474,0,2.432-1.307,2.432-3.252C21.972,57.579,21.243,56.683,19.905,56.683"/>
<path fill="#231F20" d="M25.087,59.95c0-2.569,1.414-4.377,3.632-4.377c2.159,0,3.208,1.762,3.208,4.104
	c0,0.335-0.091,0.471-0.258,0.471h-5.412c0.031,1.854,0.958,2.721,2.737,2.721c0.577,0,1.261-0.136,1.991-0.485
	c0.137-0.062,0.213-0.046,0.289,0.09l0.198,0.472c0.061,0.151,0.03,0.228-0.122,0.319c-0.715,0.426-1.566,0.64-2.6,0.64
	C26.257,63.903,25.087,62.352,25.087,59.95 M26.288,59.175h4.5c0-1.2-0.624-2.568-2.052-2.568
	C27.336,56.606,26.5,57.563,26.288,59.175"/>
<path fill="#231F20" d="M37.584,55.649c0.243,0,0.35,0.044,0.35,0.258v0.531c0,0.122-0.03,0.214-0.197,0.244
	c-0.791,0.136-1.308,0.395-1.703,0.805c-0.638,0.655-0.912,1.521-0.912,3.086v2.964c0,0.138-0.076,0.214-0.228,0.214H34.24
	c-0.151,0-0.228-0.076-0.228-0.214v-4.59c0-1.171-0.015-2.219-0.045-3.01c0-0.137,0.076-0.212,0.228-0.212h0.593
	c0.167,0,0.243,0.06,0.258,0.212c0.03,0.335,0.046,0.986,0.046,1.489C35.594,56.362,36.597,55.649,37.584,55.649"/>
<path fill="#231F20" d="M39.565,54.052c-0.152,0-0.229-0.076-0.229-0.212v-1.08c0-0.136,0.076-0.212,0.229-0.212h1.033
	c0.167,0,0.243,0.076,0.243,0.212v1.08c0,0.136-0.076,0.212-0.243,0.212H39.565z M39.762,63.751c-0.152,0-0.228-0.076-0.228-0.214
	v-7.6c0-0.138,0.075-0.214,0.228-0.214h0.654c0.152,0,0.228,0.076,0.228,0.214v7.6c0,0.138-0.075,0.214-0.228,0.214H39.762z"/>
<path fill="#231F20" d="M42.371,59.95c0-2.569,1.414-4.377,3.632-4.377c2.159,0,3.208,1.762,3.208,4.104
	c0,0.335-0.091,0.471-0.259,0.471h-5.412c0.031,1.854,0.958,2.721,2.737,2.721c0.578,0,1.262-0.136,1.991-0.485
	c0.138-0.062,0.213-0.046,0.29,0.09l0.198,0.472c0.06,0.151,0.03,0.228-0.122,0.319c-0.715,0.426-1.566,0.64-2.6,0.64
	C43.541,63.903,42.371,62.352,42.371,59.95 M43.572,59.175h4.5c0-1.2-0.624-2.568-2.052-2.568
	C44.62,56.606,43.785,57.563,43.572,59.175"/>
<path fill="#231F20" d="M54.57,55.573c0.851,0,1.642,0.288,2.173,0.804c0.562,0.563,0.775,1.37,0.775,2.631v4.529
	c0,0.138-0.076,0.212-0.228,0.212h-0.654c-0.152,0-0.228-0.074-0.228-0.212v-3.875c0-1.292-0.031-1.961-0.457-2.447
	c-0.318-0.366-0.865-0.547-1.596-0.547c-0.668,0-1.428,0.242-1.824,0.651c-0.243,0.274-0.35,0.609-0.395,1.171
	c-0.046,0.533-0.062,1.308-0.062,2.297v2.75c0,0.138-0.076,0.212-0.227,0.212h-0.654c-0.153,0-0.229-0.074-0.229-0.212v-4.59
	c0-1.171-0.015-2.219-0.046-3.01c0-0.137,0.077-0.212,0.229-0.212h0.608c0.167,0,0.243,0.06,0.258,0.212
	c0.015,0.136,0.046,0.517,0.046,0.699C52.593,56.029,53.581,55.573,54.57,55.573"/>
<path fill="#231F20" d="M59.169,59.874c0-2.858,1.672-4.301,3.647-4.301c0.882,0,1.688,0.242,2.418,0.714
	c0.137,0.092,0.137,0.184,0.061,0.333l-0.244,0.487c-0.09,0.168-0.229,0.152-0.35,0.076c-0.668-0.396-1.216-0.577-1.869-0.577
	c-1.475,0-2.493,1.187-2.493,3.191c0,1.976,1.049,3.07,2.477,3.07c0.639,0,1.307-0.197,1.9-0.485
	c0.184-0.092,0.273-0.046,0.334,0.106l0.168,0.455c0.059,0.151,0.045,0.26-0.092,0.335c-0.715,0.396-1.535,0.624-2.463,0.624
	C60.582,63.903,59.169,62.321,59.169,59.874"/>
<path fill="#231F20" d="M66.875,59.95c0-2.569,1.412-4.377,3.631-4.377c2.158,0,3.207,1.762,3.207,4.104
	c0,0.335-0.092,0.471-0.258,0.471h-5.412c0.031,1.854,0.959,2.721,2.738,2.721c0.576,0,1.26-0.136,1.99-0.485
	c0.137-0.062,0.213-0.046,0.289,0.09l0.197,0.472c0.061,0.151,0.031,0.228-0.121,0.319c-0.715,0.426-1.566,0.64-2.6,0.64
	C68.043,63.903,66.875,62.352,66.875,59.95 M68.074,59.175h4.5c0-1.2-0.625-2.568-2.053-2.568
	C69.123,56.606,68.287,57.563,68.074,59.175"/>
<path fill="#231F20" d="M89.41,62.413c-0.941,0.988-2.203,1.338-4.148,1.338h-2.098c-0.168,0-0.26-0.092-0.26-0.243V53.049
	c0-0.151,0.092-0.243,0.26-0.243h2.098c1.945,0,3.207,0.35,4.148,1.338c0.838,0.867,1.338,2.203,1.338,4.135
	S90.248,61.546,89.41,62.413 M88.621,55.04c-0.594-0.759-1.611-1.23-3.223-1.23h-1.322v8.938h1.322c1.611,0,2.629-0.473,3.223-1.232
	c0.578-0.715,0.91-1.777,0.91-3.237S89.199,55.755,88.621,55.04"/>
<path fill="#231F20" d="M92.393,59.95c0-2.569,1.414-4.377,3.633-4.377c2.16,0,3.209,1.762,3.209,4.104
	c0,0.335-0.092,0.471-0.26,0.471h-5.412c0.031,1.854,0.959,2.721,2.736,2.721c0.578,0,1.264-0.136,1.992-0.485
	c0.137-0.062,0.213-0.046,0.289,0.09l0.197,0.472c0.061,0.151,0.031,0.228-0.121,0.319c-0.715,0.426-1.566,0.64-2.6,0.64
	C93.562,63.903,92.393,62.352,92.393,59.95 M93.594,59.175h4.5c0-1.2-0.623-2.568-2.053-2.568
	C94.643,56.606,93.807,57.563,93.594,59.175"/>
<path fill="#231F20" d="M103.072,63.903c-0.896,0-1.84-0.274-2.447-0.686c-0.168-0.105-0.168-0.228-0.092-0.363l0.199-0.365
	c0.074-0.138,0.166-0.214,0.334-0.122c0.773,0.409,1.338,0.562,2.037,0.562c1.094,0,1.777-0.639,1.777-1.443
	c0-1.962-4.301-0.745-4.301-3.647c0-1.444,1.246-2.266,2.705-2.266c0.896,0,1.777,0.304,2.447,0.852
	c0.137,0.105,0.137,0.228,0,0.409l-0.26,0.319c-0.105,0.122-0.195,0.137-0.334,0.03c-0.562-0.409-1.186-0.639-1.898-0.639
	c-1.064,0-1.611,0.517-1.611,1.231c0,1.992,4.301,0.714,4.301,3.678C105.93,62.838,104.836,63.903,103.072,63.903"/>
<path fill="#231F20" d="M108.256,54.052c-0.154,0-0.229-0.076-0.229-0.212v-1.08c0-0.136,0.074-0.212,0.229-0.212h1.031
	c0.168,0,0.244,0.076,0.244,0.212v1.08c0,0.136-0.076,0.212-0.244,0.212H108.256z M108.451,63.751c-0.15,0-0.227-0.076-0.227-0.214
	v-7.6c0-0.138,0.076-0.214,0.227-0.214h0.654c0.152,0,0.229,0.076,0.229,0.214v7.6c0,0.138-0.076,0.214-0.229,0.214H108.451z"/>
<path fill="#231F20" d="M116.684,63.887v-1.23c-0.5,0.714-1.352,1.155-2.295,1.155c-2.311,0-3.328-1.916-3.328-3.983
	c0-2.675,1.611-4.255,3.572-4.255c0.82,0,1.672,0.41,2.158,1.018c0.016-0.304,0.045-0.548,0.076-0.699
	c0.031-0.137,0.107-0.166,0.227-0.166h0.396c0.197,0,0.242,0.06,0.258,0.228c0.031,0.562,0.045,1.382,0.045,2.111v5.929
	c0,1.141-0.271,2.068-0.91,2.706c-0.562,0.562-1.398,0.881-2.646,0.881c-0.668,0-1.488-0.121-1.854-0.228
	c-0.197-0.06-0.213-0.151-0.182-0.289l0.09-0.44c0.047-0.183,0.092-0.228,0.32-0.183c0.547,0.107,1.047,0.169,1.656,0.169
	c0.867,0,1.459-0.245,1.824-0.655C116.518,65.467,116.684,64.784,116.684,63.887 M116.121,62.048
	c0.352-0.441,0.562-1.109,0.562-2.021v-2.388c-0.363-0.606-1.244-1.048-2.02-1.048c-1.689,0-2.434,1.506-2.434,3.147
	c0,1.777,0.762,3.054,2.295,3.054C115.119,62.792,115.742,62.534,116.121,62.048"/>
<path fill="#231F20" d="M123.594,55.573c0.852,0,1.641,0.288,2.174,0.804c0.562,0.563,0.775,1.37,0.775,2.631v4.529
	c0,0.138-0.076,0.212-0.229,0.212h-0.654c-0.15,0-0.227-0.074-0.227-0.212v-3.875c0-1.292-0.031-1.961-0.457-2.447
	c-0.318-0.366-0.865-0.547-1.596-0.547c-0.668,0-1.428,0.242-1.824,0.651c-0.244,0.274-0.35,0.609-0.395,1.171
	c-0.047,0.533-0.062,1.308-0.062,2.297v2.75c0,0.138-0.074,0.212-0.227,0.212h-0.654c-0.15,0-0.229-0.074-0.229-0.212v-4.59
	c0-1.171-0.014-2.219-0.045-3.01c0-0.137,0.076-0.212,0.229-0.212h0.607c0.168,0,0.244,0.06,0.258,0.212
	c0.016,0.136,0.047,0.517,0.047,0.699C121.617,56.029,122.605,55.573,123.594,55.573"/>
<path fill="#231F20" d="M57.723,5.561c2.394,1.436,4.236,2.615,5.562,3.5c1.215-0.737,3.5-2.137,6.004-3.609l5.969-3.537
	c0.404-0.221,0.771-0.036,0.771,0.442v3.352c0,0.626-0.109,0.92-0.625,1.215l-4.383,2.542c-1.438,0.848-3.168,1.805-4.311,2.357
	c1.031,0.515,2.91,1.51,4.311,2.284l4.383,2.431c0.479,0.258,0.625,0.553,0.625,1.216v3.204c0,0.479-0.33,0.626-0.736,0.369
	l-7.883-4.715c-1.436-0.885-3.02-1.842-4.273-2.653c-1.067,0.663-2.983,1.878-5.045,3.094l-7.773,4.604
	c-0.441,0.258-0.811,0.073-0.811-0.405v-3.426c0-0.663,0.184-0.958,0.664-1.252l5.562-3.168c1.252-0.735,2.91-1.656,3.979-2.246
	l-3.868-2.1L50.172,5.93c-0.479-0.258-0.664-0.589-0.664-1.252V1.546c0-0.516,0.332-0.7,0.811-0.406L57.723,5.561z"/>
<path fill="#231F20" d="M49.508,27.18c0-0.516,0.221-0.737,0.701-0.737H75.33c0.479,0,0.699,0.221,0.699,0.737v6.041
	c0,4.789-0.994,7.957-3.277,10.13c-2.1,2.026-5.451,3.315-9.872,3.315c-4.458,0-8.141-1.215-10.609-3.831
	c-2.1-2.21-2.763-5.341-2.763-9.43V27.18z M72.273,31.122H53.266v2.247c0,2.283,0.442,4.531,1.842,6.041
	c1.548,1.658,4.273,2.467,7.699,2.467c3.131,0,5.526-0.663,6.961-1.841c1.658-1.363,2.506-3.425,2.506-6.558V31.122z"/>
<path fill="#231F20" d="M63.272,15.952h-0.415c-0.361,0-0.657,0.296-0.657,0.658v12.779c0,0.361,0.296,0.657,0.657,0.657h0.415
	c0.361,0,0.658-0.296,0.658-0.657V16.609C63.93,16.248,63.633,15.952,63.272,15.952"/>
<path fill="#231F20" d="M52.713,31.854c0,0,2.055,1.142,4.528-0.095c2.473-1.236,4.15,0.274,4.15,0.274s0.877,1.728,3.871,0.123
	c2.377-1.274,3.352-1.044,4.68,0.039c0.66,0.538,2.154,0.758,3.59-0.533c0,0-1.385-3.897-2.281-4.256
	c-0.898-0.359-17.988,0.203-17.988,0.203l-1.95,0.621L52.713,31.854z"/>
<path fill="#231F20" d="M95.178,87.601H31.445c-0.675,0-1.227-0.552-1.227-1.228V73.669c0-0.676,0.552-1.227,1.227-1.227h63.732
	c0.674,0,1.225,0.551,1.225,1.227v12.704C96.402,87.049,95.852,87.601,95.178,87.601"/>
<g>
	<path fill="#FFFFFF" d="M39.855,83.719c-0.93,0-1.631-0.31-2.106-0.929c-0.475-0.62-0.712-1.493-0.712-2.62
		c0-0.561,0.058-1.071,0.173-1.532c0.115-0.461,0.295-0.856,0.539-1.187c0.244-0.329,0.554-0.586,0.929-0.771
		c0.376-0.185,0.824-0.277,1.345-0.277c0.303,0,0.598,0.036,0.885,0.108c0.287,0.073,0.535,0.175,0.746,0.307
		c0.06,0.033,0.092,0.069,0.099,0.109c0.006,0.039-0.003,0.089-0.03,0.147l-0.089,0.208c-0.053,0.112-0.128,0.146-0.228,0.099
		c-0.237-0.111-0.468-0.194-0.692-0.247s-0.458-0.079-0.702-0.079c-0.718,0-1.262,0.261-1.631,0.781s-0.554,1.275-0.554,2.264
		c0,1.021,0.188,1.769,0.563,2.239c0.375,0.472,0.91,0.707,1.602,0.707c0.204,0,0.423-0.026,0.657-0.079s0.457-0.122,0.667-0.208
		c0.059-0.026,0.107-0.037,0.144-0.034c0.036,0.003,0.067,0.038,0.094,0.104l0.099,0.237c0.033,0.072,0.044,0.124,0.035,0.153
		s-0.041,0.061-0.094,0.094c-0.237,0.119-0.508,0.216-0.811,0.292C40.481,83.681,40.171,83.719,39.855,83.719z"/>
	<path fill="#FFFFFF" d="M45.025,83.719c-0.389,0-0.723-0.065-1.003-0.197s-0.511-0.314-0.692-0.549s-0.315-0.508-0.4-0.82
		c-0.086-0.313-0.128-0.651-0.128-1.014c0-0.475,0.059-0.89,0.178-1.245c0.119-0.356,0.287-0.651,0.504-0.885
		c0.217-0.234,0.475-0.411,0.771-0.529c0.296-0.119,0.623-0.178,0.979-0.178c0.389,0,0.724,0.065,1.003,0.197
		c0.28,0.132,0.511,0.315,0.692,0.549c0.181,0.234,0.314,0.508,0.4,0.82c0.085,0.313,0.128,0.651,0.128,1.014
		c0,0.475-0.06,0.89-0.178,1.245c-0.119,0.356-0.287,0.651-0.504,0.885c-0.218,0.234-0.475,0.411-0.771,0.529
		C45.708,83.659,45.381,83.719,45.025,83.719z M45.065,83.066c0.198,0,0.396-0.036,0.593-0.108s0.372-0.191,0.524-0.356
		c0.151-0.164,0.275-0.382,0.371-0.652c0.096-0.27,0.144-0.6,0.144-0.988c0-0.218-0.021-0.445-0.064-0.683s-0.12-0.453-0.232-0.647
		c-0.112-0.194-0.266-0.355-0.46-0.484c-0.194-0.128-0.443-0.192-0.747-0.192c-0.197,0-0.395,0.036-0.593,0.108
		c-0.198,0.073-0.373,0.191-0.524,0.356c-0.152,0.164-0.275,0.382-0.371,0.652c-0.095,0.271-0.143,0.6-0.143,0.988
		c0,0.218,0.021,0.445,0.064,0.683s0.121,0.453,0.232,0.647c0.112,0.194,0.265,0.355,0.46,0.484
		C44.513,83.002,44.762,83.066,45.065,83.066z"/>
	<path fill="#FFFFFF" d="M49.889,78.993c0.171-0.197,0.405-0.362,0.702-0.494c0.297-0.132,0.606-0.197,0.929-0.197
		c0.277,0,0.539,0.044,0.786,0.133s0.456,0.22,0.628,0.391c0.184,0.185,0.314,0.412,0.39,0.683s0.114,0.612,0.114,1.028v2.945
		c0,0.093-0.049,0.139-0.148,0.139h-0.425c-0.099,0-0.148-0.046-0.148-0.139v-2.521c0-0.422-0.015-0.753-0.044-0.994
		c-0.03-0.24-0.114-0.439-0.252-0.598c-0.211-0.237-0.557-0.355-1.038-0.355c-0.218,0-0.437,0.038-0.657,0.113
		c-0.221,0.076-0.397,0.18-0.529,0.312c-0.079,0.092-0.138,0.196-0.178,0.312s-0.066,0.266-0.079,0.449
		c-0.013,0.172-0.023,0.383-0.03,0.633c-0.006,0.251-0.01,0.537-0.01,0.86v1.789c0,0.093-0.049,0.139-0.148,0.139h-0.425
		c-0.099,0-0.148-0.046-0.148-0.139v-2.985c0-0.382-0.002-0.739-0.005-1.072c-0.003-0.333-0.012-0.628-0.025-0.885
		c0-0.093,0.049-0.139,0.148-0.139h0.396c0.105,0,0.161,0.046,0.168,0.139c0.006,0.046,0.013,0.118,0.02,0.217
		C49.886,78.855,49.889,78.935,49.889,78.993z"/>
	<path fill="#FFFFFF" d="M54.713,78.549c0-0.099,0.046-0.148,0.138-0.148h0.761v-0.336c0-0.712,0.153-1.242,0.46-1.592
		c0.306-0.35,0.756-0.524,1.349-0.524c0.323,0,0.633,0.066,0.93,0.198c0.059,0.026,0.095,0.055,0.108,0.084s0.01,0.074-0.01,0.134
		l-0.089,0.227c-0.02,0.054-0.044,0.086-0.074,0.1c-0.03,0.013-0.081,0.006-0.153-0.021c-0.151-0.053-0.287-0.085-0.405-0.099
		c-0.119-0.013-0.234-0.02-0.346-0.02c-0.389,0-0.661,0.13-0.815,0.391c-0.155,0.26-0.232,0.624-0.232,1.092V78.4h1.404
		c0.092,0,0.139,0.05,0.139,0.148v0.296c0,0.1-0.046,0.148-0.139,0.148h-1.404v4.488c0,0.093-0.049,0.139-0.148,0.139h-0.425
		c-0.099,0-0.148-0.046-0.148-0.139v-4.488h-0.761c-0.092,0-0.138-0.049-0.138-0.148V78.549z"/>
	<path fill="#FFFFFF" d="M60.981,83.719c-0.409,0-0.761-0.061-1.058-0.183c-0.297-0.122-0.544-0.295-0.742-0.52
		c-0.198-0.224-0.344-0.494-0.44-0.811c-0.095-0.316-0.143-0.669-0.143-1.058c0-0.415,0.056-0.797,0.168-1.146
		c0.112-0.35,0.27-0.65,0.475-0.904c0.204-0.254,0.451-0.45,0.741-0.589c0.29-0.138,0.616-0.207,0.979-0.207
		c0.349,0,0.654,0.067,0.915,0.202c0.26,0.136,0.478,0.321,0.652,0.559c0.174,0.237,0.305,0.52,0.39,0.846
		c0.086,0.326,0.129,0.681,0.129,1.062c0,0.204-0.056,0.307-0.168,0.307h-3.52c0.013,0.606,0.168,1.053,0.464,1.339
		c0.297,0.287,0.735,0.431,1.315,0.431c0.191,0,0.396-0.024,0.613-0.074c0.218-0.05,0.445-0.13,0.682-0.242
		c0.086-0.04,0.148-0.02,0.188,0.06l0.128,0.306c0.033,0.086,0.007,0.155-0.079,0.208C62.204,83.581,61.64,83.719,60.981,83.719z
		 M60.971,78.974c-0.455,0-0.815,0.146-1.083,0.44c-0.267,0.293-0.437,0.703-0.509,1.23h2.926c0-0.198-0.026-0.396-0.079-0.593
		c-0.053-0.198-0.133-0.376-0.242-0.534c-0.108-0.158-0.247-0.288-0.415-0.391S61.202,78.974,60.971,78.974z"/>
	<path fill="#FFFFFF" d="M65.45,79.508c0.164-0.35,0.396-0.63,0.691-0.841c0.297-0.211,0.606-0.316,0.93-0.316
		c0.079,0,0.137,0.01,0.173,0.03c0.036,0.02,0.055,0.065,0.055,0.138v0.347c0,0.039-0.009,0.072-0.025,0.099
		c-0.016,0.026-0.051,0.046-0.104,0.06c-0.257,0.046-0.473,0.112-0.647,0.197c-0.175,0.086-0.328,0.194-0.46,0.326
		c-0.211,0.211-0.362,0.472-0.454,0.781c-0.093,0.31-0.139,0.719-0.139,1.226v1.928c0,0.093-0.05,0.139-0.148,0.139h-0.425
		c-0.1,0-0.148-0.046-0.148-0.139v-2.985c0-0.382-0.002-0.739-0.005-1.072s-0.012-0.628-0.024-0.885
		c0-0.093,0.049-0.139,0.148-0.139h0.385c0.105,0,0.162,0.046,0.168,0.139c0.014,0.112,0.021,0.26,0.025,0.444
		C65.448,79.168,65.45,79.343,65.45,79.508z"/>
	<path fill="#FFFFFF" d="M70.452,83.719c-0.409,0-0.762-0.061-1.059-0.183c-0.296-0.122-0.543-0.295-0.741-0.52
		c-0.197-0.224-0.345-0.494-0.439-0.811c-0.096-0.316-0.144-0.669-0.144-1.058c0-0.415,0.056-0.797,0.168-1.146
		s0.271-0.65,0.475-0.904s0.451-0.45,0.741-0.589c0.29-0.138,0.616-0.207,0.979-0.207c0.35,0,0.654,0.067,0.915,0.202
		c0.26,0.136,0.478,0.321,0.652,0.559s0.305,0.52,0.391,0.846c0.085,0.326,0.128,0.681,0.128,1.062c0,0.204-0.056,0.307-0.168,0.307
		h-3.52c0.014,0.606,0.168,1.053,0.465,1.339c0.297,0.287,0.735,0.431,1.315,0.431c0.19,0,0.396-0.024,0.612-0.074
		c0.218-0.05,0.445-0.13,0.683-0.242c0.085-0.04,0.148-0.02,0.188,0.06l0.129,0.306c0.032,0.086,0.006,0.155-0.079,0.208
		C71.674,83.581,71.11,83.719,70.452,83.719z M70.441,78.974c-0.454,0-0.815,0.146-1.082,0.44c-0.267,0.293-0.437,0.703-0.509,1.23
		h2.926c0-0.198-0.026-0.396-0.079-0.593c-0.053-0.198-0.134-0.376-0.242-0.534s-0.247-0.288-0.415-0.391
		S70.673,78.974,70.441,78.974z"/>
	<path fill="#FFFFFF" d="M74.931,78.993c0.171-0.197,0.405-0.362,0.702-0.494c0.296-0.132,0.605-0.197,0.929-0.197
		c0.277,0,0.539,0.044,0.786,0.133s0.456,0.22,0.628,0.391c0.185,0.185,0.314,0.412,0.391,0.683
		c0.075,0.271,0.113,0.612,0.113,1.028v2.945c0,0.093-0.05,0.139-0.148,0.139h-0.425c-0.099,0-0.148-0.046-0.148-0.139v-2.521
		c0-0.422-0.015-0.753-0.044-0.994c-0.03-0.24-0.114-0.439-0.253-0.598c-0.211-0.237-0.557-0.355-1.038-0.355
		c-0.217,0-0.437,0.038-0.657,0.113c-0.221,0.076-0.396,0.18-0.528,0.312c-0.079,0.092-0.139,0.196-0.179,0.312
		c-0.039,0.115-0.065,0.266-0.079,0.449c-0.013,0.172-0.022,0.383-0.029,0.633c-0.007,0.251-0.01,0.537-0.01,0.86v1.789
		c0,0.093-0.05,0.139-0.148,0.139h-0.425c-0.099,0-0.148-0.046-0.148-0.139v-2.985c0-0.382-0.002-0.739-0.005-1.072
		c-0.004-0.333-0.012-0.628-0.024-0.885c0-0.093,0.049-0.139,0.147-0.139h0.396c0.105,0,0.162,0.046,0.168,0.139
		c0.007,0.046,0.014,0.118,0.021,0.217C74.927,78.855,74.931,78.935,74.931,78.993z"/>
	<path fill="#FFFFFF" d="M82.384,83.719c-0.336,0-0.644-0.062-0.924-0.188s-0.521-0.302-0.722-0.529s-0.356-0.502-0.465-0.825
		S80.11,81.495,80.11,81.1c0-0.462,0.062-0.869,0.188-1.222s0.297-0.644,0.515-0.875c0.217-0.23,0.47-0.405,0.756-0.523
		c0.287-0.119,0.592-0.178,0.914-0.178c0.567,0,1.091,0.154,1.572,0.465c0.072,0.053,0.086,0.125,0.04,0.217L83.937,79.3
		c-0.033,0.053-0.069,0.081-0.109,0.084c-0.039,0.004-0.079-0.008-0.118-0.034c-0.218-0.132-0.422-0.228-0.613-0.287
		s-0.392-0.089-0.603-0.089c-0.481,0-0.872,0.182-1.172,0.544s-0.45,0.873-0.45,1.532c0,0.323,0.04,0.608,0.119,0.855
		s0.191,0.454,0.336,0.622s0.316,0.297,0.514,0.386c0.198,0.089,0.412,0.134,0.643,0.134c0.211,0,0.422-0.03,0.633-0.089
		c0.211-0.06,0.412-0.135,0.604-0.228c0.105-0.053,0.178-0.029,0.218,0.069l0.108,0.296c0.039,0.1,0.02,0.172-0.06,0.218
		c-0.23,0.132-0.479,0.232-0.746,0.302S82.688,83.719,82.384,83.719z"/>
	<path fill="#FFFFFF" d="M87.634,83.719c-0.409,0-0.762-0.061-1.059-0.183c-0.296-0.122-0.543-0.295-0.741-0.52
		c-0.197-0.224-0.345-0.494-0.439-0.811c-0.096-0.316-0.144-0.669-0.144-1.058c0-0.415,0.056-0.797,0.168-1.146
		s0.271-0.65,0.475-0.904s0.451-0.45,0.741-0.589c0.29-0.138,0.616-0.207,0.979-0.207c0.35,0,0.654,0.067,0.915,0.202
		c0.26,0.136,0.478,0.321,0.652,0.559s0.305,0.52,0.391,0.846c0.085,0.326,0.128,0.681,0.128,1.062c0,0.204-0.056,0.307-0.168,0.307
		h-3.52c0.014,0.606,0.168,1.053,0.465,1.339c0.297,0.287,0.735,0.431,1.315,0.431c0.19,0,0.396-0.024,0.612-0.074
		c0.218-0.05,0.445-0.13,0.683-0.242c0.085-0.04,0.148-0.02,0.188,0.06l0.129,0.306c0.032,0.086,0.006,0.155-0.079,0.208
		C88.855,83.581,88.292,83.719,87.634,83.719z M87.623,78.974c-0.454,0-0.815,0.146-1.082,0.44c-0.267,0.293-0.437,0.703-0.509,1.23
		h2.926c0-0.198-0.026-0.396-0.079-0.593c-0.053-0.198-0.134-0.376-0.242-0.534s-0.247-0.288-0.415-0.391
		S87.854,78.974,87.623,78.974z"/>
</g>
<g>
</g>
<g>
</g>
<g>
</g>
<g>
</g>
<g>
</g>
<g>
</g>
</svg>
