<?xml version="1.0" encoding="utf-8"?>
<!-- Generator: Adobe Illustrator 16.0.4, SVG Export Plug-In . SVG Version: 6.00 Build 0)  -->
<!DOCTYPE svg PUBLIC "-//W3C//DTD SVG 1.1//EN" "http://www.w3.org/Graphics/SVG/1.1/DTD/svg11.dtd">
<svg version="1.1" id="Layer_1" xmlns="http://www.w3.org/2000/svg" xmlns:xlink="http://www.w3.org/1999/xlink" x="0px" y="0px"
	 width="184.261px" height="128px" viewBox="0 0 184.261 128" enable-background="new 0 0 184.261 128" xml:space="preserve">
<line fill="none" x1="-300.455" y1="143.327" x2="482.161" y2="143.327"/>
<line fill="none" x1="-300.455" y1="143.328" x2="482.161" y2="143.328"/>
<path fill="#FFFFFF" d="M0.376,92.372C0.133,92.372,0,92.238,0,92.018V76.79c0-0.222,0.133-0.354,0.376-0.354h8.057
	c0.243,0,0.376,0.133,0.376,0.354v0.753c0,0.221-0.133,0.354-0.376,0.354H1.704v5.688h5.689c0.243,0,0.375,0.133,0.375,0.332v0.752
	c0,0.222-0.132,0.354-0.375,0.354H1.704v5.887h6.817c0.244,0,0.376,0.134,0.376,0.354v0.753c0,0.221-0.132,0.354-0.376,0.354H0.376z
	"/>
<path fill="#FFFFFF" d="M21.106,91.995c0.111,0.177,0.067,0.376-0.199,0.376h-0.996c-0.332,0-0.421-0.044-0.576-0.287l-1.416-2.17
	L16.17,87.26l-1.593,2.633l-1.328,2.191c-0.133,0.222-0.222,0.287-0.554,0.287h-1.018c-0.266,0-0.31-0.199-0.177-0.397l2.302-3.497
	c0.598-0.931,1.128-1.683,1.571-2.324l-1.593-2.347l-1.859-2.744c-0.111-0.177-0.067-0.376,0.199-0.376h0.996
	c0.332,0,0.42,0.044,0.575,0.287l0.996,1.506c0.531,0.797,1.35,2.058,1.638,2.545c0.288-0.509,1.04-1.748,1.527-2.545l0.93-1.506
	c0.133-0.222,0.221-0.287,0.553-0.287h0.974c0.266,0,0.31,0.199,0.177,0.397l-1.793,2.723l-1.549,2.324
	c0.509,0.708,0.996,1.416,1.638,2.368L21.106,91.995z"/>
<path fill="#FFFFFF" d="M29.117,80.464c1.217,0,2.257,0.442,2.966,1.15c1.084,1.062,1.615,2.724,1.615,4.561
	c0,4.359-2.456,6.396-5.134,6.396c-1.019,0-2.103-0.376-2.789-0.841v5.666c0,0.222-0.111,0.332-0.332,0.332h-0.952
	c-0.221,0-0.332-0.11-0.332-0.332V85.378c0-1.704-0.022-3.231-0.067-4.383c0-0.199,0.111-0.311,0.333-0.311h0.885
	c0.243,0,0.354,0.089,0.376,0.311c0.022,0.199,0.089,0.818,0.089,1.084C26.527,81.128,27.723,80.464,29.117,80.464 M28.984,82.079
	c-0.996,0-1.881,0.332-2.457,0.886c-0.619,0.598-0.752,1.328-0.752,3.851v3.409c0.642,0.487,1.637,0.863,2.678,0.863
	c2.147,0,3.541-1.903,3.541-4.736C31.994,83.386,30.932,82.079,28.984,82.079"/>
<path fill="#FFFFFF" d="M36.529,86.838c0-3.739,2.059-6.374,5.29-6.374c3.143,0,4.671,2.567,4.671,5.977
	c0,0.485-0.134,0.686-0.377,0.686h-7.88c0.045,2.7,1.395,3.961,3.984,3.961c0.842,0,1.838-0.198,2.9-0.708
	c0.199-0.088,0.31-0.065,0.421,0.133l0.288,0.688c0.088,0.221,0.044,0.331-0.178,0.464c-1.04,0.62-2.279,0.93-3.784,0.93
	C38.233,92.593,36.529,90.335,36.529,86.838 M38.278,85.709h6.551c0-1.748-0.907-3.74-2.987-3.74
	C39.805,81.969,38.588,83.363,38.278,85.709"/>
<path fill="#FFFFFF" d="M54.728,80.574c0.354,0,0.509,0.067,0.509,0.376v0.775c0,0.177-0.044,0.31-0.288,0.354
	c-1.151,0.199-1.903,0.576-2.479,1.173c-0.929,0.952-1.328,2.215-1.328,4.493v4.316c0,0.2-0.11,0.31-0.331,0.31h-0.953
	c-0.221,0-0.331-0.109-0.331-0.31v-6.685c0-1.703-0.022-3.23-0.067-4.382c0-0.2,0.111-0.31,0.332-0.31h0.863
	c0.244,0,0.355,0.088,0.377,0.31c0.044,0.487,0.066,1.438,0.066,2.168C51.828,81.614,53.289,80.574,54.728,80.574"/>
<path fill="#FFFFFF" d="M57.61,78.251c-0.221,0-0.332-0.111-0.332-0.311v-1.571c0-0.199,0.111-0.31,0.332-0.31h1.505
	c0.244,0,0.354,0.11,0.354,0.31v1.571c0,0.199-0.11,0.311-0.354,0.311H57.61z M57.898,92.372c-0.222,0-0.332-0.111-0.332-0.311
	V80.995c0-0.199,0.11-0.311,0.332-0.311h0.952c0.221,0,0.331,0.111,0.331,0.311v11.066c0,0.199-0.11,0.311-0.331,0.311H57.898z"/>
<path fill="#FFFFFF" d="M61.696,86.838c0-3.739,2.059-6.374,5.29-6.374c3.143,0,4.671,2.567,4.671,5.977
	c0,0.485-0.134,0.686-0.377,0.686h-7.879c0.044,2.7,1.394,3.961,3.983,3.961c0.842,0,1.838-0.198,2.9-0.708
	c0.199-0.088,0.31-0.065,0.421,0.133l0.288,0.688c0.088,0.221,0.044,0.331-0.178,0.464c-1.04,0.62-2.279,0.93-3.784,0.93
	C63.401,92.593,61.696,90.335,61.696,86.838 M63.445,85.709h6.551c0-1.748-0.907-3.74-2.988-3.74
	C64.972,81.969,63.755,83.363,63.445,85.709"/>
<path fill="#FFFFFF" d="M79.459,80.464c1.239,0,2.39,0.42,3.165,1.173c0.819,0.819,1.129,1.992,1.129,3.829v6.596
	c0,0.199-0.111,0.311-0.333,0.311H82.47c-0.221,0-0.332-0.111-0.332-0.311v-5.644c0-1.882-0.045-2.855-0.664-3.564
	c-0.465-0.53-1.261-0.796-2.324-0.796c-0.974,0-2.081,0.354-2.656,0.951c-0.354,0.399-0.509,0.886-0.576,1.705
	c-0.066,0.774-0.088,1.903-0.088,3.342v4.006c0,0.199-0.111,0.311-0.332,0.311h-0.952c-0.221,0-0.332-0.111-0.332-0.311v-6.684
	c0-1.705-0.022-3.232-0.066-4.383c0-0.199,0.11-0.311,0.332-0.311h0.885c0.244,0,0.354,0.089,0.376,0.311
	c0.022,0.199,0.067,0.753,0.067,1.018C76.582,81.128,78.021,80.464,79.459,80.464"/>
<path fill="#FFFFFF" d="M86.156,86.728c0-4.161,2.435-6.264,5.312-6.264c1.283,0,2.457,0.354,3.52,1.04
	c0.199,0.133,0.199,0.266,0.088,0.487l-0.354,0.708c-0.133,0.243-0.332,0.221-0.51,0.111c-0.973-0.576-1.77-0.841-2.723-0.841
	c-2.146,0-3.629,1.726-3.629,4.646c0,2.878,1.527,4.471,3.608,4.471c0.93,0,1.904-0.287,2.768-0.708
	c0.266-0.132,0.396-0.065,0.486,0.155l0.242,0.664c0.09,0.221,0.068,0.377-0.133,0.487c-1.039,0.576-2.234,0.907-3.584,0.907
	C88.215,92.593,86.156,90.291,86.156,86.728"/>
<path fill="#FFFFFF" d="M97.374,86.838c0-3.739,2.061-6.374,5.291-6.374c3.143,0,4.67,2.567,4.67,5.977
	c0,0.485-0.133,0.686-0.377,0.686h-7.879c0.045,2.7,1.395,3.961,3.984,3.961c0.842,0,1.838-0.198,2.898-0.708
	c0.199-0.088,0.311-0.065,0.422,0.133l0.287,0.688c0.09,0.221,0.045,0.331-0.178,0.464c-1.039,0.62-2.279,0.93-3.783,0.93
	C99.079,92.593,97.374,90.335,97.374,86.838 M99.124,85.709h6.551c0-1.748-0.906-3.74-2.986-3.74
	C100.651,81.969,99.435,83.363,99.124,85.709"/>
<path fill="#FFFFFF" d="M130.192,90.423c-1.373,1.439-3.209,1.948-6.043,1.948h-3.055c-0.242,0-0.375-0.132-0.375-0.354V76.789
	c0-0.221,0.133-0.354,0.375-0.354h3.055c2.834,0,4.67,0.509,6.043,1.947c1.217,1.262,1.947,3.209,1.947,6.021
	C132.14,87.214,131.409,89.162,130.192,90.423 M129.042,79.689c-0.863-1.107-2.348-1.793-4.693-1.793h-1.926v13.015h1.926
	c2.346,0,3.83-0.687,4.693-1.793c0.84-1.04,1.328-2.59,1.328-4.715S129.882,80.729,129.042,79.689"/>
<path fill="#FFFFFF" d="M134.534,86.838c0-3.739,2.059-6.374,5.291-6.374c3.143,0,4.67,2.567,4.67,5.977
	c0,0.485-0.133,0.686-0.377,0.686h-7.879c0.045,2.7,1.395,3.961,3.984,3.961c0.842,0,1.838-0.198,2.898-0.708
	c0.199-0.088,0.311-0.065,0.422,0.133l0.287,0.688c0.088,0.221,0.045,0.331-0.178,0.464c-1.039,0.62-2.279,0.93-3.783,0.93
	C136.239,92.593,134.534,90.335,134.534,86.838 M136.284,85.709h6.551c0-1.748-0.908-3.74-2.988-3.74
	C137.812,81.969,136.593,83.363,136.284,85.709"/>
<path fill="#FFFFFF" d="M150.085,92.593c-1.307,0-2.678-0.398-3.564-0.996c-0.242-0.155-0.242-0.332-0.133-0.531l0.287-0.53
	c0.111-0.2,0.244-0.311,0.488-0.178c1.129,0.598,1.947,0.818,2.967,0.818c1.592,0,2.588-0.929,2.588-2.103
	c0-2.854-6.264-1.084-6.264-5.312c0-2.103,1.816-3.298,3.941-3.298c1.305,0,2.59,0.442,3.562,1.239c0.199,0.155,0.199,0.333,0,0.598
	l-0.377,0.465c-0.154,0.177-0.287,0.199-0.486,0.044c-0.818-0.598-1.727-0.929-2.766-0.929c-1.551,0-2.348,0.752-2.348,1.792
	c0,2.899,6.264,1.041,6.264,5.356C154.245,91.044,152.651,92.593,150.085,92.593"/>
<path fill="#FFFFFF" d="M157.63,78.251c-0.221,0-0.332-0.111-0.332-0.311v-1.571c0-0.199,0.111-0.31,0.332-0.31h1.506
	c0.244,0,0.354,0.11,0.354,0.31v1.571c0,0.199-0.109,0.311-0.354,0.311H157.63z M157.919,92.372c-0.223,0-0.332-0.111-0.332-0.311
	V80.995c0-0.199,0.109-0.311,0.332-0.311h0.951c0.221,0,0.332,0.111,0.332,0.311v11.066c0,0.199-0.111,0.311-0.332,0.311H157.919z"
	/>
<path fill="#FFFFFF" d="M169.905,92.57v-1.793c-0.73,1.04-1.969,1.683-3.342,1.683c-3.363,0-4.848-2.789-4.848-5.798
	c0-3.896,2.348-6.198,5.201-6.198c1.195,0,2.436,0.598,3.145,1.482c0.021-0.442,0.064-0.797,0.109-1.018
	c0.045-0.199,0.154-0.244,0.332-0.244h0.576c0.287,0,0.354,0.089,0.375,0.332c0.045,0.819,0.068,2.014,0.068,3.077v8.632
	c0,1.66-0.4,3.01-1.328,3.939c-0.82,0.819-2.037,1.283-3.854,1.283c-0.973,0-2.168-0.177-2.699-0.33
	c-0.287-0.09-0.311-0.223-0.266-0.422l0.133-0.642c0.066-0.266,0.133-0.332,0.465-0.266c0.797,0.154,1.527,0.243,2.412,0.243
	c1.262,0,2.125-0.354,2.656-0.951C169.661,94.873,169.905,93.877,169.905,92.57 M169.087,89.893
	c0.508-0.642,0.818-1.616,0.818-2.944v-3.475c-0.531-0.885-1.814-1.527-2.943-1.527c-2.457,0-3.541,2.191-3.541,4.582
	c0,2.59,1.107,4.448,3.342,4.448C167.626,90.977,168.534,90.601,169.087,89.893"/>
<path fill="#FFFFFF" d="M179.966,80.464c1.24,0,2.391,0.42,3.166,1.173c0.818,0.819,1.129,1.992,1.129,3.829v6.596
	c0,0.199-0.111,0.311-0.334,0.311h-0.951c-0.221,0-0.332-0.111-0.332-0.311v-5.644c0-1.882-0.045-2.855-0.664-3.564
	c-0.465-0.53-1.26-0.796-2.322-0.796c-0.975,0-2.082,0.354-2.656,0.951c-0.355,0.399-0.51,0.886-0.576,1.705
	c-0.066,0.774-0.088,1.903-0.088,3.342v4.006c0,0.199-0.111,0.311-0.332,0.311h-0.953c-0.221,0-0.332-0.111-0.332-0.311v-6.684
	c0-1.705-0.021-3.232-0.064-4.383c0-0.199,0.109-0.311,0.332-0.311h0.885c0.244,0,0.354,0.089,0.375,0.311
	c0.021,0.199,0.066,0.753,0.066,1.018C177.089,81.128,178.528,80.464,179.966,80.464"/>
<path fill="#FFFFFF" d="M109.798,9.626c0.75-0.43,0.912-0.859,0.912-1.771V2.975c0-0.697-0.537-0.965-1.127-0.644l-8.689,5.149
	c-3.646,2.146-6.973,4.184-8.744,5.256c-1.93-1.287-4.612-3.004-8.098-5.096L73.27,1.205c-0.697-0.43-1.18-0.161-1.18,0.59v4.559
	c0,0.966,0.268,1.448,0.965,1.824l8.261,4.559l5.631,3.058c-1.555,0.858-3.969,2.199-5.793,3.271l-8.099,4.612
	c-0.697,0.43-0.965,0.858-0.965,1.824v4.987c0,0.698,0.537,0.967,1.18,0.592l11.317-6.705c3.004-1.771,5.793-3.54,7.348-4.505
	c1.824,1.18,4.131,2.573,6.223,3.861l11.479,6.865c0.59,0.375,1.074,0.16,1.074-0.537v-4.666c0-0.965-0.217-1.394-0.912-1.77
	l-6.383-3.54c-2.039-1.126-4.775-2.575-6.277-3.326c1.664-0.804,4.184-2.198,6.277-3.433L109.798,9.626z"/>
<path fill="#FFFFFF" d="M109.69,38.049H92.556V25.312c0-0.484-0.395-0.88-0.879-0.88h-0.555c-0.484,0-0.879,0.396-0.879,0.88v12.736
	H73.109c-0.697,0-1.019,0.32-1.019,1.073v9.063c0,5.953,0.965,10.512,4.022,13.731c3.594,3.808,8.957,5.576,15.449,5.576
	c6.436,0,11.316-1.877,14.373-4.826c3.326-3.163,4.773-7.777,4.773-14.749v-8.796C110.708,38.369,110.386,38.049,109.69,38.049
	 M101.591,57.84c-2.092,1.717-5.58,2.682-10.139,2.682c-4.986,0-8.957-1.18-11.209-3.594c-2.038-2.198-2.681-5.471-2.681-8.796
	v-1.874c1.125,0.37,3.312,0.768,5.787-0.469c3.601-1.802,6.043,0.399,6.043,0.399s1.278,2.514,5.639,0.178
	c3.459-1.854,4.877-1.52,6.812,0.057c0.68,0.553,1.965,0.856,3.395,0.338v1.532C105.237,52.853,104.005,55.855,101.591,57.84"/>
<path fill="#FFFFFF" d="M88.793,114.54c-1.324,0-2.116,0.906-2.317,2.433h4.259C90.736,115.835,90.145,114.54,88.793,114.54"/>
<path fill="#FFFFFF" d="M102.599,114.54c-1.324,0-2.117,0.906-2.318,2.433h4.26C104.54,115.835,103.95,114.54,102.599,114.54"/>
<path fill="#FFFFFF" d="M65.819,114.512c-1.166,0-2.374,0.791-2.374,3.064c0,1.267,0.417,2.921,2.187,2.921
	c1.166,0,2.374-0.791,2.374-3.064C68.005,116.166,67.588,114.512,65.819,114.512"/>
<path fill="#FFFFFF" d="M127.616,114.54c-1.324,0-2.115,0.906-2.316,2.433h4.26C129.56,115.835,128.968,114.54,127.616,114.54"/>
<path fill="#FFFFFF" d="M138.589,105.027H45.788c-0.983,0-1.787,0.804-1.787,1.786v18.5c0,0.982,0.804,1.786,1.787,1.786h92.801
	c0.98,0,1.785-0.804,1.785-1.786v-18.5C140.374,105.831,139.569,105.027,138.589,105.027 M60.75,111.777l-0.129,0.303
	c-0.086,0.186-0.173,0.215-0.331,0.143c-0.691-0.315-1.324-0.475-2.029-0.475c-2.073,0-3.181,1.569-3.181,4.433
	c0,2.979,1.137,4.288,3.152,4.288c0.59,0,1.31-0.173,1.928-0.418c0.173-0.071,0.274-0.086,0.346,0.102l0.143,0.345
	c0.087,0.202,0.072,0.274-0.086,0.36c-0.691,0.346-1.612,0.59-2.533,0.59c-2.691,0-4.101-1.899-4.101-5.166
	c0-3.252,1.309-5.482,4.346-5.482c0.878,0,1.756,0.23,2.374,0.604C60.822,111.504,60.822,111.605,60.75,111.777 M65.574,121.447
	c-2.259,0-3.238-1.641-3.238-3.756c0-2.763,1.468-4.129,3.54-4.129c2.259,0,3.238,1.64,3.238,3.755
	C69.114,120.08,67.646,121.447,65.574,121.447 M77.822,121.103c0,0.13-0.072,0.201-0.215,0.201h-0.619
	c-0.144,0-0.216-0.071-0.216-0.201v-3.67c0-1.223-0.029-1.856-0.431-2.316c-0.303-0.346-0.821-0.52-1.512-0.52
	c-0.633,0-1.352,0.231-1.726,0.62c-0.231,0.258-0.332,0.575-0.375,1.107c-0.043,0.504-0.057,1.238-0.057,2.174v2.604
	c0,0.13-0.072,0.201-0.216,0.201h-0.619c-0.144,0-0.216-0.071-0.216-0.201v-4.347c0-1.107-0.014-2.101-0.043-2.849
	c0-0.13,0.072-0.202,0.216-0.202h0.575c0.159,0,0.231,0.058,0.245,0.202c0.015,0.129,0.044,0.489,0.044,0.662
	c0.503-0.576,1.439-1.007,2.374-1.007c0.806,0,1.554,0.272,2.057,0.762c0.533,0.533,0.734,1.295,0.734,2.49V121.103z
	 M85.122,110.741l-0.13,0.331c-0.058,0.159-0.116,0.187-0.331,0.115c-0.446-0.145-0.763-0.174-1.094-0.174
	c-1.137,0-1.526,0.792-1.526,2.159v0.532h2.044c0.13,0,0.202,0.072,0.202,0.217v0.432c0,0.144-0.072,0.216-0.202,0.216h-2.044v6.533
	c0,0.13-0.071,0.201-0.215,0.201h-0.619c-0.144,0-0.216-0.071-0.216-0.201v-6.533h-1.108c-0.13,0-0.201-0.072-0.201-0.216v-0.432
	c0-0.145,0.071-0.217,0.201-0.217h1.108v-0.489c0-2.057,0.921-3.079,2.634-3.079c0.475,0,0.935,0.102,1.352,0.287
	C85.15,110.496,85.179,110.568,85.122,110.741 M91.569,117.894h-5.122c0.029,1.755,0.906,2.575,2.591,2.575
	c0.546,0,1.194-0.129,1.885-0.461c0.128-0.057,0.201-0.043,0.273,0.087l0.188,0.446c0.057,0.145,0.029,0.216-0.115,0.302
	c-0.677,0.403-1.482,0.604-2.461,0.604c-2.36,0-3.468-1.468-3.468-3.741c0-2.432,1.338-4.144,3.439-4.144
	c2.044,0,3.037,1.669,3.037,3.885C91.815,117.763,91.729,117.894,91.569,117.894 M98.005,114.382c0,0.115-0.029,0.201-0.186,0.23
	c-0.75,0.13-1.238,0.374-1.613,0.763c-0.604,0.618-0.863,1.439-0.863,2.921v2.807c0,0.13-0.072,0.201-0.215,0.201h-0.619
	c-0.145,0-0.217-0.071-0.217-0.201v-4.347c0-1.107-0.014-2.101-0.043-2.849c0-0.13,0.072-0.202,0.217-0.202h0.561
	c0.158,0,0.23,0.058,0.244,0.202c0.029,0.315,0.043,0.936,0.043,1.41c0.477-1.007,1.426-1.685,2.361-1.685
	c0.23,0,0.33,0.043,0.33,0.245V114.382z M105.374,117.894h-5.123c0.029,1.755,0.908,2.575,2.592,2.575
	c0.547,0,1.193-0.129,1.885-0.461c0.129-0.057,0.201-0.043,0.273,0.087l0.186,0.446c0.059,0.145,0.029,0.216-0.113,0.302
	c-0.678,0.403-1.482,0.604-2.461,0.604c-2.361,0-3.469-1.468-3.469-3.741c0-2.432,1.338-4.144,3.439-4.144
	c2.043,0,3.037,1.669,3.037,3.885C105.62,117.763,105.534,117.894,105.374,117.894 M114.3,121.103c0,0.13-0.072,0.201-0.217,0.201
	h-0.617c-0.146,0-0.217-0.071-0.217-0.201v-3.67c0-1.223-0.029-1.856-0.432-2.316c-0.303-0.346-0.82-0.52-1.512-0.52
	c-0.633,0-1.352,0.231-1.727,0.62c-0.23,0.258-0.33,0.575-0.373,1.107c-0.043,0.504-0.059,1.238-0.059,2.174v2.604
	c0,0.13-0.07,0.201-0.215,0.201h-0.621c-0.143,0-0.215-0.071-0.215-0.201v-4.347c0-1.107-0.014-2.101-0.043-2.849
	c0-0.13,0.072-0.202,0.215-0.202h0.576c0.16,0,0.232,0.058,0.246,0.202c0.014,0.129,0.043,0.489,0.043,0.662
	c0.502-0.576,1.439-1.007,2.373-1.007c0.807,0,1.555,0.272,2.059,0.762c0.533,0.533,0.734,1.295,0.734,2.49V121.103z
	 M122.476,114.554l-0.229,0.461c-0.088,0.158-0.217,0.145-0.332,0.072c-0.633-0.374-1.152-0.547-1.771-0.547
	c-1.395,0-2.357,1.123-2.357,3.022c0,1.87,0.99,2.906,2.344,2.906c0.604,0,1.238-0.187,1.799-0.461
	c0.172-0.086,0.26-0.043,0.318,0.102l0.156,0.432c0.059,0.145,0.043,0.245-0.086,0.316c-0.676,0.375-1.453,0.59-2.332,0.59
	c-1.971,0-3.309-1.496-3.309-3.813c0-2.705,1.582-4.071,3.453-4.071c0.836,0,1.598,0.229,2.289,0.676
	C122.548,114.324,122.548,114.411,122.476,114.554 M130.394,117.894h-5.123c0.029,1.755,0.906,2.575,2.59,2.575
	c0.547,0,1.195-0.129,1.887-0.461c0.129-0.057,0.201-0.043,0.271,0.087l0.188,0.446c0.059,0.145,0.029,0.216-0.115,0.302
	c-0.676,0.403-1.482,0.604-2.461,0.604c-2.359,0-3.467-1.468-3.467-3.741c0-2.432,1.338-4.144,3.438-4.144
	c2.045,0,3.037,1.669,3.037,3.885C130.638,117.763,130.552,117.894,130.394,117.894"/>
<g>
</g>
<g>
</g>
<g>
</g>
<g>
</g>
<g>
</g>
<g>
</g>
</svg>
