<?xml version="1.0" encoding="utf-8"?>
<!-- Generator: Adobe Illustrator 16.0.4, SVG Export Plug-In . SVG Version: 6.00 Build 0)  -->
<!DOCTYPE svg PUBLIC "-//W3C//DTD SVG 1.1//EN" "http://www.w3.org/Graphics/SVG/1.1/DTD/svg11.dtd">
<svg version="1.1" id="Layer_1" xmlns="http://www.w3.org/2000/svg" xmlns:xlink="http://www.w3.org/1999/xlink" x="0px" y="0px"
	 width="128px" height="138.745px" viewBox="0 0 128 138.745" enable-background="new 0 0 128 138.745" xml:space="preserve">
<g id="Group-3_2_">
	<g id="Clip-2_3_">
	</g>
	<defs>
		<filter id="Adobe_OpacityMaskFilter" filterUnits="userSpaceOnUse" x="0.862" y="1" width="126.404" height="137.745">
			<feColorMatrix  type="matrix" values="1 0 0 0 0  0 1 0 0 0  0 0 1 0 0  0 0 0 1 0"/>
		</filter>
	</defs>
	<mask maskUnits="userSpaceOnUse" x="0.862" y="1" width="126.404" height="137.745" id="mask-22_1_">
		<g filter="url(#Adobe_OpacityMaskFilter)">
			<path id="path-21_1_" fill="#FFFFFF" d="M0.862,138.745h126.405V1H0.862V138.745L0.862,138.745z"/>
		</g>
	</mask>
	<path id="Fill-1_12_" mask="url(#mask-22_1_)" fill="#FFFFFF" d="M16.938,52.296c-0.879-1.402-3.863-5.564-3.004-8.988
		c0.858-3.423,4.114-16.349,5.364-19.899C21.62,19.294,29.653,4.82,56.418,1.795c20.812-2.14,52.353-1.283,64.153,19.687
		c11.801,20.971,4.721,47.506,3.219,49.646c-1.502,2.139-12.443,31.242-10.728,35.307c1.716,4.066,9.226,32.312,9.226,32.312h-70.59
		c0,0-3.863-12.409-4.506-13.052c-0.643-0.643-2.79-4.28-6.222-3.639c-3.433,0.643-17.379,2.14-19.096,1.928
		c-1.717-0.216-7.295-2.355-7.295-8.347c0-5.992-0.956-10.272-0.956-10.272s-3.55-4.493-3.765-5.777
		c-0.214-1.283-1.073-2.566,0-2.996l1.073-0.427c0,0-1.25-2.021-1.601-2.567c-0.57-0.888-0.004-2.355-0.004-2.355
		s1.549-4.047,1.819-4.921c0.271-0.873-0.257-1.949-0.859-2.354c-0.6-0.405-4.852-0.957-5.578-1.07
		c-0.25,0.013-3.836-0.125-3.846-3.12c-0.01-2.996,1.915-4.37,2.344-5.225c0.43-0.856,12.874-18.189,12.874-18.189
		S17.818,53.698,16.938,52.296"/>
</g>
<g>
</g>
<g>
</g>
<g>
</g>
<g>
</g>
<g>
</g>
<g>
</g>
</svg>
