<?xml version="1.0" encoding="utf-8"?>
<!-- Generator: Adobe Illustrator 16.0.4, SVG Export Plug-In . SVG Version: 6.00 Build 0)  -->
<!DOCTYPE svg PUBLIC "-//W3C//DTD SVG 1.1//EN" "http://www.w3.org/Graphics/SVG/1.1/DTD/svg11.dtd">
<svg version="1.1" id="Layer_1" xmlns="http://www.w3.org/2000/svg" xmlns:xlink="http://www.w3.org/1999/xlink" x="0px" y="0px"
	 width="128px" height="128px" viewBox="0 0 128 128" enable-background="new 0 0 128 128" xml:space="preserve">
<path fill-rule="evenodd" clip-rule="evenodd" fill="#F26822" d="M114.203,103.464c-2.788-2.802-7.329-2.802-10.122,0
	c-2.802,2.806-2.802,7.334-0.012,10.14c2.805,2.785,7.346,2.785,10.134,0C117.006,110.798,117.006,106.27,114.203,103.464z
	 M99.449,122.477c-0.603-0.606-1.158-1.236-1.648-1.896L47.107,69.887c-12.344,3.876-26.355,0.926-36.122-8.845
	C2.731,52.808-0.644,41.53,0.817,30.793l20.271,20.259l24.156-6.471l6.471-24.152L31.489,0.204
	c10.7-1.444,21.948,1.938,30.174,10.148c9.782,9.783,12.721,23.795,8.841,36.138l50.707,50.707c0.659,0.499,1.294,1.033,1.883,1.636
	c6.524,6.528,6.524,17.125,0.018,23.645C116.579,129.006,105.982,129.006,99.449,122.477z"/>
<g>
</g>
<g>
</g>
<g>
</g>
<g>
</g>
<g>
</g>
<g>
</g>
</svg>
