<?xml version="1.0" encoding="utf-8"?>
<!-- Generator: Adobe Illustrator 16.0.4, SVG Export Plug-In . SVG Version: 6.00 Build 0)  -->
<!DOCTYPE svg PUBLIC "-//W3C//DTD SVG 1.1//EN" "http://www.w3.org/Graphics/SVG/1.1/DTD/svg11.dtd">
<svg version="1.1" id="Layer_1" xmlns="http://www.w3.org/2000/svg" xmlns:xlink="http://www.w3.org/1999/xlink" x="0px" y="0px"
	 width="128px" height="128px" viewBox="0 0 128 128" enable-background="new 0 0 128 128" xml:space="preserve">
<path fill="#F26722" d="M127.782,32.323v74.352c0,1.301-0.526,2.57-1.444,3.489c-0.92,0.919-2.19,1.445-3.49,1.445H5.469
	c-1.3,0-2.571-0.526-3.489-1.445s-1.445-2.188-1.445-3.489V32.323c0-1.3,0.527-2.57,1.445-3.489
	c0.918-0.918,2.189-1.445,3.489-1.445h58.774l4.146-8.75c0.849-1.791,2.661-2.937,4.643-2.937h28.389
	c2.078,0,3.936,1.236,4.738,3.153l3.573,8.534h13.116c1.3,0,2.57,0.527,3.49,1.445C127.256,29.753,127.782,31.023,127.782,32.323z
	 M55.732,71.477c0.001,16.384,13.28,29.666,29.668,29.668l0,0c16.396-0.002,29.676-13.284,29.677-29.668l0,0
	c-0.001-16.394-13.282-29.672-29.677-29.673l0,0C69.014,41.804,55.733,55.083,55.732,71.477L55.732,71.477z M66.753,52.823
	c4.776-4.775,11.358-7.723,18.647-7.723l0,0c7.293,0,13.877,2.948,18.654,7.723l0,0c4.776,4.777,7.724,11.361,7.725,18.653l0,0
	c-0.001,7.286-2.948,13.869-7.725,18.646l0,0c-4.777,4.775-11.361,7.724-18.654,7.725l0,0c-7.288-0.001-13.87-2.949-18.647-7.725
	l0,0c-4.774-4.777-7.723-11.36-7.724-18.646l0,0C59.03,64.184,61.979,57.6,66.753,52.823L66.753,52.823z M85.4,51.143
	c-11.222,0-20.329,9.102-20.329,20.337c0,11.224,9.107,20.326,20.329,20.326c11.232,0,20.337-9.103,20.337-20.326
	C105.737,60.244,96.633,51.143,85.4,51.143z M30.112,20.895H14.411v4.66h15.701V20.895z M50.229,32.826H32.941v10.313h17.288V32.826
	z M68.911,71.001c0,1.758,1.423,3.182,3.182,3.182l0,0c1.758,0,3.181-1.424,3.181-3.182l0,0c0.011-5.565,4.514-10.067,10.074-10.078
	l0,0c1.758,0,3.183-1.424,3.183-3.182l0,0c0-1.757-1.425-3.182-3.183-3.182l0,0C76.27,54.562,68.913,61.919,68.911,71.001
	L68.911,71.001z"/>
<g>
</g>
<g>
</g>
<g>
</g>
<g>
</g>
<g>
</g>
<g>
</g>
</svg>
